<svg width="427" height="332" viewBox="0 0 427 332" fill="none" xmlns="http://www.w3.org/2000/svg">
<g clip-path="url(#clip0_170_1485)">
<path d="M88.6448 218.378C69.3394 199.391 61.1857 179.583 65.6851 162.603C71.4592 140.813 97.1108 125.747 136.063 121.269L136.206 122.518C97.7969 126.935 72.5367 141.662 66.9024 162.925C62.5235 179.45 70.5589 198.825 89.5283 217.482L88.6448 218.378Z" fill="white"/>
<path d="M274.91 285.775C250.815 285.775 224.633 282.198 198.626 275.32C166.465 266.814 136.977 253.974 113.349 238.19L114.049 237.145C137.562 252.853 166.92 265.633 198.948 274.104C227.891 281.759 257.051 285.306 283.265 284.37L283.311 285.627C280.542 285.726 277.742 285.776 274.91 285.775Z" fill="white"/>
<path d="M330.185 277.865L329.782 276.673C351.331 269.394 364.809 257.668 368.759 242.763C373.78 223.814 362.872 201.826 338.043 180.847C313.088 159.762 277.103 142.267 236.714 131.585L237.036 130.369C277.601 141.098 313.762 158.684 338.856 179.887C364.077 201.196 375.129 223.64 369.976 243.085C365.913 258.418 352.153 270.444 330.185 277.865Z" fill="white"/>
<path d="M132.314 286.3C84.9702 265.323 48.4882 238.107 29.5889 209.666L30.6377 208.97C49.4063 237.214 85.6969 264.269 132.824 285.151L132.314 286.3Z" fill="white"/>
<path d="M298.771 322.643C293.888 322.643 288.921 322.534 283.871 322.316L283.925 321.059C321.613 322.689 354.865 318.184 380.093 308.026L380.564 309.193C358.557 318.053 330.506 322.643 298.771 322.643Z" fill="white"/>
<path d="M271.302 122.397C263.477 119.851 255.428 117.481 247.379 115.353C201.061 103.102 155.53 98.7526 115.706 102.777L115.58 101.525C155.552 97.4876 201.239 101.848 247.701 114.136C255.773 116.271 263.845 118.648 271.692 121.201L271.302 122.397Z" fill="white"/>
<path d="M59.0564 220.264C39.751 201.278 31.5974 181.47 36.0967 164.49C41.8709 142.7 67.5224 127.634 106.474 123.155L106.618 124.405C68.2086 128.821 42.9483 143.549 37.314 164.812C32.9352 181.336 40.9705 200.712 59.9399 219.368L59.0564 220.264Z" fill="white"/>
<path d="M245.321 287.662C221.227 287.662 195.044 284.085 169.037 277.206C136.876 268.7 107.388 255.861 83.7603 240.077L84.4599 239.031C107.974 254.739 137.331 267.52 169.359 275.99C198.302 283.646 227.462 287.193 253.677 286.257L253.722 287.513C250.954 287.613 248.153 287.662 245.321 287.662Z" fill="white"/>
<path d="M300.596 279.751L300.193 278.56C321.742 271.281 335.22 259.555 339.17 244.65C344.191 225.701 333.283 203.712 308.454 182.734C283.499 161.649 247.514 144.154 207.125 133.472L207.447 132.256C248.012 142.985 284.173 160.571 309.267 181.774C334.488 203.083 345.54 225.527 340.387 244.971C336.324 260.304 322.564 272.331 300.596 279.751Z" fill="white"/>
<path d="M102.725 288.187C55.3814 267.209 18.8993 239.994 0 211.552L1.04884 210.856C19.8175 239.101 56.1081 266.155 103.236 287.037L102.725 288.187Z" fill="white"/>
<path d="M269.182 324.529C264.299 324.529 259.332 324.42 254.282 324.203L254.336 322.946C292.024 324.576 325.276 320.07 350.505 309.913L350.975 311.08C328.968 319.939 300.917 324.529 269.182 324.529Z" fill="white"/>
<path d="M241.713 124.283C233.888 121.738 225.839 119.368 217.79 117.239C171.472 104.989 125.941 100.639 86.1173 104.663L85.9907 103.412C125.963 99.3744 171.65 103.734 218.113 116.023C226.184 118.158 234.256 120.535 242.103 123.087L241.713 124.283Z" fill="white"/>
<path d="M21.4605 186.572C30.5085 176.437 44.9417 170.26 58.0213 173.958C45.9548 182.489 37.2976 195.009 33.5815 209.303C32.1683 214.821 31.1716 221.105 26.5784 224.479C23.7204 226.578 19.9334 227.08 16.4187 226.602C12.9037 226.123 9.58028 224.758 6.30167 223.405L5.41943 223.481C7.95594 210.139 12.4125 196.707 21.4605 186.572Z" fill="white"/>
<path d="M57.9812 174.24C47.0458 176.886 37.2226 182.906 29.9069 191.446C28.2993 193.257 26.9875 195.309 26.0197 197.528C25.1468 199.72 24.8773 202.105 25.2392 204.436C25.533 206.616 26.0862 208.813 25.8443 211.026C25.7037 212.157 25.3253 213.246 24.734 214.221C24.1426 215.196 23.3516 216.035 22.413 216.683C20.1161 218.359 17.3536 219.11 14.6265 219.751C11.5987 220.462 8.44235 221.153 5.97414 223.164C5.67508 223.407 5.31426 222.929 5.61287 222.686C9.90713 219.188 15.8752 219.637 20.6264 217.097C22.8434 215.912 24.7162 214.051 25.1716 211.499C25.5697 209.267 25.0012 207.002 24.6847 204.797C24.2983 202.528 24.4738 200.199 25.1959 198.014C26.0475 195.753 27.278 193.654 28.8347 191.805C32.273 187.588 36.3535 183.937 40.9268 180.987C46.1276 177.59 51.8717 175.107 57.9105 173.646C58.2843 173.556 58.3526 174.151 57.9813 174.24L57.9812 174.24Z" fill="white"/>
<path d="M32.1005 188.558C30.8329 187.137 30.1121 185.313 30.0667 183.41C30.0214 181.507 30.6545 179.65 31.8531 178.171C32.0966 177.872 32.5724 178.236 32.3285 178.535C31.2099 179.911 30.6203 181.641 30.6661 183.412C30.7119 185.184 31.3902 186.881 32.5784 188.197C32.8363 188.483 32.3569 188.843 32.1005 188.558H32.1005Z" fill="white"/>
<path d="M24.9447 203.351C28.8304 203.609 32.6707 202.394 35.6998 199.949C35.9997 199.706 36.3606 200.184 36.061 200.426C32.9042 202.965 28.9052 204.221 24.8622 203.944C24.4768 203.917 24.5614 203.324 24.9447 203.351Z" fill="white"/>
<path d="M46.2627 178.372C46.6385 179.024 47.1705 179.572 47.8109 179.968C48.4513 180.364 49.18 180.594 49.9316 180.639C50.3171 180.661 50.2321 181.253 49.8491 181.232C49.0189 181.179 48.2145 180.923 47.506 180.487C46.7975 180.052 46.2066 179.449 45.7848 178.733C45.7394 178.669 45.7201 178.59 45.731 178.512C45.7418 178.434 45.7819 178.363 45.8431 178.314C45.9066 178.266 45.9864 178.246 46.0649 178.257C46.1435 178.268 46.2146 178.309 46.2627 178.372V178.372Z" fill="white"/>
<path d="M76.5881 216.032C76.347 216.025 76.1059 216.018 75.8617 216.016C72.6199 215.941 69.3774 216.13 66.1663 216.581C65.9175 216.612 65.6658 216.647 65.4183 216.685C57.6935 217.852 50.2528 220.442 43.4743 224.323C40.7785 225.87 38.2043 227.62 35.7741 229.557C32.4181 232.232 28.9924 235.4 25.0634 236.771C24.6551 236.918 24.238 237.041 23.8146 237.137L5.58109 224.551C5.55402 224.502 5.52388 224.456 5.49661 224.407L4.74561 223.937C4.86395 223.829 4.98904 223.719 5.10739 223.61C5.17578 223.547 5.24825 223.486 5.31662 223.423C5.3635 223.382 5.41061 223.34 5.45054 223.3C5.4661 223.287 5.48185 223.273 5.49455 223.263C5.53449 223.223 5.57583 223.19 5.6129 223.155C6.31039 222.537 7.01344 221.923 7.72205 221.313C7.72493 221.309 7.72493 221.309 7.73187 221.308C13.143 216.674 18.9889 212.451 25.2906 209.248C25.4802 209.152 25.6725 209.051 25.8704 208.961C28.719 207.533 31.6795 206.34 34.7225 205.394C36.3905 204.882 38.0833 204.454 39.7945 204.112C44.2178 203.238 48.7512 203.065 53.2285 203.598C62.1538 204.662 70.6389 208.567 76.1707 215.498C76.312 215.676 76.4496 215.85 76.5881 216.032Z" fill="white"/>
<path d="M76.3874 216.234C66.062 211.769 54.5906 210.667 43.6027 213.086C41.228 213.564 38.9436 214.414 36.8338 215.603C34.816 216.828 33.1633 218.571 32.0476 220.65C30.9682 222.567 30.0864 224.653 28.5594 226.275C27.7653 227.094 26.8071 227.736 25.7474 228.158C24.6877 228.581 23.5506 228.775 22.4105 228.728C19.5668 228.684 16.9084 227.622 14.3449 226.494C11.4985 225.241 8.56189 223.894 5.37965 224.014C4.99408 224.029 4.99394 223.43 5.37894 223.416C10.9155 223.206 15.41 227.154 20.7346 227.984C23.2191 228.371 25.8355 228.012 27.7372 226.248C29.4003 224.705 30.3114 222.555 31.3875 220.604C32.4462 218.56 33.9898 216.806 35.8833 215.496C37.9258 214.203 40.1735 213.267 42.5303 212.727C47.8169 211.428 53.2751 210.968 58.7049 211.363C64.9044 211.779 70.9869 213.252 76.6892 215.717C77.0421 215.87 76.738 216.386 76.3874 216.234V216.234Z" fill="white"/>
<path d="M47.0948 212.099C46.9389 210.202 47.463 208.311 48.5735 206.765C49.6839 205.218 51.3085 204.117 53.157 203.656C53.5313 203.565 53.6918 204.141 53.3169 204.233C51.5948 204.659 50.0816 205.685 49.0505 207.127C48.0194 208.57 47.5383 210.333 47.6939 212.098C47.7273 212.482 47.128 212.48 47.0948 212.099Z" fill="white"/>
<path d="M32.4664 219.606C35.4136 222.149 39.2119 223.489 43.1041 223.358C43.4897 223.345 43.4899 223.944 43.1048 223.957C39.0543 224.085 35.1043 222.683 32.0433 220.029C31.7517 219.776 32.1764 219.354 32.4664 219.606V219.606Z" fill="white"/>
<path d="M64.5406 212.484C64.4479 213.231 64.5422 213.989 64.815 214.69C65.0879 215.391 65.5308 216.013 66.1039 216.501C66.3985 216.75 65.9735 217.173 65.6808 216.925C65.05 216.383 64.5618 215.695 64.2586 214.921C63.9554 214.147 63.8465 213.311 63.9415 212.485C63.9439 212.407 63.9762 212.332 64.0318 212.276C64.0874 212.221 64.1621 212.188 64.2407 212.186C64.32 212.186 64.396 212.217 64.4522 212.273C64.5083 212.329 64.5401 212.405 64.5406 212.484H64.5406Z" fill="white"/>
<path d="M375.994 269.654C370.882 257.07 359.366 246.406 345.804 245.497C354.298 257.584 358.24 272.282 356.931 286.993C356.406 292.664 355.23 298.917 358.421 303.637C360.407 306.574 363.805 308.318 367.276 309.048C370.747 309.777 374.337 309.607 377.88 309.434L378.685 309.802C380.785 296.384 381.106 282.238 375.994 269.654Z" fill="white"/>
<path d="M345.747 245.777C355.157 251.94 362.383 260.908 366.4 271.408C367.305 273.653 367.85 276.027 368.015 278.442C368.1 280.799 367.551 283.136 366.426 285.21C365.416 287.165 364.156 289.047 363.639 291.213C363.391 292.326 363.381 293.478 363.61 294.595C363.839 295.712 364.302 296.768 364.968 297.693C366.567 300.043 368.916 301.678 371.269 303.197C373.882 304.884 376.622 306.594 378.27 309.317C378.47 309.646 378.97 309.317 378.771 308.988C375.903 304.252 370.131 302.671 366.511 298.683C364.822 296.822 363.684 294.441 364.114 291.884C364.49 289.649 365.787 287.706 366.827 285.736C367.954 283.729 368.572 281.476 368.627 279.176C368.586 276.76 368.133 274.37 367.289 272.106C365.47 266.98 362.855 262.172 359.54 257.857C355.784 252.912 351.21 248.645 346.014 245.24C345.692 245.03 345.428 245.567 345.747 245.777V245.777Z" fill="white"/>
<path d="M365.305 267.952C366.977 267.039 368.27 265.563 368.952 263.786C369.635 262.009 369.664 260.048 369.032 258.252C368.904 257.889 368.333 258.072 368.462 258.436C369.053 260.107 369.026 261.934 368.387 263.587C367.748 265.24 366.538 266.611 364.976 267.451C364.637 267.634 364.968 268.134 365.305 267.952V267.952Z" fill="white"/>
<path d="M367.068 284.286C363.322 283.224 360.114 280.791 358.084 277.47C357.883 277.141 357.382 277.47 357.583 277.799C359.702 281.25 363.046 283.776 366.947 284.872C367.319 284.976 367.438 284.39 367.068 284.286V284.286Z" fill="white"/>
<path d="M355.394 253.603C354.821 254.091 354.135 254.429 353.399 254.586C352.663 254.744 351.899 254.716 351.176 254.506C350.806 254.397 350.686 254.984 351.054 255.092C351.854 255.321 352.698 255.35 353.512 255.178C354.325 255.005 355.085 254.637 355.723 254.104C355.787 254.058 355.832 253.99 355.848 253.913C355.864 253.836 355.85 253.756 355.809 253.689C355.765 253.623 355.697 253.577 355.619 253.561C355.542 253.545 355.461 253.56 355.394 253.603V253.603Z" fill="white"/>
<path d="M314.163 278.888C314.392 278.963 314.622 279.038 314.853 279.117C317.931 280.136 320.921 281.402 323.794 282.905C324.018 283.017 324.243 283.135 324.464 283.254C331.346 286.947 337.483 291.885 342.561 297.817C344.58 300.179 346.416 302.691 348.053 305.331C350.313 308.978 352.474 313.111 355.713 315.722C356.048 315.998 356.4 316.253 356.767 316.486L378.173 310.755C378.215 310.717 378.259 310.685 378.301 310.647L379.167 310.458C379.092 310.315 379.011 310.17 378.936 310.028C378.893 309.945 378.845 309.864 378.802 309.781C378.772 309.727 378.741 309.672 378.717 309.621C378.707 309.603 378.697 309.584 378.688 309.571C378.664 309.52 378.636 309.475 378.613 309.429C378.164 308.613 377.708 307.799 377.246 306.987C377.245 306.982 377.245 306.982 377.239 306.978C373.701 300.797 369.616 294.856 364.759 289.724C364.612 289.57 364.465 289.411 364.309 289.259C362.107 286.958 359.72 284.84 357.172 282.928C355.773 281.885 354.323 280.913 352.826 280.017C348.954 277.708 344.743 276.023 340.347 275.022C331.583 273.027 322.278 273.855 314.736 278.526C314.543 278.646 314.355 278.764 314.163 278.888Z" fill="white"/>
<path d="M314.285 279.147C325.512 278.408 336.686 281.223 346.221 287.19C348.297 288.438 350.162 290.006 351.749 291.834C353.238 293.666 354.208 295.862 354.56 298.194C354.931 300.362 355.06 302.623 355.952 304.664C356.425 305.701 357.111 306.628 357.967 307.382C358.823 308.135 359.829 308.7 360.918 309.039C363.611 309.952 366.472 309.845 369.266 309.643C372.369 309.418 375.588 309.136 378.544 310.318C378.902 310.461 379.104 309.897 378.746 309.754C373.602 307.698 368.041 309.907 362.747 308.9C360.277 308.431 357.933 307.214 356.736 304.914C355.688 302.903 355.554 300.572 355.197 298.373C354.887 296.092 354.023 293.922 352.681 292.052C351.192 290.149 349.39 288.512 347.352 287.213C342.81 284.214 337.824 281.948 332.577 280.496C326.598 278.807 320.374 278.151 314.174 278.559C313.791 278.584 313.903 279.172 314.285 279.147V279.147Z" fill="white"/>
<path d="M343.264 285.089C344.049 283.355 344.191 281.398 343.666 279.569C343.14 277.739 341.981 276.156 340.394 275.102C340.073 274.89 339.728 275.379 340.05 275.592C341.529 276.571 342.608 278.045 343.094 279.75C343.58 281.455 343.44 283.276 342.7 284.887C342.539 285.237 343.104 285.437 343.264 285.089H343.264Z" fill="white"/>
<path d="M354.515 297.07C350.884 298.476 346.856 298.462 343.234 297.032C342.875 296.891 342.674 297.454 343.032 297.596C346.804 299.077 350.996 299.082 354.771 297.611C355.131 297.471 354.873 296.93 354.515 297.07V297.07Z" fill="white"/>
<path d="M326.703 279.593C326.539 280.328 326.195 281.01 325.702 281.578C325.21 282.147 324.583 282.585 323.879 282.852C323.518 282.987 323.776 283.528 324.135 283.393C324.911 283.094 325.603 282.61 326.149 281.983C326.695 281.356 327.079 280.605 327.267 279.795C327.291 279.72 327.286 279.639 327.252 279.568C327.218 279.497 327.159 279.441 327.086 279.413C327.011 279.386 326.929 279.39 326.857 279.424C326.785 279.458 326.73 279.519 326.703 279.593V279.593Z" fill="white"/>
<path d="M276.817 312.504C279.598 312.504 281.853 310.251 281.853 307.472C281.853 304.693 279.598 302.44 276.817 302.44C274.035 302.44 271.78 304.693 271.78 307.472C271.78 310.251 274.035 312.504 276.817 312.504Z" fill="#FD6584"/>
<path d="M294.656 226.803C297.438 226.803 299.693 224.551 299.693 221.772C299.693 218.993 297.438 216.74 294.656 216.74C291.875 216.74 289.62 218.993 289.62 221.772C289.62 224.551 291.875 226.803 294.656 226.803Z" fill="white"/>
<path d="M200.942 87.237C203.723 87.237 205.978 84.9843 205.978 82.2054C205.978 79.4265 203.723 77.1738 200.942 77.1738C198.16 77.1738 195.905 79.4265 195.905 82.2054C195.905 84.9843 198.16 87.237 200.942 87.237Z" fill="white"/>
<path d="M95.4014 275.217C95.4014 276.498 95.4436 277.778 95.5333 279.049C95.6283 280.567 95.7918 282.074 96.0134 283.571C96.7581 288.611 98.1814 293.528 100.245 298.187C100.35 298.419 100.456 298.651 100.561 298.883L100.72 299.231C100.772 299.347 100.83 299.463 100.883 299.573C100.957 299.726 101.026 299.874 101.099 300.022C101.189 300.206 101.279 300.39 101.374 300.575C101.384 300.596 101.395 300.622 101.411 300.649C101.49 300.807 101.564 300.96 101.648 301.118C101.664 301.152 101.681 301.186 101.701 301.218C101.791 301.397 101.885 301.582 101.98 301.761C102.086 301.951 102.186 302.146 102.292 302.335C102.545 302.805 102.809 303.268 103.078 303.732C103.157 303.869 103.236 304.006 103.321 304.143C103.394 304.27 103.468 304.396 103.547 304.523C103.6 304.607 103.653 304.697 103.706 304.781C103.79 304.923 103.874 305.06 103.964 305.203C104.159 305.514 104.36 305.825 104.555 306.136H104.56C104.65 306.278 104.745 306.42 104.84 306.557V306.563C105.12 306.984 105.41 307.406 105.7 307.822C105.701 307.822 105.701 307.823 105.702 307.823C105.703 307.823 105.703 307.823 105.704 307.824C105.704 307.824 105.705 307.825 105.705 307.826C105.705 307.826 105.705 307.827 105.705 307.828C105.937 308.165 106.18 308.492 106.417 308.819V308.824C106.576 309.029 106.729 309.24 106.887 309.446C107.014 309.614 107.146 309.788 107.277 309.957C107.304 309.994 107.335 310.026 107.362 310.063V310.068C107.399 310.115 107.436 310.157 107.473 310.205C108.032 310.922 108.609 311.623 109.203 312.308L109.298 312.419C109.33 312.455 109.367 312.492 109.398 312.535C109.451 312.593 109.499 312.651 109.551 312.708C109.599 312.766 109.652 312.824 109.704 312.882C112.803 316.37 116.316 319.465 120.166 322.101C120.678 322.454 121.201 322.797 121.723 323.129C121.855 323.213 121.987 323.298 122.119 323.377C122.155 323.403 122.198 323.429 122.235 323.456C122.308 323.498 122.377 323.54 122.451 323.588C122.519 323.63 122.588 323.672 122.662 323.714C122.942 323.888 123.226 324.057 123.511 324.225C123.58 324.268 123.654 324.31 123.728 324.352C123.796 324.389 123.87 324.431 123.944 324.473C123.944 324.478 123.944 324.478 123.949 324.478H123.955V324.484H123.96C124.313 324.689 124.672 324.89 125.036 325.085C125.231 325.19 125.432 325.301 125.632 325.401C126.086 325.649 126.545 325.886 127.004 326.112C127.168 326.191 127.336 326.27 127.5 326.355C127.637 326.418 127.774 326.487 127.911 326.55C127.954 326.571 127.991 326.587 128.028 326.608C128.144 326.661 128.254 326.713 128.37 326.766C128.497 326.824 128.624 326.882 128.745 326.94C128.887 327.003 129.025 327.066 129.167 327.124C129.695 327.362 130.228 327.588 130.76 327.804C132.67 328.586 134.622 329.262 136.606 329.828C136.696 329.855 136.791 329.881 136.886 329.907C137.735 330.145 138.59 330.361 139.45 330.556C140.953 330.904 142.471 331.188 144.003 331.41H144.014C144.198 331.436 144.378 331.462 144.562 331.489C144.578 331.489 144.594 331.494 144.615 331.494C144.615 331.499 144.615 331.499 144.62 331.494C144.821 331.52 145.026 331.547 145.227 331.573C145.241 331.577 145.255 331.579 145.269 331.578C145.459 331.605 145.654 331.626 145.844 331.647C146.05 331.668 146.256 331.689 146.462 331.71C146.62 331.726 146.778 331.742 146.936 331.757C146.95 331.762 146.964 331.764 146.979 331.763C147.121 331.773 147.263 331.789 147.406 331.8H147.427C147.548 331.81 147.675 331.821 147.796 331.831C149.268 331.947 150.746 332 152.244 332C153.864 332 155.473 331.937 157.061 331.8H157.077C157.42 331.768 157.757 331.736 158.095 331.705C158.185 331.694 158.269 331.689 158.359 331.678C158.374 331.678 158.396 331.673 158.411 331.673C158.438 331.668 158.464 331.668 158.496 331.663C158.51 331.663 158.524 331.661 158.538 331.657C158.654 331.647 158.77 331.631 158.892 331.62L159.287 331.573C159.419 331.557 159.551 331.536 159.683 331.52C159.715 331.515 159.741 331.515 159.773 331.51C159.868 331.499 159.963 331.483 160.057 331.468C160.105 331.462 160.152 331.457 160.195 331.452C160.29 331.436 160.379 331.425 160.474 331.41H160.48C163.375 330.993 166.232 330.35 169.026 329.486C169.174 329.438 169.322 329.396 169.47 329.349C169.475 329.349 169.48 329.343 169.485 329.343C169.528 329.328 169.575 329.317 169.617 329.301C170.013 329.175 170.404 329.043 170.794 328.906C171.332 328.727 171.865 328.532 172.398 328.331C172.54 328.273 172.683 328.221 172.825 328.163C173.115 328.052 173.4 327.936 173.685 327.82C174.171 327.625 174.656 327.42 175.136 327.209C175.584 327.008 176.028 326.808 176.471 326.597C176.481 326.592 176.497 326.592 176.508 326.581C176.608 326.534 176.708 326.487 176.803 326.439H176.808C179.238 325.274 181.581 323.937 183.82 322.439C184.538 321.959 185.245 321.463 185.941 320.952C186.5 320.536 187.049 320.114 187.598 319.682C190.305 317.531 192.81 315.139 195.084 312.535V312.529C195.248 312.35 195.401 312.166 195.559 311.981C195.585 311.955 195.606 311.928 195.628 311.907C195.728 311.786 195.823 311.67 195.923 311.554V311.549C196.055 311.396 196.187 311.238 196.313 311.08C196.345 311.043 196.371 311.011 196.398 310.98V310.974C196.503 310.848 196.604 310.721 196.709 310.59C196.762 310.526 196.809 310.463 196.862 310.4V310.395C197.173 310.005 197.474 309.615 197.775 309.214C197.854 309.109 197.933 308.998 198.018 308.887C198.397 308.376 198.767 307.854 199.125 307.332V307.327C199.263 307.132 199.395 306.932 199.532 306.737C199.664 306.536 199.796 306.336 199.927 306.136C200.059 305.925 200.196 305.719 200.328 305.509L200.344 305.477C200.476 305.277 200.608 305.066 200.735 304.86C200.835 304.692 200.935 304.528 201.035 304.365C201.099 304.254 201.167 304.143 201.231 304.027C201.255 303.992 201.278 303.955 201.299 303.917C201.447 303.658 201.595 303.4 201.742 303.142C201.916 302.842 202.085 302.536 202.254 302.23C202.317 302.104 202.386 301.977 202.455 301.851C202.481 301.808 202.502 301.766 202.523 301.724C202.602 301.576 202.681 301.424 202.755 301.271C202.834 301.123 202.914 300.97 202.993 300.817C203.067 300.67 203.146 300.517 203.22 300.364C203.278 300.248 203.33 300.132 203.388 300.016C203.392 300.007 203.398 299.998 203.404 299.99C203.431 299.932 203.457 299.879 203.478 299.827C203.485 299.819 203.49 299.81 203.494 299.8C203.552 299.684 203.605 299.563 203.663 299.447C203.737 299.294 203.805 299.136 203.879 298.983C203.927 298.878 203.979 298.767 204.027 298.656C204.095 298.504 204.169 298.351 204.233 298.193C204.306 298.034 204.375 297.876 204.444 297.713C204.463 297.674 204.481 297.633 204.496 297.592C204.533 297.518 204.56 297.444 204.591 297.37C204.676 297.175 204.76 296.975 204.839 296.78C204.934 296.559 205.024 296.332 205.108 296.111C205.193 295.905 205.272 295.694 205.351 295.483L205.383 295.41C206.612 292.175 207.544 288.835 208.168 285.432V285.426C208.52 283.483 208.772 281.524 208.923 279.555C208.928 279.444 208.939 279.339 208.944 279.233C209.039 277.9 209.081 276.561 209.081 275.217C209.081 274.621 209.071 274.031 209.055 273.441C208.686 261.094 204.28 249.208 196.509 239.601C196.34 239.391 196.171 239.18 195.997 238.969C195.823 238.758 195.643 238.553 195.469 238.347C189.686 231.58 182.392 226.266 174.175 222.832C165.958 219.399 157.049 217.942 148.165 218.58C139.282 219.217 130.673 221.931 123.031 226.503C115.39 231.074 108.931 237.376 104.175 244.899C103.917 245.31 103.658 245.726 103.41 246.143C103.157 246.564 102.914 246.986 102.672 247.413C97.892 255.901 95.3877 265.478 95.4014 275.217Z" fill="white"/>
<path d="M149.985 238.075C159.331 240.471 168.909 241.852 178.553 242.194C180.011 242.274 181.473 242.264 182.93 242.165C186.132 241.896 188.874 240.89 191.929 240.341C193.397 240.077 195.033 239.885 196.511 239.6C196.17 239.177 195.822 238.758 195.468 238.345C192.28 238.615 189.043 239.495 185.817 239.905C180.333 240.601 174.188 239.824 170.031 237.906C168.014 236.976 166.469 235.815 164.459 234.88C164.186 234.74 163.89 234.65 163.585 234.613C163.005 234.595 162.433 234.744 161.935 235.04C158.563 236.741 153.667 238.123 149.123 237.363C148.784 237.628 149.428 237.929 149.985 238.075Z" fill="white"/>
<path d="M129.876 244.06C129.835 244.053 129.793 244.047 129.751 244.04C129.926 243.932 130.09 243.808 130.243 243.67L129.876 244.06Z" fill="white"/>
<path d="M102.673 247.415C104.571 247.567 106.479 247.68 108.396 247.754C109.855 247.832 111.316 247.822 112.773 247.724C115.975 247.454 118.718 246.45 121.773 245.9C124.572 245.397 127.974 245.155 129.751 244.039C125.157 243.245 120.398 244.862 115.661 245.464C111.829 245.935 107.945 245.743 104.178 244.898C103.654 245.722 103.152 246.561 102.673 247.415Z" fill="white"/>
<path d="M125.632 325.401C126.086 325.649 126.545 325.886 127.004 326.113C127.168 326.192 127.336 326.271 127.5 326.355C127.637 326.419 127.774 326.487 127.912 326.55C127.954 326.571 127.991 326.587 128.028 326.608C128.144 326.661 128.254 326.714 128.371 326.766C128.497 326.824 128.624 326.882 128.745 326.94C128.888 327.004 129.025 327.067 129.167 327.125C129.695 327.362 130.228 327.589 130.76 327.805C132.67 328.587 134.622 329.263 136.606 329.829C136.696 329.855 136.791 329.882 136.886 329.908C137.735 330.145 138.59 330.361 139.45 330.556C140.954 330.904 142.471 331.189 144.003 331.41H144.014C144.198 331.436 144.378 331.463 144.562 331.489C144.578 331.489 144.594 331.494 144.615 331.494C144.615 331.5 144.615 331.5 144.62 331.494C144.821 331.521 145.027 331.547 145.227 331.573C145.241 331.578 145.255 331.579 145.269 331.579C145.459 331.605 145.654 331.626 145.844 331.647C146.05 331.668 146.256 331.689 146.462 331.711C146.62 331.726 146.778 331.742 146.936 331.758C146.95 331.763 146.964 331.764 146.979 331.763C147.121 331.774 147.264 331.79 147.406 331.8H147.427C147.548 331.811 147.675 331.821 147.796 331.832C149.268 331.948 150.746 332 152.244 332C153.864 332 155.473 331.937 157.061 331.8H157.077C157.42 331.769 157.757 331.737 158.095 331.705C158.185 331.695 158.269 331.689 158.359 331.679C158.375 331.679 158.396 331.674 158.411 331.674C158.438 331.668 158.464 331.668 158.496 331.663C158.51 331.664 158.524 331.662 158.538 331.658C158.654 331.647 158.77 331.631 158.892 331.621L159.287 331.573C159.419 331.558 159.551 331.537 159.683 331.521C159.715 331.515 159.741 331.516 159.773 331.51C159.868 331.5 159.963 331.484 160.058 331.468C160.105 331.463 160.153 331.458 160.195 331.452C160.29 331.436 160.379 331.426 160.474 331.41H160.48C163.375 330.994 166.232 330.35 169.027 329.486C169.174 329.439 169.322 329.397 169.47 329.349C168.789 326.175 167.386 323.2 165.371 320.654C163.355 318.108 160.781 316.059 157.847 314.665C158.573 313.974 159.074 313.081 159.287 312.103C159.424 311.472 159.435 310.82 159.319 310.185C159.203 309.55 158.963 308.945 158.612 308.403C157.927 307.352 156.853 306.617 155.626 306.358L147.807 304.724C146.548 304.478 145.244 304.74 144.177 305.45C143.11 306.161 142.367 307.264 142.109 308.519C142.029 308.903 141.994 309.296 142.003 309.689C134.475 314.696 129.056 319.888 125.632 325.401Z" fill="#6C63FF"/>
<path d="M148.719 301.638C157.716 301.638 165.009 294.352 165.009 285.364C165.009 276.376 157.716 269.09 148.719 269.09C139.723 269.09 132.43 276.376 132.43 285.364C132.43 294.352 139.723 301.638 148.719 301.638Z" fill="#FFB8B8"/>
<path d="M138.566 299.395C136.829 298.209 135.055 295.931 133.87 294.224C132.301 291.98 131.221 289.431 130.701 286.743C130.181 284.056 130.232 281.289 130.85 278.622C131.047 277.555 131.532 276.563 132.252 275.752C133.02 274.993 134.273 274.633 135.209 275.17C134.953 274.486 134.841 273.757 134.878 273.029C134.916 272.3 135.102 271.586 135.426 270.932C136.084 269.626 137.038 268.492 138.211 267.618C140.456 265.891 143.126 264.804 145.939 264.471C148.752 264.139 151.603 264.573 154.189 265.728C155.206 266.199 153.535 262.561 154.6 262.912C155.658 263.321 156.834 263.301 157.877 262.855C158.879 262.351 162.199 265.344 161.815 264.291C162.575 264.636 163.236 265.167 163.735 265.836C164.234 266.504 164.556 267.288 164.67 268.114C164.785 268.941 164.688 269.782 164.389 270.561C164.09 271.34 163.599 272.03 162.961 272.568C162.12 273.277 161.07 273.686 160.15 274.287C158.537 275.421 157.395 277.105 156.941 279.022C156.486 280.939 156.749 282.956 157.681 284.692C156.713 284.071 155.65 283.609 154.534 283.326C153.975 283.19 153.39 283.189 152.83 283.323C152.27 283.458 151.75 283.724 151.314 284.1C150.949 284.517 150.673 285.004 150.504 285.531C150.335 286.058 150.275 286.615 150.329 287.166C150.365 288.27 150.628 289.358 150.658 290.463C150.744 293.704 152.482 299.866 149.966 301.589C147.981 302.948 140.937 301.013 138.566 299.395Z" fill="#2F2E41"/>
<path d="M159.92 203.908C159.577 203.907 159.237 203.838 158.921 203.706C158.448 203.516 158.045 203.189 157.762 202.766C157.479 202.343 157.331 201.845 157.336 201.336V198.76C157.335 198.22 157.12 197.702 156.738 197.32C156.355 196.938 155.837 196.723 155.296 196.722C154.615 196.722 153.963 196.451 153.481 195.97C153 195.489 152.729 194.837 152.729 194.157V158.866C152.729 158.186 153 157.534 153.481 157.053C153.963 156.572 154.615 156.302 155.296 156.301H272.329C273.01 156.302 273.663 156.572 274.144 157.053C274.625 157.534 274.896 158.186 274.897 158.866V194.157C274.896 194.837 274.625 195.489 274.144 195.97C273.663 196.451 273.01 196.722 272.329 196.722H168.998C168.73 196.722 168.465 196.774 168.217 196.876C167.969 196.979 167.744 197.129 167.555 197.319L161.719 203.15C161.484 203.389 161.204 203.579 160.896 203.709C160.587 203.839 160.255 203.907 159.92 203.908V203.908Z" fill="white"/>
<path d="M159.92 204.434C159.507 204.434 159.099 204.352 158.718 204.192C158.149 203.964 157.662 203.569 157.321 203.059C156.981 202.55 156.802 201.949 156.808 201.336V198.76C156.808 198.36 156.648 197.976 156.365 197.692C156.081 197.409 155.697 197.25 155.296 197.249C154.475 197.248 153.688 196.922 153.108 196.342C152.528 195.763 152.202 194.977 152.201 194.157V158.866C152.202 158.046 152.528 157.26 153.108 156.68C153.688 156.1 154.475 155.774 155.296 155.773H272.329C273.15 155.774 273.936 156.1 274.517 156.68C275.097 157.26 275.423 158.046 275.424 158.866V194.157C275.423 194.977 275.097 195.763 274.517 196.342C273.936 196.922 273.15 197.248 272.329 197.249H168.998C168.799 197.249 168.602 197.287 168.419 197.363C168.235 197.439 168.068 197.551 167.928 197.692L162.092 203.522C161.808 203.81 161.47 204.039 161.097 204.196C160.724 204.352 160.324 204.433 159.92 204.434V204.434ZM155.296 156.828C154.755 156.828 154.236 157.043 153.854 157.425C153.472 157.807 153.256 158.325 153.256 158.866V194.157C153.256 194.697 153.471 195.215 153.854 195.597C154.236 195.98 154.755 196.194 155.296 196.195C155.977 196.196 156.629 196.466 157.111 196.947C157.592 197.428 157.863 198.08 157.863 198.76V201.336C157.863 201.739 157.983 202.133 158.207 202.468C158.431 202.803 158.75 203.065 159.123 203.219C159.495 203.373 159.906 203.413 160.301 203.335C160.697 203.256 161.06 203.062 161.346 202.777L167.182 196.947C167.42 196.708 167.703 196.518 168.015 196.389C168.326 196.26 168.66 196.194 168.998 196.195H272.329C272.87 196.194 273.389 195.98 273.771 195.597C274.153 195.215 274.368 194.697 274.369 194.157V158.866C274.368 158.325 274.153 157.807 273.771 157.425C273.388 157.043 272.87 156.828 272.329 156.828L155.296 156.828Z" fill="#3F3D56"/>
<path d="M262.272 172.278H167.37C167.008 172.278 166.66 172.134 166.404 171.878C166.147 171.622 166.003 171.275 166.003 170.912C166.003 170.55 166.147 170.203 166.404 169.947C166.66 169.691 167.008 169.547 167.37 169.547H262.272C262.635 169.547 262.982 169.691 263.239 169.947C263.495 170.203 263.639 170.55 263.639 170.912C263.639 171.275 263.495 171.622 263.239 171.878C262.982 172.134 262.635 172.278 262.272 172.278Z" fill="#6C63FF"/>
<path d="M262.098 178.08H167.37C167.008 178.08 166.66 177.936 166.404 177.68C166.147 177.424 166.003 177.076 166.003 176.714C166.003 176.352 166.147 176.005 166.404 175.749C166.66 175.493 167.008 175.349 167.37 175.349H262.098C262.46 175.349 262.808 175.493 263.064 175.749C263.321 176.005 263.465 176.352 263.465 176.714C263.465 177.076 263.321 177.424 263.064 177.68C262.808 177.936 262.46 178.08 262.098 178.08V178.08Z" fill="white"/>
<path d="M262.003 183.881H167.37C167.008 183.881 166.66 183.737 166.404 183.481C166.147 183.225 166.003 182.877 166.003 182.515C166.003 182.153 166.147 181.805 166.404 181.549C166.66 181.293 167.008 181.149 167.37 181.149H262.003C262.366 181.149 262.714 181.293 262.97 181.549C263.226 181.805 263.37 182.153 263.37 182.515C263.37 182.877 263.226 183.225 262.97 183.481C262.714 183.737 262.366 183.881 262.003 183.881V183.881Z" fill="white"/>
<path d="M411.723 150.824C411.723 152.105 411.68 153.386 411.591 154.656C411.496 156.174 411.332 157.682 411.111 159.179C410.366 164.219 408.943 169.135 406.879 173.795C406.774 174.027 406.668 174.259 406.563 174.49L406.405 174.838C406.352 174.954 406.294 175.07 406.241 175.181C406.167 175.334 406.099 175.481 406.025 175.629C405.935 175.813 405.845 175.998 405.75 176.182C405.74 176.203 405.729 176.23 405.713 176.256C405.634 176.414 405.56 176.567 405.476 176.725C405.46 176.76 405.443 176.793 405.423 176.825C405.334 177.005 405.239 177.189 405.144 177.368C405.038 177.558 404.938 177.753 404.832 177.943C404.579 178.412 404.315 178.876 404.046 179.34C403.967 179.477 403.888 179.614 403.804 179.751C403.73 179.877 403.656 180.004 403.577 180.13C403.524 180.215 403.471 180.304 403.418 180.389C403.334 180.531 403.25 180.668 403.16 180.81C402.965 181.121 402.764 181.432 402.569 181.743H402.564C402.474 181.885 402.379 182.028 402.284 182.165V182.17C402.004 182.592 401.714 183.013 401.424 183.43C401.423 183.43 401.423 183.43 401.422 183.43C401.421 183.43 401.421 183.431 401.42 183.431C401.42 183.432 401.419 183.432 401.419 183.433C401.419 183.434 401.419 183.434 401.419 183.435C401.187 183.772 400.944 184.099 400.707 184.426V184.431C400.548 184.637 400.395 184.848 400.237 185.053C400.11 185.222 399.979 185.396 399.847 185.565C399.82 185.601 399.789 185.633 399.762 185.67V185.675C399.725 185.723 399.688 185.765 399.651 185.812C399.092 186.529 398.515 187.23 397.921 187.915L397.826 188.026C397.794 188.063 397.757 188.1 397.726 188.142C397.673 188.2 397.625 188.258 397.573 188.316C397.525 188.374 397.472 188.432 397.42 188.49C394.321 191.977 390.808 195.073 386.958 197.709C386.446 198.062 385.924 198.404 385.401 198.736C385.269 198.821 385.137 198.905 385.006 198.984C384.969 199.011 384.926 199.037 384.889 199.063C384.816 199.105 384.747 199.148 384.673 199.195C384.605 199.237 384.536 199.279 384.462 199.322C384.182 199.495 383.898 199.664 383.613 199.833C383.544 199.875 383.47 199.917 383.396 199.959C383.328 199.996 383.254 200.038 383.18 200.081C383.18 200.086 383.18 200.086 383.175 200.086H383.169V200.091H383.164C382.811 200.297 382.452 200.497 382.088 200.692C381.893 200.797 381.692 200.908 381.492 201.008C381.038 201.256 380.579 201.493 380.12 201.72C379.956 201.799 379.788 201.878 379.624 201.962C379.487 202.026 379.35 202.094 379.213 202.157C379.17 202.178 379.133 202.194 379.097 202.215C378.98 202.268 378.87 202.321 378.754 202.373C378.627 202.431 378.5 202.489 378.379 202.547C378.237 202.611 378.099 202.674 377.957 202.732C377.429 202.969 376.896 203.196 376.364 203.412C374.454 204.194 372.502 204.87 370.518 205.436C370.428 205.462 370.333 205.488 370.238 205.515C369.389 205.752 368.534 205.968 367.674 206.163C366.171 206.511 364.653 206.796 363.121 207.017H363.111C362.926 207.043 362.746 207.07 362.562 207.096C362.546 207.096 362.53 207.101 362.509 207.101C362.509 207.107 362.509 207.107 362.504 207.101C362.303 207.128 362.098 207.154 361.897 207.18C361.883 207.184 361.869 207.186 361.855 207.186C361.665 207.212 361.47 207.233 361.28 207.254C361.074 207.275 360.868 207.296 360.663 207.317C360.504 207.333 360.346 207.349 360.188 207.365C360.174 207.37 360.16 207.371 360.145 207.37C360.003 207.381 359.861 207.397 359.718 207.407H359.697C359.576 207.418 359.449 207.428 359.328 207.439C357.856 207.555 356.378 207.607 354.88 207.607C353.26 207.607 351.651 207.544 350.063 207.407H350.047C349.705 207.375 349.367 207.344 349.029 207.312C348.94 207.302 348.855 207.296 348.765 207.286C348.75 207.286 348.728 207.281 348.713 207.281C348.686 207.275 348.66 207.275 348.628 207.27C348.614 207.271 348.6 207.269 348.586 207.265C348.47 207.254 348.354 207.238 348.233 207.228L347.837 207.18C347.705 207.165 347.573 207.144 347.441 207.128C347.409 207.122 347.383 207.122 347.351 207.117C347.256 207.107 347.162 207.091 347.067 207.075C347.019 207.07 346.972 207.064 346.929 207.059C346.834 207.043 346.745 207.033 346.65 207.017H346.644C343.749 206.601 340.892 205.957 338.098 205.093C337.95 205.046 337.802 205.004 337.654 204.956C337.649 204.956 337.644 204.951 337.639 204.951C337.596 204.935 337.549 204.925 337.507 204.909C337.111 204.782 336.721 204.65 336.33 204.513C335.792 204.334 335.259 204.139 334.726 203.939C334.584 203.881 334.441 203.828 334.299 203.77C334.009 203.66 333.724 203.544 333.439 203.428C332.954 203.233 332.468 203.027 331.988 202.816C331.54 202.616 331.096 202.416 330.653 202.205C330.643 202.199 330.627 202.2 330.616 202.189C330.516 202.141 330.416 202.094 330.321 202.047H330.316C327.886 200.882 325.543 199.545 323.304 198.046C322.586 197.566 321.879 197.071 321.183 196.56C320.624 196.143 320.075 195.722 319.526 195.289C316.819 193.138 314.314 190.746 312.04 188.142V188.137C311.876 187.958 311.723 187.773 311.565 187.589C311.539 187.562 311.518 187.536 311.496 187.515C311.396 187.394 311.301 187.278 311.201 187.162V187.156C311.069 187.004 310.937 186.845 310.811 186.687C310.779 186.65 310.753 186.619 310.726 186.587V186.582C310.621 186.455 310.52 186.329 310.415 186.197C310.362 186.134 310.315 186.071 310.262 186.007V186.002C309.951 185.612 309.65 185.222 309.349 184.821C309.27 184.716 309.191 184.605 309.107 184.495C308.727 183.983 308.357 183.461 307.999 182.94V182.934C307.861 182.739 307.729 182.539 307.592 182.344C307.46 182.144 307.329 181.943 307.197 181.743C307.065 181.532 306.928 181.327 306.796 181.116L306.78 181.084C306.648 180.884 306.516 180.673 306.389 180.468C306.289 180.299 306.189 180.136 306.089 179.972C306.025 179.861 305.957 179.751 305.893 179.635C305.869 179.599 305.846 179.562 305.825 179.524C305.677 179.266 305.529 179.008 305.382 178.749C305.208 178.449 305.039 178.143 304.87 177.837C304.807 177.711 304.738 177.584 304.669 177.458C304.643 177.416 304.622 177.374 304.601 177.331C304.522 177.184 304.443 177.031 304.369 176.878C304.29 176.731 304.21 176.578 304.131 176.425C304.057 176.277 303.978 176.124 303.904 175.972C303.846 175.856 303.794 175.74 303.736 175.624C303.732 175.614 303.726 175.605 303.72 175.597C303.693 175.539 303.667 175.487 303.646 175.434C303.64 175.426 303.634 175.417 303.63 175.408C303.572 175.292 303.519 175.17 303.461 175.054C303.387 174.902 303.319 174.743 303.245 174.591C303.198 174.485 303.145 174.375 303.097 174.264C303.029 174.111 302.955 173.958 302.892 173.8C302.818 173.642 302.749 173.484 302.68 173.32C302.661 173.281 302.643 173.24 302.628 173.199C302.591 173.125 302.564 173.052 302.533 172.978C302.448 172.783 302.364 172.582 302.285 172.387C302.19 172.166 302.1 171.939 302.016 171.718C301.931 171.512 301.852 171.302 301.773 171.091L301.741 171.017C300.512 167.782 299.58 164.443 298.956 161.039V161.034C298.604 159.091 298.352 157.131 298.201 155.162C298.196 155.051 298.185 154.946 298.18 154.841C298.085 153.507 298.043 152.168 298.043 150.824C298.043 150.229 298.054 149.638 298.069 149.048C298.438 136.702 302.844 124.816 310.615 115.209C310.784 114.998 310.953 114.787 311.127 114.576C311.301 114.366 311.481 114.16 311.655 113.954C317.438 107.188 324.733 101.873 332.949 98.4398C341.166 95.0062 350.075 93.5495 358.959 94.187C367.842 94.8245 376.452 97.5385 384.093 102.11C391.734 106.682 398.193 112.983 402.949 120.506C403.207 120.917 403.466 121.334 403.714 121.75C403.967 122.172 404.21 122.593 404.452 123.02C409.232 131.508 411.736 141.085 411.723 150.824V150.824Z" fill="white"/>
<path d="M357.14 113.682C347.793 116.078 338.215 117.46 328.572 117.802C327.114 117.881 325.652 117.871 324.195 117.772C320.993 117.503 318.25 116.498 315.196 115.948C313.727 115.685 312.092 115.492 310.613 115.208C310.955 114.784 311.303 114.366 311.656 113.953C314.844 114.222 318.082 115.103 321.308 115.512C326.792 116.209 332.936 115.431 337.093 113.514C339.11 112.584 340.655 111.422 342.665 110.488C342.939 110.348 343.235 110.257 343.54 110.22C344.119 110.203 344.692 110.351 345.19 110.648C348.562 112.348 353.458 113.731 358.002 112.97C358.341 113.235 357.697 113.537 357.14 113.682Z" fill="white"/>
<path d="M377.248 119.667C377.29 119.659 377.331 119.653 377.373 119.646C377.198 119.538 377.034 119.414 376.882 119.276L377.248 119.667Z" fill="white"/>
<path d="M404.451 123.023C402.553 123.174 400.646 123.287 398.728 123.361C397.27 123.44 395.808 123.43 394.351 123.331C391.149 123.061 388.406 122.057 385.352 121.507C382.552 121.005 379.15 120.763 377.373 119.647C381.967 118.852 386.727 120.47 391.464 121.071C395.295 121.542 399.179 121.35 402.946 120.505C403.471 121.329 403.972 122.168 404.451 123.023Z" fill="white"/>
<path d="M348.472 175.672C357.901 175.672 365.544 167.865 365.544 158.236C365.544 148.606 357.901 140.8 348.472 140.8C339.044 140.8 331.4 148.606 331.4 158.236C331.4 167.865 339.044 175.672 348.472 175.672Z" fill="#FFB6B6"/>
<path d="M381.492 201.008C381.038 201.255 380.579 201.493 380.12 201.719C379.956 201.798 379.788 201.877 379.624 201.962C379.487 202.025 379.35 202.094 379.213 202.157C379.17 202.178 379.133 202.194 379.096 202.215C378.98 202.267 378.87 202.32 378.754 202.373C378.627 202.431 378.5 202.489 378.379 202.547C378.236 202.61 378.099 202.673 377.957 202.731C377.429 202.969 376.896 203.195 376.364 203.411C374.454 204.193 372.502 204.869 370.518 205.435C370.428 205.462 370.333 205.488 370.238 205.514C369.389 205.752 368.534 205.968 367.674 206.163C366.171 206.511 364.653 206.795 363.121 207.017H363.11C362.926 207.043 362.746 207.069 362.562 207.096C362.546 207.096 362.53 207.101 362.509 207.101C362.509 207.106 362.509 207.106 362.504 207.101C362.303 207.127 362.098 207.154 361.897 207.18C361.883 207.184 361.869 207.186 361.855 207.185C361.665 207.212 361.47 207.233 361.28 207.254C361.074 207.275 360.868 207.296 360.662 207.317C360.504 207.333 360.346 207.349 360.188 207.364C360.174 207.369 360.16 207.371 360.145 207.37C360.003 207.38 359.861 207.396 359.718 207.407H359.697C359.576 207.417 359.449 207.428 359.328 207.438C357.856 207.554 356.378 207.607 354.88 207.607C353.26 207.607 351.651 207.544 350.063 207.407H350.047C349.704 207.375 349.367 207.343 349.029 207.312C348.939 207.301 348.855 207.296 348.765 207.285C348.749 207.285 348.728 207.28 348.713 207.28C348.686 207.275 348.66 207.275 348.628 207.27C348.614 207.27 348.6 207.268 348.586 207.264C348.47 207.254 348.354 207.238 348.232 207.227L347.837 207.18C347.705 207.164 347.573 207.143 347.441 207.127C347.409 207.122 347.383 207.122 347.351 207.117C347.256 207.106 347.161 207.09 347.066 207.075C347.019 207.069 346.972 207.064 346.929 207.059C346.834 207.043 346.745 207.032 346.65 207.017H346.644C343.749 206.6 340.892 205.957 338.097 205.093C337.95 205.045 337.802 205.003 337.654 204.956C338.336 201.782 339.738 198.807 341.753 196.261C343.769 193.714 346.343 191.665 349.277 190.271C348.551 189.58 348.05 188.688 347.837 187.709C347.7 187.078 347.689 186.427 347.805 185.792C347.921 185.157 348.161 184.551 348.512 184.009C349.197 182.959 350.271 182.223 351.498 181.964L359.317 180.33C360.576 180.085 361.88 180.346 362.947 181.057C364.014 181.767 364.757 182.87 365.015 184.125C365.095 184.51 365.13 184.902 365.121 185.295C372.649 190.303 378.068 195.494 381.492 201.008Z" fill="#6C63FF"/>
<path d="M394.156 150.674C391.254 147.293 389.874 142.807 387.554 138.968C385.235 135.129 381.198 131.693 376.933 132.586C373.993 133.202 371.721 135.794 370.571 138.683C369.421 141.573 369.205 144.76 369.003 147.881C369.075 141.466 364.844 135.247 359.016 133.2C353.189 131.153 346.215 133.436 342.553 138.59C340.955 137.11 338.869 136.268 336.691 136.222C334.512 136.176 332.393 136.931 330.734 138.342C327.459 141.267 326.734 146.833 329.143 150.564C331.551 154.294 336.768 155.684 340.596 153.615L341.95 154.859C341.188 157.521 342.665 160.665 345.149 161.667C347.162 162.48 350.005 162.344 350.759 164.456C351.285 165.931 350.301 167.506 349.254 168.639C348.207 169.773 346.964 170.943 346.838 172.512C346.648 174.879 349.097 176.537 351.322 177.036C356.689 178.24 362.643 175.758 365.736 171.026C365.795 170.935 365.86 170.844 365.93 170.752C367.666 168.535 368.93 165.988 369.647 163.266C370.364 160.544 370.517 157.705 370.099 154.922C369.925 153.828 370.1 153.015 370.855 152.756C374.116 151.637 383.255 153.986 386.021 156.109C388.787 158.233 391.002 161.043 393.666 163.303C396.33 165.563 399.725 167.307 403.108 166.691C405.817 166.198 408.121 164.233 409.672 161.863C411.222 159.493 412.114 156.73 412.913 153.985C406.922 157.442 398.723 155.995 394.156 150.674Z" fill="#2F2E41"/>
<path d="M43.6978 115.509C43.6978 116.79 43.74 118.07 43.8297 119.341C43.9247 120.859 44.0882 122.366 44.3098 123.863C45.0545 128.903 46.4778 133.82 48.5411 138.479C48.6466 138.711 48.7521 138.943 48.8576 139.175L49.0159 139.523C49.0687 139.639 49.1267 139.755 49.1795 139.865C49.2533 140.018 49.3219 140.166 49.3958 140.314C49.4855 140.498 49.5751 140.682 49.6701 140.867C49.6807 140.888 49.6912 140.914 49.707 140.941C49.7862 141.099 49.86 141.252 49.9445 141.41C49.96 141.444 49.9776 141.478 49.9972 141.51C50.0869 141.689 50.1819 141.874 50.2768 142.053C50.3824 142.243 50.4826 142.438 50.5881 142.627C50.8414 143.097 51.1052 143.56 51.3742 144.024C51.4534 144.161 51.5325 144.298 51.6169 144.435C51.6908 144.562 51.7646 144.688 51.8438 144.815C51.8965 144.899 51.9493 144.989 52.0021 145.073C52.0865 145.215 52.1709 145.352 52.2606 145.495C52.4558 145.806 52.6563 146.117 52.8515 146.428H52.8568C52.9464 146.57 53.0414 146.712 53.1364 146.849V146.855C53.416 147.276 53.7062 147.698 53.9963 148.114C53.997 148.114 53.9977 148.115 53.9984 148.115C53.999 148.115 53.9996 148.115 54.0001 148.116C54.0006 148.116 54.001 148.117 54.0013 148.118C54.0015 148.118 54.0016 148.119 54.0016 148.12C54.2338 148.457 54.4764 148.784 54.7139 149.111V149.116C54.8721 149.321 55.0251 149.532 55.1834 149.738C55.31 149.906 55.4419 150.08 55.5738 150.249C55.6002 150.286 55.6319 150.318 55.6582 150.355V150.36C55.6952 150.407 55.7321 150.449 55.769 150.497C56.3283 151.214 56.9051 151.915 57.4995 152.6L57.5945 152.711C57.6262 152.747 57.6631 152.784 57.6947 152.827C57.7475 152.885 57.795 152.943 57.8477 153C57.8952 153.058 57.948 153.116 58.0007 153.174C61.0993 156.662 64.6127 159.757 68.4628 162.393C68.9746 162.746 69.4969 163.089 70.0192 163.421C70.1511 163.505 70.283 163.59 70.4149 163.669C70.4518 163.695 70.4941 163.721 70.531 163.748C70.6048 163.79 70.6734 163.832 70.7473 163.88C70.8159 163.922 70.8845 163.964 70.9583 164.006C71.238 164.18 71.5229 164.349 71.8078 164.517C71.8763 164.56 71.9502 164.602 72.0241 164.644C72.0927 164.681 72.1665 164.723 72.2404 164.765C72.2404 164.77 72.2404 164.77 72.2457 164.77H72.2509V164.776H72.2562C72.6097 164.981 72.9685 165.181 73.3325 165.377C73.5277 165.482 73.7282 165.593 73.9287 165.693C74.3824 165.941 74.8414 166.178 75.3004 166.404C75.4639 166.483 75.6328 166.562 75.7963 166.647C75.9335 166.71 76.0707 166.779 76.2079 166.842C76.2501 166.863 76.287 166.879 76.3239 166.9C76.44 166.953 76.5508 167.005 76.6669 167.058C76.7935 167.116 76.9201 167.174 77.0414 167.232C77.1839 167.295 77.3211 167.358 77.4635 167.416C77.9911 167.654 78.524 167.88 79.0568 168.096C80.9665 168.878 82.918 169.554 84.9025 170.12C84.9922 170.147 85.0872 170.173 85.1821 170.199C86.0316 170.437 86.8863 170.653 87.7463 170.848C89.2499 171.196 90.7676 171.48 92.2993 171.702H92.3099C92.4946 171.728 92.6739 171.754 92.8586 171.781C92.8744 171.781 92.8902 171.786 92.9113 171.786C92.9113 171.791 92.9113 171.791 92.9166 171.786C93.1171 171.812 93.3229 171.839 93.5233 171.865C93.537 171.869 93.5513 171.871 93.5656 171.87C93.7555 171.897 93.9507 171.918 94.1406 171.939C94.3464 171.96 94.5521 171.981 94.7579 172.002C94.9162 172.018 95.0745 172.034 95.2327 172.049C95.2463 172.054 95.2607 172.056 95.2749 172.055C95.4174 172.065 95.5598 172.081 95.7023 172.092H95.7234C95.8447 172.102 95.9714 172.113 96.0927 172.123C97.5647 172.239 99.0419 172.292 100.54 172.292C102.16 172.292 103.769 172.229 105.357 172.092H105.373C105.716 172.06 106.054 172.028 106.391 171.997C106.481 171.986 106.565 171.981 106.655 171.97C106.671 171.97 106.692 171.965 106.708 171.965C106.734 171.96 106.761 171.96 106.792 171.955C106.806 171.955 106.821 171.953 106.834 171.949C106.95 171.939 107.067 171.923 107.188 171.912L107.584 171.865C107.715 171.849 107.847 171.828 107.979 171.812C108.011 171.807 108.037 171.807 108.069 171.802C108.164 171.791 108.259 171.775 108.354 171.76C108.401 171.754 108.449 171.749 108.491 171.744C108.586 171.728 108.676 171.717 108.771 171.702H108.776C111.671 171.285 114.529 170.642 117.323 169.778C117.471 169.73 117.618 169.688 117.766 169.641C117.771 169.641 117.777 169.635 117.782 169.635C117.824 169.62 117.872 169.609 117.914 169.593C118.309 169.467 118.7 169.335 119.09 169.198C119.628 169.019 120.161 168.824 120.694 168.623C120.837 168.565 120.979 168.513 121.122 168.455C121.412 168.344 121.697 168.228 121.982 168.112C122.467 167.917 122.952 167.712 123.432 167.501C123.881 167.3 124.324 167.1 124.767 166.889C124.778 166.884 124.794 166.884 124.804 166.873C124.904 166.826 125.005 166.779 125.1 166.731H125.105C127.534 165.566 129.878 164.229 132.116 162.731C132.834 162.251 133.541 161.755 134.237 161.244C134.797 160.828 135.345 160.406 135.894 159.974C138.601 157.823 141.107 155.431 143.381 152.827V152.821C143.544 152.642 143.697 152.458 143.855 152.273C143.882 152.247 143.903 152.22 143.924 152.199C144.024 152.078 144.119 151.962 144.219 151.846V151.841C144.351 151.688 144.483 151.53 144.61 151.372C144.641 151.335 144.668 151.303 144.694 151.272V151.266C144.8 151.14 144.9 151.013 145.006 150.882C145.058 150.818 145.106 150.755 145.158 150.692V150.687C145.47 150.297 145.771 149.907 146.071 149.506C146.15 149.401 146.23 149.29 146.314 149.179C146.694 148.668 147.063 148.146 147.422 147.624V147.619C147.559 147.424 147.691 147.224 147.828 147.029C147.96 146.828 148.092 146.628 148.224 146.428C148.356 146.217 148.493 146.011 148.625 145.801L148.641 145.769C148.772 145.569 148.904 145.358 149.031 145.152C149.131 144.984 149.231 144.82 149.332 144.657C149.395 144.546 149.464 144.435 149.527 144.319C149.552 144.284 149.575 144.247 149.596 144.209C149.743 143.95 149.891 143.692 150.039 143.434C150.213 143.133 150.382 142.828 150.55 142.522C150.614 142.396 150.682 142.269 150.751 142.143C150.777 142.1 150.798 142.058 150.82 142.016C150.899 141.868 150.978 141.716 151.052 141.563C151.131 141.415 151.21 141.262 151.289 141.109C151.363 140.962 151.442 140.809 151.516 140.656C151.574 140.54 151.627 140.424 151.685 140.308C151.689 140.299 151.694 140.29 151.701 140.282C151.727 140.224 151.753 140.171 151.774 140.119C151.781 140.11 151.786 140.102 151.79 140.092C151.848 139.976 151.901 139.855 151.959 139.739C152.033 139.586 152.102 139.428 152.175 139.275C152.223 139.17 152.276 139.059 152.323 138.948C152.392 138.796 152.466 138.643 152.529 138.485C152.603 138.326 152.671 138.168 152.74 138.005C152.76 137.965 152.777 137.925 152.793 137.884C152.83 137.81 152.856 137.736 152.888 137.662C152.972 137.467 153.057 137.267 153.136 137.072C153.231 136.851 153.32 136.624 153.405 136.403C153.489 136.197 153.568 135.986 153.647 135.775L153.679 135.702C154.908 132.467 155.841 129.127 156.465 125.724V125.718C156.817 123.775 157.068 121.816 157.219 119.847C157.224 119.736 157.235 119.631 157.24 119.525C157.335 118.192 157.377 116.853 157.377 115.509C157.377 114.913 157.367 114.323 157.351 113.732C156.983 101.386 152.576 89.5003 144.805 79.8934C144.636 79.6826 144.467 79.4717 144.293 79.2609C144.119 79.0501 143.94 78.8445 143.766 78.6389C137.982 71.8723 130.688 66.5579 122.471 63.1244C114.255 59.6908 105.345 58.234 96.4618 58.8716C87.5782 59.5091 78.9689 62.223 71.3278 66.7946C63.6868 71.3663 57.2278 77.6676 52.4716 85.1907C52.2131 85.6018 51.9546 86.0182 51.7066 86.4346C51.4534 86.8563 51.2107 87.2779 50.968 87.7049C46.1884 96.1927 43.6841 105.77 43.6978 115.509V115.509Z" fill="white"/>
<path d="M98.281 78.367C107.628 80.763 117.206 82.1441 126.849 82.4863C128.307 82.5657 129.769 82.5558 131.226 82.4566C134.428 82.1875 137.171 81.1821 140.225 80.6327C141.694 80.3693 143.329 80.1767 144.808 79.8921C144.466 79.4687 144.118 79.0505 143.765 78.6374C140.577 78.9065 137.339 79.7873 134.113 80.1965C128.629 80.8933 122.485 80.1158 118.328 78.1985C116.311 77.2681 114.766 76.1069 112.756 75.1723C112.482 75.0321 112.186 74.9415 111.881 74.9047C111.302 74.8873 110.729 75.0357 110.231 75.3323C106.859 77.033 101.963 78.4151 97.4193 77.6547C97.0805 77.9195 97.724 78.2211 98.281 78.367Z" fill="white"/>
<path d="M78.172 84.3522C78.1305 84.3447 78.0889 84.3387 78.0474 84.3316C78.2219 84.2235 78.3863 84.0997 78.5385 83.9619L78.172 84.3522Z" fill="white"/>
<path d="M50.9692 87.7073C52.8672 87.8588 54.775 87.9716 56.6928 88.0457C58.151 88.1244 59.6127 88.1144 61.0697 88.016C64.2717 87.7455 67.0144 86.7415 70.0689 86.1921C72.8683 85.6894 76.2701 85.4472 78.0476 84.3314C73.4537 83.5369 68.694 85.1541 63.957 85.7559C60.1253 86.2266 56.2412 86.035 52.4745 85.1895C51.9501 86.0136 51.4483 86.8529 50.9692 87.7073Z" fill="white"/>
<path d="M73.9287 165.693C74.3824 165.941 74.8414 166.178 75.3004 166.405C75.464 166.484 75.6328 166.563 75.7964 166.647C75.9336 166.711 76.0707 166.779 76.2079 166.842C76.2501 166.863 76.287 166.879 76.324 166.9C76.44 166.953 76.5508 167.006 76.6669 167.058C76.7935 167.116 76.9202 167.174 77.0415 167.232C77.1839 167.296 77.3211 167.359 77.4636 167.417C77.9912 167.654 78.524 167.881 79.0569 168.097C80.9665 168.879 82.9181 169.555 84.9026 170.121C84.9923 170.147 85.0872 170.174 85.1822 170.2C86.0316 170.437 86.8863 170.653 87.7463 170.848C89.2499 171.196 90.7676 171.481 92.2994 171.702H92.3099C92.4946 171.728 92.674 171.755 92.8586 171.781C92.8745 171.781 92.8903 171.786 92.9114 171.786C92.9114 171.792 92.9114 171.792 92.9167 171.786C93.1172 171.813 93.3229 171.839 93.5234 171.865C93.5371 171.87 93.5513 171.871 93.5656 171.871C93.7555 171.897 93.9507 171.918 94.1407 171.939C94.3464 171.96 94.5522 171.981 94.758 172.003C94.9162 172.018 95.0745 172.034 95.2328 172.05C95.2463 172.055 95.2607 172.056 95.275 172.055C95.4174 172.066 95.5599 172.082 95.7023 172.092H95.7234C95.8448 172.103 95.9714 172.113 96.0928 172.124C97.5647 172.24 99.042 172.292 100.54 172.292C102.16 172.292 103.769 172.229 105.357 172.092H105.373C105.716 172.061 106.054 172.029 106.391 171.997C106.481 171.987 106.565 171.981 106.655 171.971C106.671 171.971 106.692 171.966 106.708 171.966C106.734 171.96 106.761 171.96 106.792 171.955C106.807 171.956 106.821 171.954 106.834 171.95C106.951 171.939 107.067 171.923 107.188 171.913L107.584 171.865C107.716 171.85 107.847 171.829 107.979 171.813C108.011 171.808 108.037 171.808 108.069 171.802C108.164 171.792 108.259 171.776 108.354 171.76C108.401 171.755 108.449 171.75 108.491 171.744C108.586 171.728 108.676 171.718 108.771 171.702H108.776C111.671 171.286 114.529 170.642 117.323 169.778C117.471 169.731 117.618 169.689 117.766 169.641C117.085 166.467 115.682 163.492 113.667 160.946C111.652 158.4 109.078 156.351 106.143 154.957C106.869 154.266 107.371 153.373 107.584 152.395C107.721 151.764 107.731 151.112 107.616 150.477C107.5 149.842 107.259 149.237 106.908 148.695C106.224 147.644 105.15 146.909 103.922 146.65L96.1033 145.016C94.8446 144.77 93.54 145.032 92.473 145.742C91.406 146.453 90.6629 147.556 90.4054 148.811C90.3256 149.195 90.2902 149.588 90.2998 149.981C82.7711 154.988 77.3528 160.18 73.9287 165.693Z" fill="#6C63FF"/>
<path d="M104.86 139.742C115.371 139.742 123.892 131.23 123.892 120.729C123.892 110.228 115.371 101.715 104.86 101.715C94.3494 101.715 85.8286 110.228 85.8286 120.729C85.8286 131.23 94.3494 139.742 104.86 139.742Z" fill="#9E616A"/>
<path d="M102.156 138.727C97.3916 140.012 92.1388 138.303 88.4205 135.061C84.7022 131.819 82.3762 127.225 81.0361 122.479C80.0545 119.004 79.5891 115.146 81.138 111.883C82.6869 108.621 86.8556 106.419 90.0717 108.067C88.0877 105.758 89.0789 101.939 91.396 99.9631C93.7132 97.9876 96.895 97.4211 99.9254 97.1115C104.323 96.6622 108.866 96.6119 113.051 98.0354C117.236 99.4588 121.039 102.571 122.348 106.789C123.686 107.412 125.193 107.573 126.632 107.248C128.071 106.924 129.362 106.131 130.303 104.995C130.545 106.3 130.35 107.648 129.749 108.831C129.147 110.014 128.172 110.966 126.974 111.54L133.386 109.463C134.489 111.795 132.556 114.681 130.085 115.428C127.614 116.175 124.947 115.359 122.602 114.28C120.257 113.201 117.985 111.837 115.438 111.416C112.891 110.995 109.899 111.813 108.721 114.108C108.104 115.31 108.072 116.718 107.713 118.02C107.355 119.323 106.448 120.673 105.1 120.78C104.248 120.847 103.414 120.394 102.565 120.487C102.044 120.589 101.564 120.841 101.184 121.212C100.804 121.583 100.541 122.056 100.426 122.575C100.215 123.614 100.212 124.686 100.418 125.727L102.047 138.165L102.156 138.727Z" fill="#2F2E41"/>
</g>
<defs>
<clipPath id="clip0_170_1485">
<rect width="427" height="332" fill="white"/>
</clipPath>
</defs>
</svg>
