<svg width="219" height="143" viewBox="0 0 219 143" fill="none" xmlns="http://www.w3.org/2000/svg">
<path d="M202.06 69.0511H24.4751C22.0947 69.0511 20.1582 67.1203 20.1582 64.7468V4.30411C20.1582 1.93081 22.0947 0 24.4751 0H202.06C204.44 0 206.377 1.93081 206.377 4.30411V64.7468C206.377 67.1203 204.44 69.0511 202.06 69.0511ZM24.4751 0.513145C22.3786 0.513145 20.6729 2.21382 20.6729 4.30411V64.7468C20.6729 66.8372 22.3786 68.538 24.4751 68.538H202.06C204.156 68.538 205.862 66.8372 205.862 64.7468V4.30411C205.862 2.21382 204.156 0.513145 202.06 0.513145H24.4751V0.513145Z" fill="#3F3D56"/>
<path d="M219 141.258H0V141.69H219V141.258Z" fill="#E6E6E6"/>
<path d="M219 119.192H0V119.624H219V119.192Z" fill="#E6E6E6"/>
<path d="M99.8046 71.274C99.9618 73.2445 101.109 74.7608 102.367 74.6608C103.624 74.5608 104.516 72.8825 104.359 70.9114C104.307 70.1232 104.066 69.3588 103.657 68.6823L102.885 60.3418L98.9668 60.7864L100.144 68.9615C99.8471 69.6943 99.7308 70.4872 99.8046 71.274Z" fill="#FFB6B6"/>
<path d="M95.125 32.3617C95.125 32.3617 98.7873 30.4287 100.644 33.3174C102.501 36.206 103.783 67.4469 103.783 67.4469L98.636 67.9948L97.6603 45.9802L95.125 32.3617V32.3617Z" fill="#E6E6E6"/>
<path d="M87.524 117.562L90.5059 117.562L91.9243 106.095L87.5234 106.095L87.524 117.562Z" fill="#FFB6B6"/>
<path d="M97.7399 117.495C97.8327 117.651 97.8817 118.154 97.8817 118.335C97.8817 118.893 97.4286 119.344 96.8697 119.344H87.6353C87.254 119.344 86.9449 119.036 86.9449 118.656V118.273C86.9449 118.273 86.4881 117.121 87.4286 115.701C87.4286 115.701 88.5975 116.812 90.3442 115.071L90.8592 114.141L94.5877 116.859L96.6543 117.113C97.1064 117.168 97.5073 117.104 97.7398 117.495H97.7399H97.7399Z" fill="#2F2E41"/>
<path d="M104.779 117.07L107.668 116.334L106.196 104.873L101.932 105.959L104.779 117.07Z" fill="#FFB6B6"/>
<path d="M114.66 114.484C114.789 114.612 114.961 115.087 115.006 115.263C115.145 115.803 114.818 116.352 114.276 116.49L105.329 118.769C104.96 118.863 104.584 118.641 104.49 118.272L104.394 117.901C104.394 117.901 103.666 116.898 104.225 115.29C104.225 115.29 105.633 116.078 106.893 113.96L107.161 112.932L111.449 114.646L113.514 114.381C113.966 114.324 114.338 114.163 114.66 114.484H114.66V114.484Z" fill="#2F2E41"/>
<path d="M85.0564 29.8968L84.915 28.8738L86.5954 24.782L91.2123 24.2705L92.2092 30.1285L85.0564 29.8968Z" fill="#FFB6B6"/>
<path opacity="0.1" d="M85.0564 29.8968L84.915 28.8738L86.5954 24.782L91.2123 24.2705L92.2092 30.1285L85.0564 29.8968Z" fill="black"/>
<path d="M79.6701 58.7949L77.6182 64.4212L79.1572 67.49L86.8521 111.989H91.9679L90.956 72.6048L102.755 111.989H107.818L103.747 85.3917L100.703 60.8408L98.8568 59.7038L89.93 54.7031L79.6701 58.7949Z" fill="#2F2E41"/>
<path d="M92.7513 62.6314L89.6733 63.1429L85.5693 53.4248H94.8032L92.7513 62.6314Z" fill="#E6E6E6"/>
<path d="M98.9072 60.0741L92.7512 62.6315L90.6993 58.0282L89.6733 63.143L78.9004 59.6854L80.4394 53.4249L78.9004 32.9658L84.333 29.3548L85.0563 28.874L91.7252 29.3855L92.3101 29.7026L96.3422 31.9429L97.3682 48.8216L98.9072 60.0741Z" fill="#2F2E41"/>
<path d="M92.3101 29.7026L89.4168 41.9167L84.333 29.3548L85.0563 28.874L91.7252 29.3855L92.3101 29.7026Z" fill="#E6E6E6"/>
<path d="M87.3649 28.874L86.3389 30.6358L87.3649 31.223L86.8519 41.9485L88.9038 44.7298L90.9558 40.619L89.4168 31.223L89.9298 28.874H87.3649Z" fill="#2F2E41"/>
<path d="M88.9037 27.8509C91.5952 27.8509 93.7772 25.6754 93.7772 22.9918C93.7772 20.3083 91.5952 18.1328 88.9037 18.1328C86.2122 18.1328 84.0303 20.3083 84.0303 22.9918C84.0303 25.6754 86.2122 27.8509 88.9037 27.8509Z" fill="#FFB6B6"/>
<path d="M85.7891 23.4181L86.8421 23.8763L87.3016 21.1271C87.3016 21.1271 89.1399 20.2107 90.5185 20.6689C91.8972 21.1271 94.195 20.6689 94.195 20.6689C94.195 20.6689 94.195 16.0869 90.9781 16.0869C87.7612 16.0869 84.5443 16.5451 84.5443 17.9197C84.5443 19.2943 83.1656 20.6689 83.1656 20.6689C83.1656 20.6689 81.3274 23.4181 83.1656 25.2509C85.0039 27.0837 85.923 27.0837 85.923 27.0837L85.7891 23.4181Z" fill="#2F2E41"/>
<path d="M76.3331 71.1294C76.2797 73.1053 77.259 74.7345 78.5202 74.7682C79.7815 74.8019 80.8469 73.2275 80.9001 71.2509C80.9322 70.4615 80.7742 69.676 80.4395 68.9601L80.5598 60.585L76.6168 60.6124L76.9167 68.8659C76.5437 69.5631 76.3436 70.3392 76.3331 71.1294V71.1294Z" fill="#FFB6B6"/>
<path d="M81.2114 31.9332C81.2114 31.9332 77.877 30.9103 76.338 33.9791C74.799 37.048 76.851 68.248 76.851 68.248H82.0274L80.6535 46.2545L81.2114 31.9332V31.9332Z" fill="#E6E6E6"/>
<path d="M209.124 90.0597L196.689 86.2644C196.414 86.1804 196.126 86.1498 195.839 86.1741L132.818 91.5218C131.919 91.598 131.693 92.8064 132.504 93.2002L134.523 94.1808H134.469V141.121H136.371V95.0786L142.698 98.1517C143.182 98.3869 143.722 98.4828 144.258 98.4289L144.931 98.3611V141.121H146.833V98.1695L195.577 93.2604V141.121H197.479V93.0689L205.564 92.2547V141.121H207.466V92.0631L208.941 91.9146C209.976 91.8103 210.119 90.3634 209.124 90.0597H209.124Z" fill="#3F3D56"/>
<path d="M151.113 91.3358C152.302 91.3358 169.898 89.2021 169.898 89.2021L172.513 92.7582L154.204 96.3143L151.113 91.3358V91.3358Z" fill="white"/>
<path d="M170.425 139.298L167.368 139.292L165.934 127.533L170.445 127.541L170.425 139.298Z" fill="#A0616A"/>
<path d="M159.951 139.211C159.855 139.371 159.804 139.886 159.804 140.072C159.803 140.644 160.266 141.108 160.839 141.109L170.307 141.125C170.697 141.125 171.015 140.81 171.016 140.42L171.016 140.027C171.016 140.027 171.487 138.847 170.525 137.389C170.525 137.389 169.325 138.527 167.537 136.739L167.011 135.784L163.183 138.565L161.064 138.821C160.601 138.877 160.19 138.811 159.951 139.211H159.951L159.951 139.211Z" fill="#2F2E41"/>
<path d="M186.832 133.83L184.42 135.644L176.255 127.232L179.815 124.555L186.832 133.83Z" fill="#A0616A"/>
<path d="M178.527 139.991C178.548 140.173 178.816 140.61 178.927 140.757C179.268 141.208 179.911 141.297 180.363 140.957L187.832 135.34C188.14 135.108 188.202 134.67 187.969 134.363L187.734 134.053C187.734 134.053 187.399 132.843 185.769 132.267C185.769 132.267 185.504 133.877 183.026 133.531L182.04 133.092L180.688 137.559L179.172 139.021C178.84 139.341 178.476 139.533 178.527 139.991L178.527 139.991V139.991Z" fill="#2F2E41"/>
<path d="M180.442 73.057C180.442 75.8677 178.157 78.1463 175.338 78.1463C172.519 78.1463 170.233 75.8677 170.233 73.057C170.233 70.2463 172.519 67.9678 175.338 67.9678C178.157 67.9678 180.442 70.2463 180.442 73.057Z" fill="#A0616A"/>
<path d="M179.961 102.4C179.961 102.4 161.168 101.339 160.104 103.461C159.04 105.582 165.855 134.72 165.855 134.72L171.935 133.449L168.969 113.006C168.969 113.006 184.652 117.147 186.779 112.198C188.907 107.248 188.294 105.405 188.294 105.405L179.961 102.4V102.4Z" fill="#2F2E41"/>
<path d="M184.777 98.8398C184.777 98.8398 166.372 102.774 165.908 105.1C165.445 107.426 179.748 133.729 179.748 133.729L185.274 130.9L176.99 111.968C176.99 111.968 193.213 111.825 193.952 106.49C194.69 101.156 193.611 99.5401 193.611 99.5401L184.777 98.8398V98.8398Z" fill="#2F2E41"/>
<path d="M186.876 78.8896H178.033L171.983 88.789C171.983 88.789 170.565 95.1862 171.983 95.8766C173.401 96.567 173.401 103.991 173.401 103.991L188.294 105.406C188.294 105.406 190.422 83.1322 189.713 81.0109C189.004 78.8896 186.876 78.8896 186.876 78.8896V78.8896Z" fill="#6C63FF"/>
<path d="M172.87 85.4297L171.984 95.876L162.013 91.6567L159.633 90.4634C159.167 89.8574 158.562 89.3716 157.869 89.0464C156.145 88.209 154.316 88.4164 153.781 89.5096C153.247 90.6027 154.21 92.1676 155.933 93.0045C156.617 93.3485 157.374 93.5241 158.14 93.5167L165.103 97.4597L165.111 97.4443L165.142 97.4993L176.061 102.046L178.574 88.3328L172.87 85.4297H172.87Z" fill="#A0616A"/>
<path d="M171.806 73.7629C171.806 73.7629 166.487 74.47 168.615 69.8739C168.615 69.8739 168.29 67.3823 169.871 67.2139C171.451 67.0455 173.579 64.2171 173.579 64.2171C173.579 64.2171 178.457 61.7423 180.982 64.2171C183.508 66.6919 190.954 81.1874 190.954 81.1874L185.99 86.4906C185.99 86.4906 183.005 78.668 179.533 79.5741C176.061 80.4803 172.87 83.182 172.87 83.182C172.87 83.182 169.346 81.4238 170.931 79.8914C172.515 78.359 171.806 73.7629 171.806 73.7629Z" fill="#2F2E41"/>
<path d="M178.898 81.5411C178.898 81.5411 176.416 78.3592 174.643 80.834C172.87 83.3088 171.451 86.4908 171.451 86.4908L178.543 88.9656L178.898 81.5411H178.898Z" fill="#6C63FF"/>
<path d="M205.825 140.417L197.585 114.305L197.586 114.305H197.605L197.572 114.263L197.571 114.262L196.985 112.402L196.985 112.402C197.879 111.633 198.488 110.536 198.609 109.272L194.842 88.6185C195.102 85.9063 193.016 83.5356 190.284 83.4384L181.786 83.4171C179.37 83.3317 177.278 85.0718 176.926 87.4568L176.738 88.7228L174.135 106.382C174.039 107.018 174.078 107.644 174.227 108.229L172.354 108.473L171.785 108.549L169.538 108.841L169.531 108.843L169.251 108.879H168.946V116.465H168.965V140.713C168.965 140.869 169.094 140.997 169.251 140.997C169.41 140.997 169.538 140.869 169.538 140.713V116.465H172.872L176.198 140.684C176.22 140.827 176.341 140.931 176.484 140.931C176.496 140.931 176.51 140.931 176.522 140.929C176.679 140.907 176.788 140.763 176.767 140.606L173.452 116.465H189.447C191.036 116.465 192.507 115.963 193.706 115.102L200.047 140.64C200.08 140.769 200.197 140.855 200.325 140.855C200.348 140.855 200.372 140.852 200.396 140.846C200.549 140.807 200.642 140.652 200.603 140.499L194.199 114.714C194.285 114.644 194.37 114.568 194.45 114.49L196.996 114.341L205.278 140.588C205.317 140.71 205.43 140.788 205.552 140.788C205.58 140.788 205.609 140.784 205.638 140.775C205.788 140.728 205.872 140.567 205.825 140.417V140.417ZM196.44 112.807C196.462 112.795 196.481 112.781 196.5 112.769L196.5 112.769L196.561 112.963L196.44 112.807V112.807Z" fill="#E6E6E6"/>
<path d="M44.1494 96.1577L49.6947 92.6416L51.9492 93.9975L44.1494 102.933V96.1577Z" fill="#FFB6B6"/>
<path d="M36.5661 82.5481C36.5661 82.5481 32.8828 83.4122 34.6161 88.3806C36.3494 93.3491 41.9826 103.718 43.7158 103.07C45.4491 102.422 45.6658 95.9413 45.6658 95.9413C45.6658 95.9413 45.4491 96.1573 44.5825 95.2932C43.7158 94.4292 43.7158 94.8238 43.7158 93.8704C43.7158 92.917 43.007 92.2103 43.007 92.2103L42.1992 90.5408C42.1992 90.5408 42.1992 82.7641 38.9493 82.3321C35.6994 81.9001 36.5661 82.5481 36.5661 82.5481L36.5661 82.5481Z" fill="#E6E6E6"/>
<path d="M53.7738 93.7653C55.2122 92.3312 55.658 90.4505 54.7696 89.5647C53.8812 88.6789 51.995 89.1234 50.5566 90.5576C49.1182 91.9917 48.6723 93.8724 49.5608 94.7582C50.4492 95.6439 52.3354 95.1994 53.7738 93.7653Z" fill="#FFB6B6"/>
<path d="M22.2197 111.17L26.0036 117.415L48.0544 116.114L42.1828 108.568L22.2197 111.17Z" fill="#E6E6E6"/>
<path d="M28.8088 140.376C28.6803 140.376 28.5685 140.281 28.5506 140.151L21.9614 92.1698C21.9419 92.0274 22.0418 91.8961 22.1845 91.8767C22.3273 91.8561 22.4589 91.9567 22.4785 92.0991L29.0676 140.08C29.0872 140.222 28.9873 140.354 28.8445 140.373C28.8325 140.375 28.8206 140.376 28.8088 140.376Z" fill="#E6E6E6"/>
<path d="M22.2199 140.437C22.0758 140.437 21.959 140.32 21.959 140.177V92.144C21.959 92.0003 22.0758 91.8838 22.2199 91.8838C22.3641 91.8838 22.4809 92.0003 22.4809 92.144V140.177C22.4809 140.32 22.364 140.437 22.2199 140.437Z" fill="#E6E6E6"/>
<path d="M55.2964 140.246C55.1855 140.246 55.0826 140.175 55.0476 140.064L39.4555 90.6518C39.4122 90.5148 39.4886 90.3687 39.6261 90.3255C39.7635 90.2825 39.9101 90.3586 39.9533 90.4956L55.5454 139.908C55.5887 140.045 55.5123 140.191 55.3748 140.234C55.3487 140.242 55.3223 140.246 55.2964 140.246V140.246Z" fill="#E6E6E6"/>
<path d="M50.5339 140.307C50.4173 140.307 50.3112 140.228 50.2811 140.111L39.4515 96.5011C39.416 96.3619 39.5004 96.2202 39.64 96.1848C39.7801 96.1496 39.9218 96.2336 39.9573 96.3728L50.787 139.982C50.8225 140.122 50.7381 140.263 50.5984 140.299C50.5768 140.304 50.5551 140.307 50.5339 140.307H50.5339Z" fill="#E6E6E6"/>
<path d="M22.2197 92.9089L40.2909 92.6318L43.6181 111.56H22.4807L22.2197 92.9089Z" fill="#E6E6E6"/>
<path d="M49.9908 120.743L45.4365 128.738L50.7244 129.898L52.929 124.212L49.9908 120.743Z" fill="#FFB6B6"/>
<path d="M47.0729 127.228C47.0729 127.228 46.8959 125.924 45.8555 126.338C44.8151 126.752 41.8125 128.289 41.8125 128.289C41.8125 128.289 49.6441 140.977 51.1304 140.386C52.6167 139.795 50.8375 136.208 50.8375 136.208L51.2302 129.869L47.0729 127.228H47.0729Z" fill="#2F2E41"/>
<path d="M29.8499 105.23C29.8499 105.23 28.2249 112.683 33.2081 115.275C38.1913 117.867 55.1991 111.495 55.1991 111.495L47.3993 123.147L52.8158 125.32C52.8158 125.32 65.1654 109.119 64.2988 106.526C63.4321 103.934 57.5823 103.718 57.5823 103.718L44.3661 104.366L40.8995 103.286L29.8499 105.23H29.8499Z" fill="#2F2E41"/>
<path d="M43.2535 124.291L36.0938 130.085L40.5955 133.085L44.7241 128.588L43.2535 124.291Z" fill="#FFB6B6"/>
<path d="M38.1679 129.273C38.1679 129.273 38.4789 127.994 37.3589 128.002C36.2388 128.01 32.8809 128.353 32.8809 128.353C32.8809 128.353 35.545 143.012 37.1451 143.001C38.7452 142.989 38.3969 139.003 38.3969 139.003L41.0764 133.241L38.1679 129.273V129.273Z" fill="#2F2E41"/>
<path d="M30.1542 102.534C30.1542 102.534 25.9207 108.886 29.6162 113.109C33.3117 117.331 51.4793 117.566 51.4793 117.566L39.9616 125.59L44.2137 129.579C44.2137 129.579 61.6296 118.969 61.7685 116.24C61.9073 113.511 56.5374 111.187 56.5374 111.187L43.9906 106.996L41.1559 104.732L30.1542 102.534H30.1542Z" fill="#2F2E41"/>
<path d="M41.0299 87.8209C41.0299 87.8209 36.9133 86.3088 34.9634 86.3088C34.7771 86.3088 34.5929 86.3304 34.4088 86.3693C33.1608 86.6328 32.0125 87.7021 31.4622 88.2853C31.2477 88.5143 31.1242 88.6677 31.1242 88.6677C31.1242 88.6677 31.1372 88.5186 31.1632 88.2573C31.291 86.8834 31.7633 82.3751 32.6105 79.4891C32.9138 78.4586 33.2626 77.6356 33.6635 77.236C34.5973 76.3028 35.0284 75.1838 35.2277 74.35C35.3967 73.6349 35.3967 73.1316 35.3967 73.1316L33.8173 72.4533L33.5248 70.548C33.4728 70.7727 33.2323 71.2112 32.4242 72.0515C32.3548 72.1228 32.279 72.1833 32.1988 72.2351C31.0332 72.9653 28.6564 71.6951 27.376 70.8958C27.909 69.0489 28.8753 67.3596 30.6302 67.0831C34.7467 66.435 34.7468 64.0588 37.3467 66.6511C37.5612 66.8649 37.7778 67.0701 37.9945 67.2689C38.8265 68.8545 39.1298 70.9801 39.2381 72.4576C39.3161 73.4924 39.2966 74.2117 39.2966 74.2117C39.2966 74.2117 40.3799 80.6923 42.1132 81.9884C43.8465 83.2845 41.0299 87.8209 41.0299 87.8209V87.8209Z" fill="#2F2E41"/>
<path d="M33.0134 77.4521L30.0859 81.7335L36.6966 83.5007V77.4521H33.0134Z" fill="#FFB6B6"/>
<path opacity="0.1" d="M33.0134 77.4521L30.0859 81.7335L36.6966 83.5007V77.4521H33.0134Z" fill="black"/>
<path d="M37.1078 81.5756L30.8247 78.9834C30.8247 78.9834 22.3749 82.6557 23.0249 89.7843C23.6749 96.913 29.7414 109.226 29.7414 109.226L41.8743 104.042L40.5744 90.2164L37.1078 81.5756V81.5756Z" fill="#E6E6E6"/>
<path d="M34.4134 79.3633C37.4748 79.3633 39.9566 76.8888 39.9566 73.8364C39.9566 70.784 37.4748 68.3096 34.4134 68.3096C31.3519 68.3096 28.8701 70.784 28.8701 73.8364C28.8701 76.8888 31.3519 79.3633 34.4134 79.3633Z" fill="#FFB6B6"/>
<path d="M41.8961 71.8355C40.8128 72.9156 39.9462 73.9957 39.9462 73.9957L39.5129 72.2675C39.5129 72.2675 39.4132 72.341 39.2377 72.4576C38.5509 72.9242 36.7071 74.0972 35.2273 74.35C34.5687 74.4623 33.9837 74.391 33.6024 73.9957C32.7943 73.1554 32.5538 72.7169 32.5018 72.4922L32.2093 74.3975L30.6298 75.0758C30.6298 75.0758 30.6298 77.4477 32.3631 79.1802C32.4476 79.2644 32.5299 79.3681 32.6101 79.4891C33.4377 80.7333 34.0314 83.7792 34.4084 86.3693C34.742 88.672 34.9024 90.6119 34.9024 90.6119C34.9024 90.6119 33.2622 88.564 31.4618 88.2853C31.3621 88.2702 31.2625 88.2594 31.1628 88.2573C31.1303 88.2529 31.0957 88.2529 31.0631 88.2529C29.1132 88.2529 24.9967 89.7651 24.9967 89.7651C24.9967 89.7651 22.1801 85.2287 23.9134 83.9326C25.6467 82.6365 26.73 76.1559 26.73 76.1559C26.73 76.1559 26.6585 73.3822 27.3756 70.8958C27.9086 69.0489 28.8749 67.3596 30.6298 67.0831C34.7464 66.435 34.7464 64.0588 37.3463 66.6511C37.5608 66.8649 37.7774 67.0701 37.9941 67.2689C40.4164 69.4896 42.8906 70.844 41.8961 71.8355V71.8355Z" fill="#2F2E41"/>
<path d="M17.5841 100.833H15.5254V141.371H17.5841V100.833Z" fill="#3F3D56"/>
<path d="M67.5069 100.833H65.4482V141.371H67.5069V100.833Z" fill="#3F3D56"/>
<path d="M54.3828 83.6426H40.7441V97.2409H54.3828V83.6426Z" fill="#6C63FF"/>
<path d="M32.8828 98.102L38.4281 94.5859L40.6826 95.9418L32.8828 104.878V98.102Z" fill="#FFB6B6"/>
<path d="M25.2995 84.4925C25.2995 84.4925 21.6162 85.3565 23.3495 90.325C25.0828 95.2934 30.716 105.662 32.4492 105.014C34.1825 104.366 34.3992 97.8856 34.3992 97.8856C34.3992 97.8856 34.1825 98.1017 33.3159 97.2376C32.4492 96.3735 32.4492 96.7681 32.4492 95.8147C32.4492 94.8614 31.7404 94.1546 31.7404 94.1546L30.9326 92.4852C30.9326 92.4852 30.9326 84.7085 27.6827 84.2764C24.4328 83.8444 25.2995 84.4925 25.2995 84.4925H25.2995Z" fill="#E6E6E6"/>
<path d="M42.5072 95.7096C43.9456 94.2755 44.3914 92.3948 43.503 91.509C42.6146 90.6233 40.7284 91.0678 39.29 92.5019C37.8516 93.936 37.4057 95.8167 38.2942 96.7025C39.1826 97.5883 41.0688 97.1438 42.5072 95.7096Z" fill="#FFB6B6"/>
<path d="M71.6244 99.2939H9.34961V103.912H71.6244V99.2939Z" fill="#3F3D56"/>
<path d="M134.895 62.3477H125.698C124.969 62.3477 124.378 62.9369 124.378 63.6639V67.4458C124.378 68.1727 124.969 68.762 125.698 68.762H134.895C135.624 68.762 136.215 68.1727 136.215 67.4458V63.6639C136.215 62.9369 135.624 62.3477 134.895 62.3477Z" fill="#3F3D56"/>
<path d="M154.196 66.1289H144.999C144.27 66.1289 143.679 66.7182 143.679 67.4451V67.4451C143.679 68.172 144.27 68.7613 144.999 68.7613H154.196C154.925 68.7613 155.516 68.172 155.516 67.4451V67.4451C155.516 66.7182 154.925 66.1289 154.196 66.1289Z" fill="#6C63FF"/>
</svg>
