<svg width="199" height="132" viewBox="0 0 199 132" fill="none" xmlns="http://www.w3.org/2000/svg">
<g clip-path="url(#clip0_170_1862)">
<path d="M186.525 125.273L184.29 126.722L177.62 118.818L180.919 116.681L186.525 125.273Z" fill="#A0616A"/>
<path d="M188.119 127.546L181.246 132L181.19 131.914C180.728 131.207 180.568 130.346 180.743 129.521C180.919 128.695 181.416 127.973 182.125 127.514L182.125 127.514L182.761 125.751L185.723 125.182L186.323 124.793L188.119 127.546Z" fill="#2F2E41"/>
<path d="M148.22 129.069L145.554 129.069L144.286 118.819L148.221 118.82L148.22 129.069Z" fill="#A0616A"/>
<path d="M148.314 131.84L140.115 131.84V131.737C140.115 130.893 140.452 130.084 141.05 129.488C141.648 128.891 142.46 128.556 143.306 128.556H143.307L144.804 127.424L147.598 128.556H148.314L148.314 131.84Z" fill="#2F2E41"/>
<path d="M175.816 66.3727L151.908 66.8966L149.539 69.849C149.539 69.849 149.743 68.8081 149.561 69.9513C149.379 71.0946 144.766 93.8894 145.638 94.6539C146.51 95.4183 143.985 100.697 143.799 101.019C143.614 101.34 141.615 117.229 143.799 118.535L144.62 124.081H148.438C148.438 124.081 152.263 119.67 151.493 118.87C150.723 118.07 152.925 115.411 153.009 113.985C153.093 112.559 153.897 106.092 153.274 105.055C152.651 104.018 151.81 100.126 153.389 98.6175C154.969 97.1088 162.338 78.569 162.338 78.569C162.338 78.569 164.479 100.304 164.474 102.011C164.467 104.23 165.93 103.132 165.93 105.08C165.93 105.474 170.691 115.591 173.892 118.754L180.509 123.827L183.564 121.544V118.246C183.564 118.246 180.733 112.127 179.746 111.143C178.758 110.159 175.113 107.147 175.113 105.769C175.113 104.391 173.396 103.911 174.551 102.085C175.705 100.258 175.31 99.4706 174.915 98.6833C174.52 97.8961 175.269 65.6387 175.269 65.6387L175.816 66.3727Z" fill="#2F2E41"/>
<path d="M165.848 18.5422C169.837 18.5422 173.072 15.3185 173.072 11.3419C173.072 7.36528 169.837 4.1416 165.848 4.1416C161.858 4.1416 158.623 7.36528 158.623 11.3419C158.623 15.3185 161.858 18.5422 165.848 18.5422Z" fill="#A0616A"/>
<path d="M171.619 69.1246L173.653 63.0234L177.312 63.695L174.932 70.0693C175.076 70.4428 175.114 70.8491 175.039 71.2425C174.965 71.636 174.782 72.001 174.511 72.2965C174.24 72.5921 173.892 72.8064 173.505 72.9154C173.119 73.0245 172.709 73.0239 172.323 72.9137C171.937 72.8036 171.589 72.5883 171.319 72.292C171.049 71.9956 170.867 71.6301 170.794 71.2364C170.721 70.8427 170.759 70.4366 170.905 70.0635C171.051 69.6904 171.298 69.3653 171.619 69.1246L171.619 69.1246Z" fill="#A0616A"/>
<path d="M129.443 57.334L134.426 53.251L137.164 55.7625L131.741 59.8924C131.664 60.2853 131.479 60.649 131.205 60.9425C130.932 61.236 130.582 61.4477 130.195 61.5539C129.808 61.66 129.398 61.6564 129.013 61.5434C128.627 61.4304 128.281 61.2125 128.013 60.9142C127.745 60.6159 127.566 60.249 127.496 59.8548C127.426 59.4606 127.467 59.0547 127.616 58.6827C127.765 58.3107 128.014 57.9874 128.337 57.7492C128.66 57.5109 129.043 57.3671 129.443 57.334H129.443Z" fill="#A0616A"/>
<path d="M157.197 10.082C157.976 10.323 158.727 10.465 159.234 9.82827C159.74 9.19152 159.608 8.46346 160.361 8.15649C160.991 7.94592 161.678 7.97759 162.285 8.24528C162.395 8.28586 162.502 8.33152 162.606 8.37719C162.665 8.32645 162.723 8.27827 162.787 8.23259C163.266 7.89318 163.857 7.74973 164.439 7.83177C164.014 8.03651 163.664 8.3693 163.438 8.78309C163.647 8.8871 163.858 8.9911 164.072 9.07989C164.971 9.44622 165.943 9.59889 166.911 9.52579C167.879 9.4527 168.816 9.15585 169.649 8.65879C168.814 10.8506 169.463 11.6319 170.688 13.6335L170.736 13.7502C170.614 13.2251 172.215 12.6188 172.215 13.3798C172.145 14.1596 171.973 14.927 171.706 15.663C173.276 13.3063 174.203 10.5487 173.594 7.9028C173.465 7.34723 173.406 6.75109 173.052 6.29952C172.698 5.85051 172.047 5.58667 171.533 5.84036C171.469 4.97999 171.173 4.15292 170.675 3.44707C170.177 2.74122 169.497 2.18297 168.706 1.83168C167.916 1.48039 167.044 1.34918 166.185 1.452C165.325 1.55482 164.51 1.88783 163.825 2.41563C163.189 2.90524 162.688 3.54706 162.12 4.11785C161.552 4.68865 160.88 5.20869 160.086 5.35075C159.582 5.43954 159.015 5.38627 158.612 5.70338C158.147 6.07123 158.142 6.71812 158.144 7.33964C158.6 7.32668 159.049 7.44945 159.435 7.69225C158.963 7.70408 158.507 7.86387 158.131 8.14889C158.124 8.15334 158.117 8.15844 158.111 8.16412C157.974 9.20929 158.03 9.43001 157.197 10.082Z" fill="#2F2E41"/>
<path d="M182.615 33.6833C182.447 32.8801 182.114 32.1203 181.638 31.4513C181.161 30.7823 180.551 30.2185 179.846 29.7954C179.793 29.5267 179.7 29.3548 179.556 29.3039C177.503 28.5763 171.77 25.2152 171.77 25.2152L171.29 21.3717L160.916 20.875L158.262 25.2152C158.262 25.2152 151.386 25.904 151.514 28.4127C149.848 30.4827 142.436 39.7323 137.993 45.8491C135.87 48.7725 134.424 50.9813 134.609 51.347C135.235 52.5786 134.356 51.7476 133.374 51.9702C132.391 52.1927 132.867 52.7715 132.89 53.6247C132.912 54.478 129.532 56.2734 129.532 56.2734C131.594 57.008 134.177 60.0278 134.177 60.0278C134.177 60.0278 136.679 57.4014 137.133 57.1269C137.587 56.8523 137.84 56.4517 139.277 55.9546C140.714 55.4576 140.111 55.0792 140.215 54.0256C140.319 52.972 140.669 53.7511 142.687 52.7792C144.704 51.8073 143.066 52.1782 143.625 50.8502C144.183 49.5221 144.004 50.2492 145.821 49.1511C146.913 48.4912 147.997 47.5219 149.506 45.8491C150.508 44.7388 151.696 43.3191 153.199 41.4722C153.209 41.4597 153.218 41.4466 153.228 41.434C153.329 42.9312 153.407 44.429 153.453 45.8491C153.585 49.884 153.459 53.2863 152.87 54.2232C152.043 55.5382 150.643 59.9392 149.505 63.8032C149.285 64.5526 149.246 65.3433 149.391 66.1105C149.537 66.8778 149.863 67.5996 150.343 68.2169C150.823 68.8341 151.443 69.3291 152.152 69.6613C152.861 69.9934 153.639 70.1532 154.422 70.1276C161.483 69.8956 171.814 69.3588 173.828 68.1811C174.923 68.3372 176.005 68.5742 177.065 68.8903C177.065 68.8903 177.778 65.3394 178.015 64.866C178.253 64.3925 178.253 63.9191 179.203 62.7354C180.153 61.5518 179.44 61.5518 178.965 60.6049C178.49 59.658 179.203 60.1314 180.391 58.2376C181.578 56.3438 180.391 57.5274 180.153 56.107C179.915 54.6866 180.153 55.3968 181.103 53.503C181.89 51.9338 182.352 49.8749 182.892 45.849C183.004 45.0163 183.119 44.1014 183.241 43.087C183.644 39.7361 183.134 36.1575 182.615 33.6833Z" fill="#6C63FF"/>
<path d="M69.1426 126.291C68.9843 126.299 68.8275 126.257 68.6936 126.173C68.5597 126.088 68.4551 125.965 68.3939 125.819C68.3328 125.673 68.3181 125.512 68.3518 125.358C68.3855 125.203 68.466 125.063 68.5824 124.956L68.6353 124.746C68.6284 124.729 68.6213 124.712 68.6143 124.696C68.4548 124.32 68.1875 124 67.846 123.775C67.5045 123.551 67.1041 123.432 66.695 123.433C66.2858 123.435 65.8863 123.557 65.5465 123.784C65.2067 124.011 64.9418 124.333 64.7851 124.71C64.1589 126.213 63.3615 127.719 63.1652 129.309C63.0787 130.011 63.1152 130.723 63.273 131.414C61.802 128.216 61.0382 124.74 61.0333 121.222C61.033 120.339 61.0822 119.457 61.1807 118.58C61.2621 117.86 61.375 117.146 61.5195 116.437C62.3079 112.59 64.0006 108.985 66.4587 105.917C67.6484 105.27 68.6105 104.275 69.2154 103.066C69.4345 102.632 69.5894 102.168 69.6752 101.689C69.541 101.707 69.1692 99.6696 69.2704 99.5446C69.0834 99.2618 68.7486 99.1212 68.5444 98.8452C67.5285 97.4725 66.1289 97.7122 65.3982 99.5776C63.8374 100.363 63.8223 101.665 64.78 102.917C65.3893 103.714 65.4731 104.792 66.0077 105.645C65.9527 105.715 65.8955 105.783 65.8405 105.853C64.835 107.142 63.9587 108.525 63.224 109.984C63.4027 108.35 63.1895 106.696 62.6019 105.16C62.0064 103.728 60.8903 102.523 59.9074 101.285C58.7268 99.7982 56.3058 100.447 56.0978 102.332C56.0958 102.35 56.0938 102.368 56.0919 102.386C56.2379 102.468 56.3808 102.556 56.5206 102.648C56.6963 102.765 56.8324 102.932 56.9111 103.127C56.9899 103.323 57.0075 103.537 56.9618 103.743C56.9162 103.948 56.8092 104.135 56.6551 104.279C56.5009 104.423 56.3067 104.517 56.0979 104.55L56.0765 104.553C56.1285 105.077 56.2204 105.597 56.3515 106.107C55.0906 110.968 57.8128 112.738 61.6999 112.817C61.7857 112.861 61.8693 112.905 61.9551 112.947C61.217 115.031 60.7541 117.203 60.5779 119.406C60.4781 120.706 60.484 122.012 60.5955 123.312L60.5889 123.265C60.3072 121.821 59.534 120.517 58.3998 119.575C56.7152 118.196 54.3351 117.688 52.5177 116.579C52.3246 116.456 52.1 116.39 51.8704 116.389C51.6409 116.389 51.416 116.454 51.2223 116.576C51.0285 116.699 50.874 116.874 50.777 117.082C50.6799 117.289 50.6443 117.519 50.6745 117.746C50.6769 117.762 50.6794 117.778 50.6819 117.795C50.9528 117.905 51.2166 118.031 51.4717 118.174C51.6177 118.256 51.7606 118.343 51.9005 118.435C52.0761 118.552 52.2122 118.719 52.291 118.915C52.3697 119.11 52.3874 119.325 52.3417 119.53C52.296 119.736 52.189 119.923 52.0349 120.067C51.8807 120.211 51.6865 120.305 51.4777 120.337L51.4563 120.34C51.4409 120.343 51.4277 120.345 51.4123 120.347C51.8753 121.449 52.525 122.462 53.333 123.344C54.1214 127.587 57.5078 127.99 61.1301 126.754H61.1323C61.5297 128.475 62.1056 130.151 62.8506 131.753H68.9888C69.0108 131.685 69.0306 131.615 69.0504 131.547C68.4822 131.583 67.9118 131.549 67.3519 131.446C67.8073 130.89 68.2627 130.328 68.7182 129.771C68.7283 129.761 68.7379 129.75 68.7468 129.738C68.9778 129.453 69.211 129.17 69.442 128.885L69.4421 128.885C69.4544 128.011 69.3538 127.14 69.1428 126.291L69.1426 126.291Z" fill="#F2F2F2"/>
<path d="M21.9287 117.039L23.6224 118.823L31.4865 113.016L28.9869 110.383L21.9287 117.039Z" fill="#C78F8F"/>
<path d="M24.7041 118.025L22.7867 116.23L22.3159 115.79L17.4346 119.68L18.7044 121.017L20.199 120.062L19.5123 121.868L22.8789 125.415C23.0402 125.585 23.2519 125.699 23.4829 125.741C23.714 125.783 23.9524 125.75 24.1633 125.647C24.3743 125.544 24.5467 125.377 24.6555 125.169C24.7643 124.962 24.8037 124.725 24.7679 124.494L24.0414 119.809L25.3217 118.602L24.7041 118.025Z" fill="#2F2E41"/>
<path d="M59.1509 52.0822L58.6139 57.9247C58.6139 57.9247 57.6767 62.3265 58.3257 61.9697C58.9747 61.6129 57.811 63.2187 58.1175 64.6112C58.424 66.0037 55.4998 76.3878 56.8242 75.3121C58.1486 74.2364 56.0588 81.6678 54.7371 85.3341C54.3324 86.4674 53.9165 87.6145 53.498 88.7534C53.4155 88.984 53.3328 89.2116 53.2476 89.4423C52.7051 90.9241 52.1626 92.384 51.6423 93.7616C51.5679 93.9538 51.4963 94.1458 51.4247 94.3352C51.4219 94.3406 51.4219 94.3461 51.4192 94.3461C49.7065 98.8384 48.2389 102.373 47.6525 102.958C47.3469 103.262 42.4981 106.753 37.6107 110.249C32.4811 113.918 27.31 117.595 27.31 117.595L22.4805 112.546C22.4805 112.546 22.5961 112.513 22.8136 112.447C23.2156 112.332 23.9591 112.115 24.9338 111.827C28.9979 110.633 23.8352 108.775 27.5249 107.447C28.5656 107.074 29.2595 106.783 29.4164 106.629C30.3333 105.737 31.5642 103.611 32.1451 104.503C32.726 105.394 35.3612 98.7672 36.1211 98.1113C36.5286 97.7573 37.8585 96.1025 38.9985 94.648C39.9786 93.3966 40.8211 92.2908 40.8211 92.2908C40.8211 92.2908 40.8377 91.698 40.8624 90.754C40.8983 89.3572 40.9506 87.1865 41.0057 85.013C41.0029 85.0102 41.0029 85.0102 41.0057 85.0102C41.025 84.1924 41.0442 83.3747 41.0636 82.598C41.0773 81.9971 41.091 81.4181 41.1048 80.8829C41.1406 79.2803 41.1653 78.0674 41.1653 77.7655C41.1653 76.7748 41.1653 77.546 41.9501 76.9477C42.0673 76.856 42.1786 76.757 42.2833 76.6513C42.4511 76.5008 42.6058 76.3365 42.7459 76.1601C42.8037 76.0367 42.443 76.204 41.9749 76.1108C41.7214 76.06 41.4869 75.9403 41.2975 75.7649C40.3118 74.8814 41.3747 72.1646 41.3747 72.1646C39.1333 67.6969 39.2959 64.0333 40.3448 61.2095C41.1292 59.1831 42.3743 57.3656 43.9821 55.8995C44.5941 55.3183 45.2608 54.7972 45.973 54.3434L46.0418 53.9731L46.799 49.8869C47.2017 49.6664 47.6205 49.4765 48.0518 49.3188C49.3967 48.8379 50.8398 48.6946 52.2535 48.9017C53.6585 49.1043 55.0188 49.5432 56.2764 50.1997C57.3043 50.7144 58.2689 51.3461 59.1509 52.0822V52.0822Z" fill="#2F2E41"/>
<path d="M38.0029 126.141L40.4565 126.368L42.5241 116.834L38.9025 116.498L38.0029 126.141Z" fill="#C78F8F"/>
<path d="M45.0694 129.878L41.4238 126.835L41.589 125.084L40.7411 125.056L38.1143 124.971H38.1115L37.4672 124.949L36.374 131.08L38.2161 131.25L38.7034 129.549L39.3836 131.36L40.3583 131.45L44.2599 131.813C44.293 131.815 44.3288 131.818 44.3618 131.818C44.5169 131.818 44.6703 131.786 44.8118 131.722C44.9532 131.659 45.0796 131.566 45.1824 131.45C45.3421 131.276 45.4398 131.054 45.4604 130.819C45.4765 130.642 45.4494 130.464 45.3813 130.301C45.3132 130.137 45.2062 129.992 45.0694 129.878V129.878Z" fill="#2F2E41"/>
<path d="M51.6424 93.7612C50.709 98.8244 46.7578 110.696 44.3679 117.644C43.2802 120.819 42.5203 122.968 42.5203 122.968L41.2812 122.579H41.2784L39.1831 121.92L38.4204 121.678H38.4176L37.4924 121.385C37.4924 121.385 37.5999 115.715 37.6109 110.249C37.6191 107.957 37.6081 105.699 37.5641 103.909C37.5145 101.958 37.4291 100.562 37.2887 100.284C36.7077 99.1481 37.6797 99.0274 38.7067 98.742C39.7365 98.4539 38.9325 98.0203 38.5332 97.0983C38.2635 96.4835 38.7948 95.663 39.1721 95.1965C39.2761 95.0652 39.3874 94.9396 39.5052 94.8205C39.5052 94.8205 39.3235 94.7574 38.9986 94.6476C39.9787 93.3962 40.8213 92.2904 40.8213 92.2904C40.8213 92.2904 40.8379 91.6976 40.8626 90.7536C40.8985 89.3568 40.9508 87.1861 41.0059 85.0127C41.0031 85.0098 41.0031 85.0098 41.0059 85.0098C41.0251 84.192 41.0444 83.3743 41.0637 82.5977C42.6386 83.8024 44.1696 84.9825 45.5573 86.0747C45.559 86.076 45.5604 86.0777 45.5613 86.0796C45.5623 86.0815 45.5628 86.0836 45.5628 86.0857C48.8972 88.7119 51.4002 90.8195 51.7526 91.4891C51.9123 91.7909 51.8572 92.5978 51.6424 93.7612Z" fill="#2F2E41"/>
<path d="M198.725 131.999H0.275345C0.202319 131.999 0.132284 131.97 0.0806464 131.919C0.0290092 131.867 0 131.797 0 131.725C0 131.652 0.0290092 131.582 0.0806464 131.531C0.132284 131.479 0.202319 131.45 0.275345 131.45H198.725C198.798 131.45 198.868 131.479 198.919 131.531C198.971 131.582 199 131.652 199 131.725C199 131.797 198.971 131.867 198.919 131.919C198.868 131.97 198.798 131.999 198.725 131.999Z" fill="#E6E6E6"/>
<path d="M45.4082 42.2061L45.9242 46.9761L45.6208 53.231L59.5215 51.585L60.8275 42.2061L59.1633 42.2225L45.4082 42.2061Z" fill="#FFB6B6"/>
<path d="M57.2324 26.7989L52.0008 22.6826L49.2546 22.5234L45.1797 25.1252L44.1819 30.1985L41.8221 35.9116L45.2833 51.3291C45.2833 51.3291 45.6079 52.4355 44.7572 52.5684C43.9066 52.7013 44.0086 54.3321 44.0086 54.3321C44.0086 54.3321 44.1818 55.7454 43.3558 55.8699C42.5297 55.9943 40.3271 55.9943 42.2545 58.4642C44.1819 60.934 59.4266 51.5927 59.4266 51.5927L61.6407 40.0137C61.6407 40.0137 65.9348 34.2655 61.3104 30.9735L57.2324 26.7989Z" fill="#6C63FF"/>
<path d="M34.3947 61.8037C34.1642 61.5171 33.9995 61.1835 33.9123 60.8265C33.8252 60.4695 33.8176 60.0979 33.8901 59.7377C33.9627 59.3775 34.1136 59.0375 34.3322 58.7417C34.5508 58.4459 34.8319 58.2015 35.1556 58.0257L41.736 36.0156L45.8507 38.0803L38.6845 59.1767C38.9448 59.7382 38.9894 60.3753 38.8099 60.9674C38.6303 61.5595 38.2391 62.0654 37.7103 62.3892C37.1816 62.7131 36.552 62.8323 35.9409 62.7244C35.3298 62.6165 34.7796 62.2889 34.3947 61.8037L34.3947 61.8037Z" fill="#C78F8F"/>
<path d="M46.1251 24.9216C46.1251 24.9216 44.9488 24.2986 44.1443 26.9946C43.5002 29.153 38.2738 42.0091 38.2071 45.1348C37.777 45.2257 37.3894 45.4565 37.1054 45.7911C36.8215 46.1256 36.6573 46.5448 36.6387 46.9826L43.1007 47.8457C44.2299 46.8965 44.5261 45.6145 44.0892 45.2339L45.4923 41.4148L51.3456 29.2635L46.9833 25.3569L46.1251 24.9216Z" fill="#6C63FF"/>
<path d="M80.6532 54.5697C80.7367 54.2119 80.7404 53.8402 80.6641 53.4807C80.5878 53.1213 80.4334 52.7829 80.2117 52.4894C79.99 52.1959 79.7064 51.9544 79.3809 51.7819C79.0555 51.6094 78.696 51.5102 78.3279 51.4911L63.2324 34.3086L60.0303 38.1167L75.6454 54.0499C75.6543 54.6684 75.8905 55.2621 76.3093 55.7186C76.7281 56.1751 77.3004 56.4627 77.9177 56.5267C78.535 56.5908 79.1544 56.427 79.6586 56.0663C80.1627 55.7056 80.5167 55.1731 80.6533 54.5697L80.6532 54.5697Z" fill="#C78F8F"/>
<path d="M54.0733 26.3697C54.0733 26.3697 54.8635 25.301 56.7587 27.3851C58.276 29.0536 68.5667 38.3929 69.983 41.1825C70.4102 41.079 70.8599 41.1202 71.2611 41.2994C71.6623 41.4787 71.9922 41.7859 72.1989 42.1726L66.7469 45.7359C65.3169 45.3667 64.4935 44.3385 64.7223 43.8071L61.8002 40.9682L51.25 32.5346L53.4883 27.1321L54.0733 26.3697Z" fill="#6C63FF"/>
<path d="M126.764 62.3262C126.328 62.1761 125.968 61.8626 125.761 61.4522C125.553 61.0418 125.515 60.567 125.654 60.1287C125.683 60.0401 125.72 59.9541 125.764 59.8715L121.595 55.3328L123.161 52.4141L128.198 59.2469C128.527 59.4545 128.779 59.765 128.912 60.1299C129.046 60.4947 129.055 60.8935 128.938 61.2639C128.869 61.474 128.759 61.6685 128.615 61.8364C128.47 62.0043 128.294 62.1421 128.096 62.2422C127.899 62.3422 127.683 62.4024 127.462 62.4194C127.241 62.4364 127.018 62.4098 126.807 62.3411V62.3411C126.793 62.3363 126.778 62.3313 126.764 62.3262Z" fill="#FFB6B6"/>
<path d="M100.034 27.8524C99.8967 28.4933 99.882 29.1544 99.9912 29.8007C100.02 29.9836 100.06 30.1646 100.11 30.3428C100.297 31.0087 100.474 31.6222 100.646 32.1758C100.746 32.5197 100.85 32.8437 100.948 33.1444C101.519 34.9001 101.965 35.894 102.281 36.1032C102.434 36.2055 102.587 36.2992 102.736 36.3907C103.501 36.8568 104.054 37.1946 103.684 38.0547C103.63 38.1776 103.566 38.2959 103.493 38.4083C103.37 38.5973 103.235 38.7776 103.087 38.9479C103.003 39.0443 102.925 39.1461 102.855 39.2526C102.762 39.3887 102.722 39.5033 102.772 39.6071C102.835 39.7348 103.008 39.7983 103.381 39.8162C103.44 39.8189 103.508 39.8225 103.581 39.8223C103.605 39.8238 103.629 39.8228 103.656 39.823C103.704 39.8237 103.759 39.8241 103.814 39.822C104.275 39.8132 104.869 40.055 105.505 40.424C107.383 41.5138 109.595 43.7075 109.622 43.7348L123.436 57.8123L123.705 57.6326L124.344 57.2046L124.565 57.0575L124.818 56.8883L125.916 56.1556L126.471 55.7858L122.908 49.2659L122.521 48.5572L122.188 47.9457L115.386 35.4956L112.684 31.2153L112.081 30.2617L109.512 26.195C109.149 25.6196 108.676 25.1211 108.12 24.7278C107.564 24.3346 106.935 24.0544 106.27 23.9031C105.606 23.7519 104.918 23.7327 104.245 23.8466C103.573 23.9604 102.93 24.2052 102.353 24.5667C102.314 24.5911 102.275 24.616 102.237 24.6414C101.113 25.3866 100.323 26.538 100.034 27.8524Z" fill="#6C63FF"/>
<path d="M100.951 126.228L98.4202 126.207L97.2998 116.251L101.035 116.283L100.951 126.228Z" fill="#FFB6B6"/>
<path d="M101.623 125.065L100.962 125.021L98.2664 124.837L97.399 124.779L97.3826 126.582L93.3405 129.315C93.1408 129.451 92.9898 129.646 92.9094 129.873C92.829 130.099 92.8234 130.346 92.8935 130.576C92.9636 130.806 93.1057 131.008 93.2991 131.152C93.4924 131.296 93.7269 131.375 93.9682 131.376L98.9988 131.418L99.8799 129.639L100.202 131.429L102.102 131.445L101.623 125.065Z" fill="#2F2E41"/>
<path d="M127.597 124.385L125.178 125.126L121.095 115.972L124.665 114.878L127.597 124.385Z" fill="#FFB6B6"/>
<path d="M127.885 123.075L127.241 123.232L124.617 123.866L123.771 124.071L124.303 125.798L121.277 129.618C121.127 129.806 121.042 130.038 121.034 130.278C121.026 130.518 121.095 130.755 121.231 130.954C121.367 131.152 121.563 131.302 121.791 131.382C122.019 131.461 122.266 131.466 122.497 131.396L127.307 129.922L127.607 127.96L128.458 129.568L130.272 129.011L127.885 123.075Z" fill="#2F2E41"/>
<path d="M95.8611 42.5146L91.0316 56.5031L90.8721 57.6224C89.6552 58.774 91.1839 59.1534 90.6107 59.4571C90.0375 59.7608 89.652 60.6121 90.4244 60.7642C91.1969 60.9163 93.6873 115.477 96.9723 117.595C100.257 119.714 102.257 121.246 101.653 118.144C101.41 116.894 101.754 110.193 102.251 102.637C102.308 101.781 103.198 100.874 102.426 100.042C101.653 99.2089 102.521 98.661 102.569 97.97C103.262 88.1026 104.062 78.3608 104.062 78.3608C104.062 78.3608 109.182 95.8847 110.511 94.5282C111.841 93.1716 111.315 96.5116 111.721 97.5096C112.06 98.3437 110.612 99.9819 112.741 100.007C114.87 100.032 119.869 117.066 120.377 117.046C121.381 117.008 124.206 117.116 125.884 116.772C126.712 116.602 123.035 103.706 119.965 92.5698C119.72 91.6817 118.387 91.6611 119.244 89.9465C120.101 88.2319 115.837 77.138 116.203 76.6249C117.174 75.2631 117.544 74.6711 116.586 74.5819C115.628 74.4927 115.345 75.0164 115.294 73.6953C115.242 72.3742 115.077 69.1166 115.077 69.1166C115.077 69.1166 114.383 56.2327 109.524 49.1145L109.11 44.8852L95.8611 42.5146Z" fill="#2F2E41"/>
<path d="M107.927 15.8066L101.522 16.7155L101.136 21.3376L97.9752 26.265C97.9752 26.265 90.9501 31.1922 95.8495 38.9758C93.985 45.6808 92.1313 52.1111 90.364 56.3982C88.9873 64.9053 101.321 65.7207 115.42 62.7099C115.42 62.7099 115.226 59.0724 113.946 57.3237C112.667 55.5749 113.363 55.1931 113.363 55.1931L112.469 51.9261C112.975 47.2037 111.267 46.7798 110.464 44.598L112.902 21.9596L107.927 15.8066Z" fill="#6C63FF"/>
<path d="M77.1803 55.3767C77.2482 54.9222 77.4913 54.5121 77.858 54.2336C78.2246 53.9551 78.6858 53.8301 79.1435 53.8853C79.2364 53.898 79.328 53.9183 79.4175 53.9461L83.1274 49.0273L86.294 50.0254L80.4809 56.2158C80.3367 56.5768 80.0767 56.8799 79.7414 57.0781C79.4062 57.2762 79.0145 57.3582 78.6276 57.3112C78.1835 57.2529 77.7808 57.0211 77.5082 56.6669C77.2355 56.3127 77.1152 55.8651 77.1736 55.4225V55.4225C77.1757 55.4072 77.1779 55.3919 77.1803 55.3767Z" fill="#FFB6B6"/>
<path d="M110.134 24.7521C110.043 24.6395 109.944 24.5298 109.839 24.4227C109.112 23.6757 108.175 23.165 107.152 22.9574C106.128 22.7498 105.066 22.855 104.104 23.2592C104.01 23.2976 103.916 23.3415 103.826 23.3855C100.535 24.9962 98.7593 26.0693 98.5444 26.5715C98.4701 26.7417 98.4068 26.909 98.3434 27.0709C98.2828 27.2301 98.225 27.381 98.1645 27.5182C97.9112 28.1055 97.6193 28.4705 96.8758 28.3058C96.6293 28.2457 96.3915 28.1544 96.1682 28.0342C96.0663 27.9847 95.9728 27.9326 95.8846 27.8832C95.5653 27.7076 95.3339 27.5814 95.177 27.6966C95.0256 27.8091 95.0201 28.0945 95.1578 28.7559C95.2033 29.0319 95.1958 29.3141 95.1357 29.5873C94.9536 30.3845 94.6686 31.1547 94.2876 31.8788C93.7168 33.0138 93.0749 34.1118 92.3657 35.1664L85.8153 44.4748L85.372 45.1032L84.8873 45.7921L81.0215 51.2861L81.25 51.5192L82.2082 52.4935L82.4203 52.7103L82.6131 52.9078L83.1114 53.4155L83.5794 53.8903L94.0233 45.4106L95.188 44.4638L97.2752 42.7679L101.551 39.2965L109.644 31.8322C110.154 31.3647 110.565 30.7993 110.852 30.1698C111.138 29.5402 111.293 28.8596 111.309 28.1686C111.309 28.1219 111.312 28.078 111.312 28.0314C111.315 26.8347 110.898 25.6747 110.134 24.7521V24.7521Z" fill="#6C63FF"/>
<path d="M104.082 15.6386C108.034 15.6386 111.238 12.4451 111.238 8.50581C111.238 4.56649 108.034 1.37305 104.082 1.37305C100.129 1.37305 96.9248 4.56649 96.9248 8.50581C96.9248 12.4451 100.129 15.6386 104.082 15.6386Z" fill="#FFB6B6"/>
<path d="M113.566 18.3965C114.526 19.7666 115.169 21.3325 115.447 22.9808C114.673 23.4743 113.771 23.7335 112.853 23.727C112.821 23.6071 112.79 23.4872 112.755 23.3672C112.488 22.4385 112.092 21.5517 111.578 20.7331C111.648 21.6159 111.528 22.5035 111.226 23.3361C110.74 23.1162 110.22 22.9824 109.688 22.9408C109.255 22.9408 108.828 23.0411 108.44 23.234C107.99 21.7459 107.575 20.3777 107.281 19.396C107.272 21.8569 103.653 24.0025 99.7044 23.6915C99.5618 23.6027 100.993 19.5559 100.854 19.4626C100.538 19.2538 100.23 19.0273 99.9228 18.8052C101.215 16.8151 102.619 14.6829 102.379 14.3631C102.396 14.7585 100.979 16.6597 99.437 18.4543C98.5812 17.8279 103.444 7.63776 101.042 6.81154C101.001 7.17134 100.471 7.17134 99.8248 7.09584C99.6543 6.50217 99.4007 5.9354 99.0715 5.41227C99.1143 5.93924 99.0507 6.46942 98.8843 6.97145C98.2461 6.97163 97.6098 7.03862 96.9857 7.17134C96.8413 6.94488 96.6819 6.72823 96.5088 6.52279C96.5258 6.77316 96.5184 7.02458 96.4865 7.27351C95.8491 7.41121 95.3232 7.57111 95.2474 7.69996C94.7482 7.51781 95.5995 6.69604 95.2876 6.26959C94.4942 5.20351 95.6709 3.64877 96.4152 2.54712C97.9439 0.290546 101.3 -0.491268 103.676 0.863563C103.783 0.494861 104.331 0.250556 105.035 0.0861988C105.333 0.0206343 105.639 -0.00772003 105.944 0.00179405C108.975 0.0550953 113.182 2.54711 113.347 5.56331C113.361 5.86537 113.383 6.19408 113.405 6.545C113.619 9.92101 113.356 13.0349 115.669 15.5047C116.507 16.3976 116.516 20.6264 116.195 22.8031C115.362 21.928 114.769 18.5253 113.566 18.3965Z" fill="#2F2E41"/>
<path d="M44.4998 11.4717C43.8711 13.0321 42.0976 16.1007 41.8574 17.7747L41.9655 17.6687C42.1718 18.0199 42.4062 18.3538 42.6664 18.6674C43.1327 18.1792 43.696 17.7932 44.3203 17.534C43.9794 18.2311 43.782 18.9892 43.7397 19.7636C44.4089 21.8545 47.5031 20.9234 49.3159 20.6951C51.1263 22.7589 53.5349 23.2975 56.6889 22.1109C57.571 22.2015 58.5585 22.2564 59.1766 21.7369C59.7947 21.2174 59.4266 20.2554 59.7592 19.5277C62.1281 14.3447 59.9419 12.4747 58.0844 10.1245C57.6757 9.60734 57.6774 8.83554 57.18 8.34209C56.4899 7.65811 55.4321 7.44772 54.4568 7.27919C54.7101 7.29249 54.9626 7.24057 55.19 7.12842C55.4174 7.01627 55.612 6.84767 55.7551 6.63885C55.8806 6.42847 55.9454 6.18762 55.9422 5.94288C55.9391 5.69813 55.8682 5.459 55.7374 5.25186C55.3886 4.67551 54.6638 4.34035 53.9645 4.25663C53.2756 4.21 52.5835 4.26929 51.9127 4.43241C51.4782 4.48938 51.0574 4.62343 50.6702 4.82822C50.4876 4.92535 50.339 5.07574 50.2444 5.25928C50.1498 5.44282 50.1137 5.65077 50.1409 5.85532C50.1991 6.04422 50.2994 6.21757 50.4343 6.36245C50.5691 6.50732 50.7351 6.61998 50.9197 6.69202C51.2013 6.81065 51.4974 6.89143 51.8003 6.93226C50.409 6.75232 48.9957 6.99886 47.7485 7.63908C46.1854 8.47005 45.1306 9.91211 44.4998 11.4717Z" fill="#2F2E41"/>
<path d="M52.9635 20.2196C56.0494 20.2196 58.551 17.7264 58.551 14.6508C58.551 11.5753 56.0494 9.08203 52.9635 9.08203C49.8776 9.08203 47.376 11.5753 47.376 14.6508C47.376 17.7264 49.8776 20.2196 52.9635 20.2196Z" fill="#C78F8F"/>
<path d="M47.5872 11.6649C47.9112 12.6407 48.837 12.9552 49.6927 13.1513C49.9625 13.214 50.234 13.2724 50.508 13.3244C50.609 13.1984 50.7166 13.075 50.8289 12.9583C51.2952 12.4701 51.8585 12.0841 52.4828 11.8249C52.2128 12.3755 52.0334 12.9659 51.9514 13.5733C52.4687 13.6481 52.9889 13.7092 53.5119 13.7567C53.9544 13.8505 54.4162 13.7714 54.8019 13.5356C55.1875 13.2997 55.4675 12.9253 55.584 12.4896C56.0601 13.2656 56.6232 13.9964 57.3931 14.3047C57.8334 14.4624 58.3127 14.4753 58.7609 14.3417C59.2091 14.2081 59.6026 13.9348 59.8837 13.5621C60.3276 12.954 60.6354 12.2581 60.7863 11.5213C61.0048 10.6572 61.1261 9.66169 60.6972 9.11342C60.3535 8.66968 59.7606 8.66172 59.2136 8.70108C58.0063 8.79338 56.8117 9.00923 55.6487 9.34522L55.5502 9.56586C55.7501 8.36915 55.3165 7.21777 54.5144 6.80828C53.9734 6.5345 53.3224 6.58041 52.6899 6.63594C51.8775 6.67207 51.0748 6.82678 50.3075 7.09515C49.4272 7.43263 48.673 8.03295 48.1481 8.81397C47.5867 9.66351 47.3077 10.8221 47.5872 11.6649Z" fill="#2F2E41"/>
<path d="M55.5521 6.46081C55.497 6.44459 55.6399 6.46542 55.5903 6.46675C55.6149 6.46533 55.6394 6.46192 55.6634 6.45654C55.6675 6.45572 55.7231 6.43804 55.6862 6.45104C55.7692 6.42631 55.8432 6.37816 55.8993 6.31241C56.0306 6.15064 56.1335 5.968 56.2039 5.77214C56.2927 5.51331 56.4354 5.27612 56.6227 5.07614C56.6759 5.02294 56.7409 4.98298 56.8124 4.9595C56.884 4.93602 56.9601 4.92968 57.0345 4.94101C57.109 4.95234 57.1798 4.98102 57.241 5.0247C57.3023 5.06839 57.3524 5.12585 57.3872 5.19244C57.4578 5.44933 57.4336 5.72296 57.319 5.96357C57.2389 6.20839 57.1197 6.43874 56.966 6.64573C56.7084 6.9842 56.3577 7.2407 55.9564 7.38395C55.4919 7.55207 54.9855 7.56649 54.5122 7.42508C54.4496 7.39923 54.396 7.3558 54.3578 7.3001C54.3196 7.2444 54.2984 7.17883 54.297 7.11137C54.2955 7.04391 54.3137 6.97748 54.3495 6.92017C54.3852 6.86286 54.4369 6.81715 54.4982 6.7886L55.2876 6.46655C55.3292 6.44815 55.3739 6.43809 55.4193 6.43695C55.4648 6.43581 55.51 6.4436 55.5524 6.45989C55.5948 6.47618 55.6335 6.50063 55.6664 6.53186C55.6994 6.56309 55.7258 6.60048 55.7442 6.64189C55.7626 6.6833 55.7726 6.72792 55.7737 6.7732C55.7747 6.81848 55.7669 6.86352 55.7505 6.90576C55.7341 6.94799 55.7095 6.98659 55.6781 7.01935C55.6467 7.0521 55.6091 7.07837 55.5676 7.09664L55.5661 7.09729L54.7767 7.41933L54.7628 6.78284C54.8612 6.81118 54.9626 6.82845 55.0649 6.83434C55.1741 6.84524 55.2843 6.84061 55.3922 6.82058C55.4956 6.80708 55.5971 6.7824 55.6951 6.74698C55.7578 6.72414 55.8194 6.69814 55.8795 6.66909C55.9013 6.65852 55.9229 6.64755 55.9444 6.63618C55.9428 6.637 56.0347 6.5837 55.9944 6.60874C56.0965 6.54371 56.1923 6.46934 56.2805 6.38659C56.3117 6.35725 56.3404 6.32542 56.3664 6.29142C56.4113 6.23635 56.453 6.17872 56.4912 6.1188C56.569 5.99193 56.6306 5.85589 56.6746 5.71384C56.6947 5.65414 56.7116 5.59344 56.7253 5.53198C56.7292 5.49824 56.7353 5.4648 56.7437 5.4319C56.773 5.3535 56.7381 5.47768 56.7718 5.51165L56.9173 5.61852C56.9447 5.62664 56.9735 5.62852 57.0016 5.62402C57.0298 5.61953 57.0565 5.60878 57.08 5.59257C57.0972 5.56839 57.0934 5.5724 57.0687 5.6046C57.0399 5.64249 57.0135 5.68217 56.9897 5.7234C56.9375 5.82045 56.8903 5.92008 56.8483 6.0219C56.7615 6.23844 56.6517 6.44513 56.5208 6.63843C56.3925 6.83395 56.2056 6.98413 55.9867 7.06756C55.7678 7.15099 55.528 7.16341 55.3016 7.10305C55.2166 7.06934 55.1483 7.00368 55.1115 6.92024C55.0747 6.8368 55.0722 6.74228 55.1047 6.65706C55.1394 6.57308 55.2054 6.50575 55.2888 6.46916C55.3722 6.43258 55.4666 6.42959 55.5521 6.46081V6.46081Z" fill="#2F2E41"/>
</g>
<defs>
<clipPath id="clip0_170_1862">
<rect width="199" height="132" fill="white"/>
</clipPath>
</defs>
</svg>
