<svg width="219" height="151" viewBox="0 0 219 151" fill="none" xmlns="http://www.w3.org/2000/svg">
<path d="M82.5319 29.4808C80.864 23.4366 94.3164 18.2536 97.849 23.121C98.3403 22.429 100.156 22.0087 100.989 22.2209C101.821 22.4332 102.522 22.9639 103.205 23.4776C104.145 24.1951 105.119 24.9381 105.696 25.9697C106.276 26.9971 106.366 28.3982 105.585 29.2897C104.965 29.9987 103.137 30.4572 102.206 30.644C101.557 30.7756 101.01 30.8818 100.54 30.9582C100.121 30.3511 99.9078 29.5996 99.9847 28.8652C99.3526 29.2812 98.9254 29.9945 98.8571 30.7502C98.8443 30.9073 104.107 50.1521 104.107 50.1521C103.564 50.4706 102.894 50.7678 102.12 51.0394C100.809 49.0738 99.7327 46.7557 99.0237 44.3315C98.8614 45.8302 98.887 47.4562 99.0835 49.1077C99.186 49.9866 99.3398 50.8696 99.5362 51.7527C93.2829 53.0943 83.8774 52.6528 79.7854 46.9468C79.7847 46.9232 79.784 46.8996 79.7833 46.8759C79.754 45.8082 78.2884 45.5429 77.8963 46.5373C77.797 46.7891 77.7056 47.007 77.6241 47.1803C76.4324 42.9433 77.9743 38.0397 82.5319 29.4808V29.4808Z" fill="#2F2E41"/>
<path d="M167.532 77.4112C166.052 79.1554 163.43 79.3772 161.675 77.9067C161.505 77.7642 161.347 77.6084 161.202 77.4408L141.454 83.6576L138.381 78.6512L161.89 71.4378C163.735 70.0852 166.333 70.4749 167.694 72.3081C168.833 73.8421 168.765 75.9518 167.532 77.4112H167.532Z" fill="#FFB6B6"/>
<path d="M97.5947 61.8761C97.5947 61.8761 106.34 52.0991 110.15 56.2522C113.959 60.4054 125.844 78.6048 125.844 78.6048L153.588 72.7869L156.271 80.0643L124.769 90.2107C122.401 90.9734 119.806 90.1824 118.275 88.2313L97.5947 61.8761V61.8761Z" fill="#6C63FF"/>
<path d="M116.589 151H73.2124L73.1729 150.664L73.1475 150.439L72.775 147.298L72.2473 142.824L72.0441 141.105C72.03 141.018 72.0159 140.934 72.0046 140.847C71.8268 139.728 71.7252 138.603 71.6886 137.481C71.6349 135.938 71.7055 134.398 71.872 132.878V132.87C71.9623 132.048 72.078 131.234 72.2219 130.429C72.4025 129.394 72.6198 128.376 72.871 127.381C73.1588 126.225 73.4861 125.1 73.8445 124.015C74.2565 122.744 74.7081 121.527 75.1737 120.377C75.2245 120.253 75.2753 120.13 75.3232 120.009L75.3261 120.007C77.7812 114.057 80.5693 109.993 80.5693 109.993H112.17C112.17 109.993 113.631 116.369 114.357 121.633C114.472 122.466 114.568 123.269 114.639 124.015C114.766 125.392 114.802 126.576 114.692 127.381C114.625 127.88 114.5 128.233 114.309 128.396C112.57 129.871 114.56 133.001 114.56 133.001C114.56 133.001 116.05 135.265 114.752 136.538C114.495 136.791 114.348 137.116 114.278 137.481C114.165 138.084 114.263 138.785 114.419 139.405C114.574 140.028 114.788 140.569 114.907 140.847C114.96 140.97 114.994 141.04 114.994 141.04L115.214 142.771L115.429 144.437L115.793 147.298L115.903 147.803L116.47 150.439L116.518 150.664L116.589 151H116.589Z" fill="#2F2E41"/>
<path d="M94.6793 48.5L81.4168 49.674L78.9723 57.2348L76.3084 57.6181C71.7563 58.2732 69.0471 63.0186 70.8158 67.2388L73.1597 72.8314C73.1597 72.8314 69.7168 83.394 73.9453 87.832L75.7447 107.379L71.6857 120.264L119.132 121.787L111.05 105.624L110.811 95.5878C110.811 95.5878 115.975 77.4483 111.187 71.6785L109.319 55.2673L99.586 53.8162L94.6793 48.5H94.6793Z" fill="#6C63FF"/>
<path d="M103.658 38.7999C105.025 32.9409 101.354 27.0901 95.4592 25.7317C89.5646 24.3734 83.6781 28.0218 82.3115 33.8807C80.9448 39.7397 84.6155 45.5904 90.5101 46.9488C96.4048 48.3072 102.291 44.6588 103.658 38.7999Z" fill="#FFB6B6"/>
<path d="M76.5514 30.3304C74.8835 24.2862 88.336 19.1032 91.8686 23.9706C92.3598 23.2786 94.1751 22.8583 95.008 23.0705C95.841 23.2828 96.5415 23.8135 97.2249 24.3272C98.1646 25.0447 99.1385 25.7877 99.7151 26.8193C100.296 27.8467 100.386 29.2478 99.6041 30.1393C98.9847 30.8483 97.1565 31.3068 96.2254 31.4936C95.5761 31.6253 95.0294 31.7314 94.5596 31.8078C94.1409 31.2007 93.9274 30.4492 94.0043 29.7148C93.3721 30.1308 92.945 30.8441 92.8766 31.5998C92.8638 31.7569 98.1262 51.0018 98.1262 51.0018C97.5837 51.3202 96.9131 51.6174 96.1399 51.8891C94.8287 49.9234 93.7523 47.6054 93.0432 45.1812C92.8809 46.6798 92.9065 48.3058 93.103 49.9574C93.2055 50.8362 93.3593 51.7193 93.5558 52.6023C87.3025 53.9439 77.8969 53.5024 73.8049 47.7964C73.8042 47.7728 73.8035 47.7492 73.8029 47.7255C73.7736 46.6579 72.3079 46.3925 71.9158 47.3869C71.8165 47.6387 71.7251 47.8566 71.6436 48.0299C70.4519 43.7929 71.9939 38.8893 76.5514 30.3304L76.5514 30.3304Z" fill="#2F2E41"/>
<path d="M170.209 150.664H22.9028L0.0449219 150.944L160.35 141.432C165.697 141.115 170.209 145.339 170.209 150.664V150.664V150.664Z" fill="#3F3D56"/>
<path d="M206.285 150.439V151H0V0H0.564392V150.439H206.285Z" fill="#3F3D56"/>
<path d="M184.213 34.9264H146.666C145.8 34.9264 145.096 34.2287 145.096 33.3712C145.096 32.5138 145.8 31.8164 146.666 31.8164H184.213C185.079 31.8164 185.783 32.5138 185.783 33.3712C185.783 34.2287 185.079 34.9264 184.213 34.9264Z" fill="#6C63FF"/>
<path d="M165.425 39.9414C165.284 39.5976 164.8 39.5977 164.659 39.9415C163.68 42.3402 162.287 45.0265 160.771 47.0794C160.528 47.408 160.863 47.8472 161.248 47.7085L164.498 46.54V66.5343H165.586V46.54L168.837 47.7087C169.222 47.8474 169.557 47.4082 169.314 47.0795C167.798 45.0266 166.404 42.3402 165.425 39.9414V39.9414Z" fill="#3F3D56"/>
<path d="M218.032 46.3549H194.883C194.349 46.3549 193.915 45.9247 193.915 45.3961C193.915 44.8674 194.349 44.4375 194.883 44.4375H218.032C218.566 44.4375 219 44.8674 219 45.3961C219 45.9247 218.566 46.3549 218.032 46.3549Z" fill="#F2F2F2"/>
<path d="M206.449 49.447C206.363 49.2351 206.064 49.2351 205.977 49.4471C205.374 50.9259 204.515 52.5821 203.58 53.8478C203.43 54.0504 203.637 54.3212 203.874 54.2357L205.878 53.5153V65.8422H206.549V53.5152L208.553 54.2358C208.791 54.3213 208.997 54.0505 208.847 53.8478C207.913 52.5822 207.053 50.9259 206.449 49.447V49.447Z" fill="#F2F2F2"/>
<path d="M206.462 77.7365C209.24 77.7365 211.492 75.4981 211.492 72.7369C211.492 69.9757 209.24 67.7373 206.462 67.7373C203.684 67.7373 201.432 69.9757 201.432 72.7369C201.432 75.4981 203.684 77.7365 206.462 77.7365Z" fill="#F2F2F2"/>
<path d="M143.815 18.0258H120.666C120.133 18.0258 119.698 17.5956 119.698 17.067C119.698 16.5383 120.133 16.1084 120.666 16.1084H143.815C144.349 16.1084 144.783 16.5383 144.783 17.067C144.783 17.5956 144.349 18.0258 143.815 18.0258V18.0258Z" fill="#F2F2F2"/>
<path d="M132.232 21.1179C132.145 20.906 131.846 20.906 131.76 21.118C131.156 22.5968 130.297 24.253 129.362 25.5187C129.213 25.7213 129.419 25.9921 129.657 25.9066L131.66 25.1862V37.5131H132.331V25.1861L134.335 25.9067C134.573 25.9922 134.779 25.7214 134.629 25.5187C133.695 24.2531 132.835 22.5968 132.232 21.1179H132.232Z" fill="#F2F2F2"/>
<path d="M132.244 49.4074C135.022 49.4074 137.274 47.169 137.274 44.4078C137.274 41.6466 135.022 39.4082 132.244 39.4082C129.466 39.4082 127.214 41.6466 127.214 44.4078C127.214 47.169 129.466 49.4074 132.244 49.4074Z" fill="#F2F2F2"/>
<path d="M73.9265 141.284C75.1134 139.331 74.483 136.792 72.5183 135.612C72.328 135.498 72.1288 135.399 71.9225 135.316L71.5059 114.731L65.749 113.445L66.4237 137.891C65.7271 140.062 66.9326 142.383 69.1163 143.075C70.9435 143.654 72.9321 142.914 73.9265 141.284V141.284Z" fill="#FFB6B6"/>
<path d="M77.9312 60.0665C77.9312 60.0665 70.8763 58.3836 68.6187 63.1518C66.3612 67.9201 66.169 88.6695 66.169 88.6695L64.9502 130.749L73.8991 130.357L81.0354 78.5786L77.9312 60.0665V60.0665Z" fill="#6C63FF"/>
<path d="M74.7647 147.492C74.9235 147.69 75.1647 147.805 75.4194 147.803H121.231C121.697 147.803 122.074 147.427 122.073 146.965C122.073 146.907 122.067 146.85 122.055 146.794L121.344 143.436C121.284 143.158 121.087 142.929 120.819 142.828C120.724 142.79 120.622 142.771 120.52 142.771H76.1277C76.0254 142.771 75.9239 142.79 75.8286 142.828C75.5612 142.929 75.3636 143.158 75.3037 143.436L74.5926 146.794C74.5414 147.04 74.6046 147.297 74.7647 147.492V147.492Z" fill="#CCCCCC"/>
<path d="M57.2266 72.3331V124.857C57.2277 126.251 58.3641 127.38 59.7663 127.381H138.076C139.478 127.38 140.614 126.251 140.615 124.857V72.3331C140.612 70.9408 139.477 69.8133 138.076 69.8115H59.7663C58.3655 69.8133 57.2299 70.9408 57.2266 72.3331V72.3331Z" fill="#E6E6E6"/>
<path d="M108.714 116.149C108.621 116.119 108.522 116.104 108.423 116.104H90.1033C89.5642 116.104 89.124 116.539 89.124 117.075V145.842H109.4V117.075C109.4 116.651 109.123 116.276 108.714 116.149V116.149ZM101.366 130.297C101.36 131.486 100.386 132.446 99.19 132.44C98.0019 132.432 97.0424 131.478 97.0368 130.297V126.959C97.0481 125.773 98.0273 124.819 99.221 124.83C100.401 124.842 101.354 125.79 101.366 126.959V130.297V130.297Z" fill="#CCCCCC"/>
</svg>
