<svg width="99" height="46" viewBox="0 0 99 46" fill="none" xmlns="http://www.w3.org/2000/svg">
<path d="M1.37564 44.417C16.6365 40.9515 30.3038 34.6203 34.9839 18.8785C36.5593 13.5794 33.8225 5.2036 26.5279 10.3042C19.7518 15.0422 19.0366 27.4929 24.0734 33.852C31.632 43.3948 47.3679 41.4547 56.4838 35.9446C70.5872 27.42 81.2002 16.385 92.4428 4.29685C94.7328 1.83457 73.7048 4.16848 80.9698 4.28621C86.0976 4.36931 90.3813 3.12492 95.2407 1.69978C98.7399 0.673558 96.8497 2.51583 95.3354 4.86971C92.8744 8.69522 90.9845 14.2613 91.182 18.8786" stroke="url(#paint0_linear_170_1441)" stroke-width="2" stroke-linecap="round"/>
<defs>
<linearGradient id="paint0_linear_170_1441" x1="-6" y1="19.2676" x2="21.3632" y2="69.1072" gradientUnits="userSpaceOnUse">
<stop stop-color="#4B8521" stop-opacity="0.79"/>
<stop offset="1" stop-color="#79EA27" stop-opacity="0.94"/>
</linearGradient>
</defs>
</svg>
