<svg width="27" height="36" viewBox="0 0 27 36" fill="none" xmlns="http://www.w3.org/2000/svg">
<path d="M1.12928 0.910897C3.70138 6.68381 7.28598 11.5988 13.9011 12.2086C16.128 12.4139 19.2379 10.6672 16.6414 8.18011C14.2295 5.86978 9.2315 6.57077 7.1024 9.06932C3.90734 12.8188 5.91123 18.9006 8.81305 22.077C13.3025 26.9913 18.5146 30.3241 24.1941 33.8231C25.351 34.5358 22.7758 26.3883 23.2987 29.2762C23.6678 31.3146 24.4976 32.9136 25.4443 34.7264C26.126 36.0318 25.2466 35.4285 24.1935 35.0146C22.4821 34.3419 20.1247 34.0331 18.3075 34.4764" stroke="url(#paint0_linear_113_1751)" stroke-width="0.81763" stroke-linecap="round"/>
<defs>
<linearGradient id="paint0_linear_113_1751" x1="10.5332" y1="-4" x2="-7.08899" y2="10.8001" gradientUnits="userSpaceOnUse">
<stop stop-color="#4B8521" stop-opacity="0.79"/>
<stop offset="1" stop-color="#79EA27" stop-opacity="0.94"/>
</linearGradient>
</defs>
</svg>
