<svg width="60" height="60" viewBox="0 0 60 60" fill="none" xmlns="http://www.w3.org/2000/svg">
<path d="M20 27.5C19.2917 27.5 18.6979 27.2604 18.2188 26.7812C17.7396 26.3021 17.5 25.7083 17.5 25C17.5 24.2917 17.7396 23.6979 18.2188 23.2188C18.6979 22.7396 19.2917 22.5 20 22.5C20.7083 22.5 21.3021 22.7396 21.7812 23.2188C22.2604 23.6979 22.5 24.2917 22.5 25C22.5 25.7083 22.2604 26.3021 21.7812 26.7812C21.3021 27.2604 20.7083 27.5 20 27.5ZM40 21.25H27.5V17.5H40V21.25ZM48.75 52.5C50 48.375 51.0208 44.8333 51.8125 41.875C52.6042 38.9167 53.2396 36.3438 53.7187 34.1563C54.1979 31.9688 54.5313 30.0625 54.7188 28.4375C54.9063 26.8125 55 25.25 55 23.75C55 19.9167 53.6667 16.6667 51 14C48.3333 11.3333 45.0833 10 41.25 10H28.75C27.625 8.5 26.1979 7.29167 24.4688 6.375C22.7396 5.45833 20.8333 5 18.75 5C17.7083 5 16.8229 5.36458 16.0938 6.09375C15.3646 6.82292 15 7.70833 15 8.75C15 9 15.0313 9.25 15.0938 9.5C15.1563 9.75 15.2292 9.97917 15.3125 10.1875C15.4792 10.6458 15.6354 11.1042 15.7812 11.5625C15.9271 12.0208 16.0417 12.5208 16.125 13.0625L10.4375 18.75H5V36.1875L12.0625 38.5L16.25 52.5H30V47.5H35V52.5H48.75ZM45.9375 48.75H38.75V43.75H26.25V48.75H19.0625L15.125 35.625L8.75 33.4375V22.5H12L20 14.5C19.9583 13.7917 19.8437 12.9271 19.6562 11.9062C19.4687 10.8854 19.2083 9.75 18.875 8.5C20.6667 8.95833 22.25 9.64583 23.625 10.5625C25 11.4792 26 12.5417 26.625 13.75H41.25C44 13.75 46.3542 14.7292 48.3125 16.6875C50.2708 18.6458 51.25 21 51.25 23.75C51.25 25.5 50.7917 28.5521 49.875 32.9063C48.9583 37.2604 47.6458 42.5417 45.9375 48.75Z" fill="#2213D7"/>
</svg>
