<svg width="20" height="20" viewBox="0 0 20 20" fill="none" xmlns="http://www.w3.org/2000/svg">
<path fill-rule="evenodd" clip-rule="evenodd" d="M8.7399 3.15641C9.56038 2.33594 10.6732 1.875 11.8335 1.875H14.0835C14.4287 1.875 14.7085 2.15482 14.7085 2.5V5.5C14.7085 5.84518 14.4287 6.125 14.0835 6.125H11.8335C11.8003 6.125 11.7686 6.13817 11.7451 6.16161C11.7217 6.18505 11.7085 6.21685 11.7085 6.25V7.875H14.0835C14.276 7.875 14.4577 7.96367 14.5761 8.11537C14.6946 8.26706 14.7365 8.46487 14.6898 8.65158L13.9398 11.6516C13.8703 11.9298 13.6203 12.125 13.3335 12.125H11.7085V17.5C11.7085 17.8452 11.4287 18.125 11.0835 18.125H8.0835C7.73832 18.125 7.4585 17.8452 7.4585 17.5V12.125H5.8335C5.48832 12.125 5.2085 11.8452 5.2085 11.5V8.5C5.2085 8.15482 5.48832 7.875 5.8335 7.875H7.4585V6.25C7.4585 5.08968 7.91943 3.97688 8.7399 3.15641ZM11.8335 3.125C11.0047 3.125 10.2098 3.45424 9.62379 4.04029C9.03774 4.62634 8.7085 5.4212 8.7085 6.25V8.5C8.7085 8.84518 8.42867 9.125 8.0835 9.125H6.4585V10.875H8.0835C8.42867 10.875 8.7085 11.1548 8.7085 11.5V16.875H10.4585V11.5C10.4585 11.1548 10.7383 10.875 11.0835 10.875H12.8455L13.283 9.125H11.0835C10.7383 9.125 10.4585 8.84518 10.4585 8.5V6.25C10.4585 5.88533 10.6034 5.53559 10.8612 5.27773C11.1191 5.01987 11.4688 4.875 11.8335 4.875H13.4585V3.125H11.8335Z" fill="#396D13"/>
</svg>
