<svg width="20" height="20" viewBox="0 0 20 20" fill="none" xmlns="http://www.w3.org/2000/svg">
<path d="M13.3336 5.83378C13.3336 5.37354 13.7067 5.00044 14.1669 5.00044C14.6271 5.00044 15.0002 5.37354 15.0002 5.83378C15.0002 6.29402 14.6271 6.66711 14.1669 6.66711C13.7067 6.66711 13.3336 6.29402 13.3336 5.83378Z" fill="#396D13"/>
<path fill-rule="evenodd" clip-rule="evenodd" d="M10.0002 6.04211C7.81411 6.04211 6.0419 7.81432 6.0419 10.0004C6.0419 12.1866 7.81411 13.9588 10.0002 13.9588C12.1864 13.9588 13.9586 12.1866 13.9586 10.0004C13.9586 7.81432 12.1864 6.04211 10.0002 6.04211ZM7.2919 10.0004C7.2919 8.50467 8.50446 7.29211 10.0002 7.29211C11.496 7.29211 12.7086 8.50467 12.7086 10.0004C12.7086 11.4962 11.496 12.7088 10.0002 12.7088C8.50446 12.7088 7.2919 11.4962 7.2919 10.0004Z" fill="#396D13"/>
<path fill-rule="evenodd" clip-rule="evenodd" d="M14.3821 2.36129C11.4933 2.03842 8.50719 2.03842 5.61838 2.36129C3.94166 2.54869 2.58805 3.86953 2.39092 5.55497C2.04547 8.50855 2.04547 11.4923 2.39092 14.4459C2.58805 16.1314 3.94166 17.4522 5.61838 17.6396C8.50719 17.9625 11.4933 17.9625 14.3821 17.6396C16.0588 17.4522 17.4124 16.1314 17.6096 14.4459C17.955 11.4923 17.955 8.50855 17.6096 5.55497C17.4124 3.86953 16.0588 2.54869 14.3821 2.36129ZM5.75722 3.60356C8.55376 3.291 11.4467 3.291 14.2433 3.60356C15.3517 3.72744 16.2396 4.60212 16.368 5.70018C16.7022 8.55729 16.7022 11.4436 16.368 14.3007C16.2396 15.3988 15.3517 16.2734 14.2433 16.3973C11.4467 16.7099 8.55376 16.7099 5.75722 16.3973C4.64879 16.2734 3.76089 15.3988 3.63246 14.3007C3.29829 11.4436 3.29829 8.55729 3.63246 5.70018C3.76089 4.60212 4.64879 3.72744 5.75722 3.60356Z" fill="#396D13"/>
</svg>
