<svg width="20" height="20" viewBox="0 0 20 20" fill="none" xmlns="http://www.w3.org/2000/svg">
<path fill-rule="evenodd" clip-rule="evenodd" d="M4.16667 1.04199C2.90101 1.04199 1.875 2.06801 1.875 3.33366C1.875 4.59931 2.90101 5.62533 4.16667 5.62533C5.43232 5.62533 6.45833 4.59931 6.45833 3.33366C6.45833 2.06801 5.43232 1.04199 4.16667 1.04199ZM3.125 3.33366C3.125 2.75836 3.59137 2.29199 4.16667 2.29199C4.74196 2.29199 5.20833 2.75836 5.20833 3.33366C5.20833 3.90896 4.74196 4.37533 4.16667 4.37533C3.59137 4.37533 3.125 3.90896 3.125 3.33366Z" fill="#396D13"/>
<path fill-rule="evenodd" clip-rule="evenodd" d="M1.875 6.66699C1.875 6.32181 2.15482 6.04199 2.5 6.04199H5.83333C6.17851 6.04199 6.45833 6.32181 6.45833 6.66699V17.5003C6.45833 17.8455 6.17851 18.1253 5.83333 18.1253H2.5C2.15482 18.1253 1.875 17.8455 1.875 17.5003V6.66699ZM3.125 7.29199V16.8753H5.20833V7.29199H3.125Z" fill="#396D13"/>
<path fill-rule="evenodd" clip-rule="evenodd" d="M7.70833 6.66699C7.70833 6.32181 7.98816 6.04199 8.33333 6.04199H11.6667C12.0118 6.04199 12.2917 6.32181 12.2917 6.66699V7.02868L12.6544 6.87322C13.278 6.60596 13.9449 6.43836 14.6194 6.37705C16.9318 6.16682 18.9583 7.98398 18.9583 10.3172V17.5003C18.9583 17.8455 18.6785 18.1253 18.3333 18.1253H15C14.6548 18.1253 14.375 17.8455 14.375 17.5003V11.667C14.375 11.3907 14.2653 11.1258 14.0699 10.9304C13.8746 10.7351 13.6096 10.6253 13.3333 10.6253C13.0571 10.6253 12.7921 10.7351 12.5968 10.9304C12.4014 11.1258 12.2917 11.3907 12.2917 11.667V17.5003C12.2917 17.8455 12.0118 18.1253 11.6667 18.1253H8.33333C7.98816 18.1253 7.70833 17.8455 7.70833 17.5003V6.66699ZM8.95833 7.29199V16.8753H11.0417V11.667C11.0417 11.0592 11.2831 10.4763 11.7129 10.0465C12.1427 9.61677 12.7255 9.37533 13.3333 9.37533C13.9411 9.37533 14.524 9.61677 14.9538 10.0465C15.3836 10.4763 15.625 11.0592 15.625 11.667V16.8753H17.7083V10.3172C17.7083 8.73022 16.3242 7.47722 14.7325 7.62191C14.1875 7.67146 13.6487 7.80705 13.1468 8.02216L11.9129 8.55098C11.7198 8.63374 11.498 8.61394 11.3226 8.49829C11.1472 8.38264 11.0417 8.18661 11.0417 7.97652V7.29199H8.95833Z" fill="#396D13"/>
</svg>
