<svg width="20" height="20" viewBox="0 0 20 20" fill="none" xmlns="http://www.w3.org/2000/svg">
<path fill-rule="evenodd" clip-rule="evenodd" d="M4.82282 11.6827C4.8593 11.695 4.89612 11.7037 4.9329 11.709C4.97302 11.8033 5.02485 11.9253 5.08531 12.0679C5.23287 12.4159 5.4317 12.8866 5.63693 13.3776C6.05546 14.379 6.47764 15.4113 6.57088 15.7068C6.68631 16.072 6.80832 16.3204 6.94151 16.4899C7.01038 16.5776 7.09003 16.6541 7.18324 16.7121C7.23015 16.7413 7.27971 16.7652 7.33145 16.783C7.33373 16.7838 7.336 16.7846 7.33828 16.7853C7.60496 16.886 7.84809 16.8441 8.00032 16.7928C8.08177 16.7654 8.14767 16.7322 8.19438 16.7054C8.21819 16.6917 8.23831 16.6789 8.25436 16.6681L8.25815 16.6656L10.6133 15.1968L13.3338 17.2825C13.3739 17.3133 13.4177 17.3391 13.4641 17.3593C13.7909 17.502 14.1074 17.5517 14.4051 17.511C14.7023 17.4704 14.9382 17.3456 15.1139 17.205C15.2859 17.0674 15.4025 16.9133 15.4751 16.7988C15.5122 16.7403 15.5401 16.6885 15.5597 16.6489C15.5696 16.629 15.5775 16.6118 15.5836 16.5981L15.5915 16.5799L15.5944 16.5728L15.5957 16.5697L15.5962 16.5683L15.5968 16.567C15.6111 16.5313 15.622 16.4943 15.6295 16.4565L18.113 3.93529C18.121 3.89525 18.125 3.85452 18.125 3.81369C18.125 3.44702 17.9868 3.09835 17.662 2.88677C17.3843 2.70594 17.075 2.69816 16.8795 2.71299C16.6686 2.729 16.4739 2.78105 16.3432 2.82265C16.2752 2.8443 16.2182 2.86519 16.177 2.88112C16.1564 2.88913 16.1394 2.896 16.1268 2.90124L16.1174 2.90523L2.18926 8.36902L2.18745 8.36966C2.17857 8.37289 2.16718 8.37715 2.15364 8.38242C2.12667 8.39292 2.09053 8.40771 2.04832 8.42684C1.966 8.46415 1.85052 8.52246 1.73201 8.60361C1.54269 8.73326 1.10728 9.08835 1.1806 9.67443C1.23909 10.142 1.5594 10.4291 1.75456 10.5672C1.86172 10.6431 1.96353 10.6973 2.03767 10.7326C2.07206 10.749 2.14348 10.778 2.17446 10.7906L2.18228 10.7937L4.82282 11.6827ZM16.6048 4.05623L16.6029 4.05707C16.5959 4.06009 16.5889 4.06298 16.5819 4.06574L2.63688 9.53616C2.6296 9.53901 2.62226 9.54174 2.61488 9.54432L2.60712 9.54726C2.5982 9.55073 2.58318 9.55683 2.56432 9.56537C2.55363 9.57022 2.54248 9.5755 2.53111 9.58118C2.54673 9.58998 2.56169 9.59762 2.57498 9.60395C2.58773 9.61002 2.59747 9.61418 2.60279 9.61636L5.22165 10.498C5.26958 10.5142 5.31427 10.5355 5.35529 10.5613L14.0026 5.49924L14.0107 5.49445C14.017 5.49073 14.0253 5.48595 14.0352 5.48034C14.0549 5.46922 14.0819 5.4544 14.1141 5.43804C14.1741 5.40749 14.2701 5.36215 14.3783 5.32872C14.4536 5.30544 14.6756 5.23987 14.9157 5.31687C15.0639 5.3644 15.2173 5.46657 15.3171 5.63966C15.3667 5.72565 15.3931 5.81203 15.4059 5.89111C15.4398 6.01568 15.4345 6.13868 15.4079 6.24488C15.3506 6.47363 15.1899 6.65207 15.0436 6.78855C14.9183 6.90556 13.2972 8.46877 11.6979 10.0119C10.9003 10.7814 10.1109 11.5434 9.52089 12.113L9.13335 12.4871L14.0266 16.2386C14.1388 16.2788 14.2052 16.2767 14.2359 16.2725C14.2725 16.2675 14.3024 16.2535 14.333 16.229C14.3672 16.2016 14.3971 16.1647 14.4194 16.1295L14.4203 16.128L16.8291 3.98386C16.7933 3.99245 16.7572 4.00268 16.7223 4.01377C16.6829 4.02633 16.6503 4.03829 16.6288 4.04665C16.6181 4.05079 16.6104 4.05393 16.6062 4.05566L16.6048 4.05623ZM9.55373 14.3845L8.5775 13.636L8.34095 15.1408L9.55373 14.3845ZM7.68193 12.1508L8.65274 11.2136C9.24281 10.644 10.0323 9.882 10.8299 9.11238L11.6403 8.33051L6.20698 11.5112L6.23614 11.5799C6.38422 11.9292 6.58393 12.4019 6.79025 12.8956C6.94453 13.2647 7.10585 13.6534 7.25279 14.0132L7.48865 12.5129C7.51139 12.3682 7.58206 12.243 7.68193 12.1508Z" fill="#396D13"/>
</svg>
