<svg width="340" height="260" viewBox="0 0 340 260" fill="none" xmlns="http://www.w3.org/2000/svg">
<path d="M70.5839 171.018C55.2119 156.149 48.7195 140.637 52.3022 127.339C56.8998 110.275 77.325 98.4762 108.34 94.9688L108.455 95.9476C77.8713 99.406 57.7577 110.94 53.2714 127.591C49.7847 140.532 56.1829 155.706 71.2874 170.316L70.5839 171.018Z" fill="white"/>
<path d="M218.897 223.799C199.712 223.799 178.864 220.998 158.156 215.611C132.548 208.95 109.068 198.895 90.2544 186.534L90.8115 185.715C109.534 198.016 132.91 208.025 158.413 214.659C181.459 220.654 204.678 223.432 225.551 222.699L225.587 223.683C223.383 223.761 221.153 223.8 218.897 223.799Z" fill="white"/>
<path d="M262.911 217.604L262.589 216.671C279.748 210.971 290.48 201.788 293.625 190.115C297.623 175.276 288.937 158.056 269.168 141.627C249.297 125.115 220.644 111.414 188.484 103.048L188.74 102.096C221.041 110.498 249.834 124.27 269.815 140.875C289.897 157.563 298.697 175.139 294.594 190.367C291.359 202.375 280.403 211.793 262.911 217.604Z" fill="white"/>
<path d="M105.355 224.211C67.6576 207.782 38.6087 186.469 23.5601 164.195L24.3952 163.65C39.3398 185.769 68.2363 206.957 105.762 223.31L105.355 224.211Z" fill="white"/>
<path d="M237.898 252.671C234.009 252.671 230.055 252.586 226.033 252.415L226.077 251.431C256.085 252.708 282.562 249.179 302.651 241.225L303.026 242.138C285.502 249.077 263.167 252.671 237.898 252.671Z" fill="white"/>
<path d="M216.025 95.8519C209.794 93.8585 203.385 92.0026 196.976 90.3354C160.095 80.7418 123.841 77.3355 92.1313 80.4868L92.0305 79.5065C123.859 76.3449 160.237 79.7593 197.233 89.383C203.66 91.055 210.087 92.9163 216.335 94.9153L216.025 95.8519Z" fill="white"/>
<path d="M47.0238 172.496C31.6519 157.626 25.1595 142.114 28.7421 128.817C33.3398 111.752 53.7649 99.9538 84.7803 96.4463L84.8949 97.4251C54.3112 100.884 34.1977 112.417 29.7114 129.069C26.2247 142.01 32.6228 157.183 47.7273 171.794L47.0238 172.496Z" fill="white"/>
<path d="M195.337 225.277C176.152 225.277 155.304 222.475 134.596 217.089C108.988 210.427 85.5077 200.372 66.6943 188.011L67.2514 187.192C85.9742 199.494 109.35 209.503 134.853 216.136C157.899 222.131 181.118 224.909 201.991 224.176L202.027 225.16C199.823 225.238 197.593 225.277 195.337 225.277Z" fill="white"/>
<path d="M239.35 219.082L239.029 218.148C256.188 212.448 266.92 203.265 270.065 191.592C274.063 176.753 265.377 159.533 245.608 143.104C225.737 126.592 197.083 112.891 164.924 104.526L165.18 103.573C197.481 111.975 226.274 125.747 246.255 142.352C266.337 159.04 275.137 176.617 271.034 191.844C267.799 203.852 256.843 213.271 239.35 219.082Z" fill="white"/>
<path d="M81.7953 225.688C44.0976 209.26 15.0486 187.946 0 165.673L0.835144 165.128C15.7798 187.247 44.6762 208.434 82.2016 224.788L81.7953 225.688Z" fill="white"/>
<path d="M214.338 254.149C210.449 254.149 206.495 254.063 202.473 253.893L202.516 252.909C232.525 254.185 259.002 250.657 279.091 242.702L279.466 243.616C261.942 250.554 239.607 254.149 214.338 254.149Z" fill="white"/>
<path d="M192.465 97.3304C186.234 95.3371 179.825 93.4811 173.416 91.8139C136.535 82.2203 100.281 78.814 68.5713 81.9653L68.4705 80.985C100.298 77.8234 136.677 81.2378 173.673 90.8615C180.1 92.5335 186.527 94.3948 192.775 96.3938L192.465 97.3304Z" fill="white"/>
<path d="M17.0879 146.11C24.2925 138.173 35.7849 133.336 46.1996 136.231C36.5916 142.912 29.6983 152.717 26.7393 163.911C25.6141 168.233 24.8204 173.154 21.163 175.796C18.8873 177.44 15.872 177.833 13.0733 177.458C10.2746 177.084 7.62827 176.014 5.01767 174.955L4.31519 175.014C6.33489 164.566 9.88342 154.047 17.0879 146.11Z" fill="white"/>
<path d="M46.1679 136.453C37.4605 138.525 29.6388 143.24 23.8137 149.928C22.5336 151.346 21.4891 152.953 20.7184 154.691C20.0234 156.407 19.8088 158.275 20.097 160.101C20.3309 161.808 20.7714 163.528 20.5788 165.261C20.4669 166.147 20.1655 167 19.6947 167.763C19.2238 168.527 18.594 169.184 17.8466 169.691C16.0177 171.004 13.8181 171.592 11.6466 172.094C9.23567 172.651 6.72245 173.192 4.75713 174.767C4.519 174.957 4.23169 174.583 4.46946 174.393C7.88878 171.653 12.6409 172.005 16.424 170.016C18.1893 169.087 19.6806 167.631 20.0431 165.632C20.3602 163.884 19.9075 162.11 19.6555 160.383C19.3478 158.606 19.4875 156.782 20.0625 155.071C20.7406 153.301 21.7204 151.656 22.96 150.209C25.6976 146.906 28.9468 144.047 32.5883 141.736C36.7295 139.077 41.3032 137.132 46.1116 135.988C46.4093 135.917 46.4637 136.383 46.1679 136.453L46.1679 136.453Z" fill="white"/>
<path d="M25.5604 147.665C24.5511 146.552 23.9771 145.123 23.941 143.633C23.9049 142.143 24.4091 140.689 25.3634 139.531C25.5573 139.297 25.9361 139.582 25.742 139.816C24.8512 140.893 24.3818 142.248 24.4183 143.635C24.4548 145.023 24.9948 146.352 25.941 147.382C26.1463 147.607 25.7646 147.888 25.5604 147.665H25.5604Z" fill="white"/>
<path d="M19.8622 159.25C22.9562 159.452 26.0141 158.5 28.426 156.586C28.6648 156.396 28.9522 156.77 28.7136 156.959C26.2 158.948 23.0158 159.931 19.7965 159.714C19.4897 159.693 19.557 159.229 19.8622 159.25Z" fill="white"/>
<path d="M36.8366 139.688C37.1359 140.199 37.5595 140.628 38.0694 140.938C38.5793 141.248 39.1595 141.428 39.758 141.464C40.0649 141.481 39.9972 141.945 39.6923 141.928C39.0313 141.886 38.3907 141.686 37.8266 141.345C37.2625 141.004 36.7919 140.532 36.4561 139.971C36.4199 139.921 36.4046 139.859 36.4132 139.798C36.4219 139.737 36.4538 139.681 36.5025 139.643C36.5531 139.605 36.6166 139.589 36.6791 139.598C36.7417 139.606 36.7983 139.639 36.8366 139.688Z" fill="white"/>
<path d="M60.9836 169.181C60.7916 169.176 60.5997 169.17 60.4052 169.168C57.8239 169.11 55.2421 169.258 52.6852 169.611C52.4871 169.635 52.2867 169.662 52.0897 169.692C45.9387 170.606 40.014 172.635 34.6167 175.674C32.4701 176.886 30.4204 178.256 28.4854 179.773C25.8131 181.868 23.0854 184.349 19.9569 185.422C19.6318 185.538 19.2997 185.634 18.9625 185.709L4.44406 175.853C4.42251 175.814 4.39852 175.778 4.3768 175.74L3.77881 175.372C3.87304 175.287 3.97264 175.201 4.06688 175.116C4.12134 175.066 4.17904 175.019 4.23348 174.969C4.27081 174.937 4.30832 174.905 4.34012 174.873C4.3525 174.862 4.36505 174.852 4.37516 174.844C4.40696 174.813 4.43988 174.787 4.46939 174.759C5.02477 174.275 5.58458 173.795 6.14881 173.317C6.1511 173.314 6.15111 173.314 6.15663 173.313C10.4653 169.684 15.1201 166.377 20.1378 163.869C20.2888 163.793 20.4419 163.714 20.5995 163.644C22.8677 162.525 25.225 161.591 27.648 160.85C28.9761 160.449 30.324 160.114 31.6866 159.846C35.2087 159.162 38.8184 159.026 42.3835 159.444C49.4902 160.277 56.2465 163.335 60.6512 168.763C60.7638 168.902 60.8733 169.039 60.9836 169.181Z" fill="white"/>
<path d="M60.8235 169.339C52.6018 165.842 43.4677 164.979 34.7185 166.874C32.8277 167.249 31.0088 167.914 29.3288 168.845C27.7221 169.805 26.4062 171.169 25.5177 172.797C24.6583 174.299 23.9562 175.933 22.7403 177.203C22.108 177.844 21.345 178.347 20.5012 178.678C19.6575 179.009 18.752 179.161 17.8442 179.124C15.5799 179.089 13.4632 178.258 11.4219 177.374C9.15551 176.393 6.81722 175.338 4.28335 175.432C3.97634 175.444 3.97623 174.975 4.28278 174.964C8.69127 174.799 12.2701 177.891 16.5098 178.541C18.4881 178.844 20.5714 178.563 22.0856 177.182C23.4098 175.974 24.1353 174.289 24.9921 172.762C25.8352 171.161 27.0642 169.787 28.572 168.761C30.1983 167.749 31.9881 167.015 33.8647 166.593C38.0742 165.576 42.4202 165.215 46.7437 165.524C51.6801 165.85 56.5233 167.004 61.0638 168.934C61.3448 169.054 61.1027 169.458 60.8235 169.339Z" fill="white"/>
<path d="M37.4992 166.101C37.3751 164.615 37.7924 163.135 38.6766 161.924C39.5608 160.712 40.8544 159.85 42.3263 159.489C42.6243 159.417 42.7521 159.869 42.4536 159.941C41.0824 160.274 39.8775 161.078 39.0565 162.207C38.2354 163.337 37.8523 164.718 37.9763 166.1C38.0029 166.401 37.5257 166.399 37.4992 166.101Z" fill="white"/>
<path d="M25.8517 171.979C28.1984 173.971 31.2228 175.02 34.322 174.918C34.629 174.908 34.6292 175.377 34.3225 175.387C31.0973 175.487 27.9522 174.389 25.5148 172.311C25.2826 172.113 25.6208 171.782 25.8517 171.979Z" fill="white"/>
<path d="M51.3905 166.403C51.3167 166.988 51.3918 167.581 51.609 168.13C51.8263 168.679 52.1789 169.167 52.6353 169.549C52.8699 169.744 52.5315 170.074 52.2984 169.881C51.7962 169.456 51.4074 168.917 51.166 168.311C50.9245 167.705 50.8379 167.05 50.9135 166.404C50.9154 166.342 50.9411 166.284 50.9854 166.24C51.0296 166.196 51.0891 166.171 51.1517 166.169C51.2149 166.169 51.2754 166.194 51.3201 166.238C51.3648 166.282 51.3901 166.341 51.3905 166.403H51.3905Z" fill="white"/>
<path d="M299.386 211.174C295.316 201.319 286.147 192.968 275.347 192.256C282.111 201.721 285.25 213.232 284.207 224.752C283.789 229.194 282.853 234.091 285.394 237.787C286.975 240.087 289.681 241.453 292.445 242.024C295.209 242.596 298.067 242.463 300.888 242.327L301.529 242.615C303.201 232.107 303.457 221.029 299.386 211.174Z" fill="white"/>
<path d="M275.302 192.475C282.794 197.302 288.548 204.325 291.747 212.548C292.467 214.306 292.901 216.165 293.033 218.056C293.1 219.902 292.663 221.732 291.768 223.357C290.963 224.887 289.96 226.362 289.548 228.058C289.351 228.929 289.343 229.832 289.525 230.706C289.708 231.581 290.076 232.408 290.606 233.133C291.88 234.973 293.751 236.253 295.624 237.443C297.704 238.764 299.886 240.103 301.198 242.235C301.357 242.494 301.756 242.236 301.597 241.978C299.314 238.269 294.718 237.031 291.835 233.908C290.49 232.45 289.584 230.586 289.926 228.584C290.226 226.833 291.259 225.311 292.087 223.768C292.984 222.197 293.477 220.433 293.52 218.631C293.487 216.74 293.127 214.867 292.455 213.095C291.006 209.08 288.924 205.315 286.284 201.936C283.294 198.063 279.651 194.721 275.514 192.055C275.258 191.89 275.047 192.311 275.302 192.475Z" fill="white"/>
<path d="M290.876 209.841C292.207 209.127 293.236 207.971 293.78 206.579C294.323 205.188 294.346 203.652 293.844 202.245C293.741 201.961 293.287 202.104 293.389 202.389C293.86 203.698 293.839 205.129 293.33 206.423C292.821 207.718 291.857 208.791 290.614 209.45C290.344 209.593 290.607 209.984 290.876 209.841Z" fill="white"/>
<path d="M292.279 222.633C289.296 221.801 286.742 219.895 285.125 217.295C284.965 217.038 284.567 217.295 284.726 217.552C286.414 220.255 289.076 222.233 292.182 223.092C292.478 223.174 292.574 222.714 292.279 222.633Z" fill="white"/>
<path d="M282.983 198.604C282.527 198.986 281.981 199.251 281.395 199.374C280.809 199.498 280.2 199.476 279.625 199.312C279.33 199.226 279.235 199.686 279.528 199.771C280.165 199.95 280.836 199.973 281.484 199.838C282.132 199.703 282.737 199.414 283.245 198.996C283.296 198.961 283.332 198.908 283.345 198.847C283.358 198.787 283.346 198.724 283.314 198.672C283.279 198.62 283.225 198.584 283.163 198.571C283.101 198.559 283.036 198.571 282.983 198.604Z" fill="white"/>
<path d="M250.153 218.406C250.336 218.464 250.519 218.523 250.702 218.585C253.153 219.382 255.534 220.375 257.822 221.551C258 221.639 258.18 221.731 258.355 221.824C263.835 224.717 268.722 228.584 272.765 233.229C274.373 235.079 275.834 237.046 277.138 239.114C278.938 241.97 280.659 245.207 283.238 247.251C283.505 247.467 283.785 247.667 284.076 247.85L301.122 243.361C301.155 243.332 301.19 243.307 301.224 243.277L301.913 243.129C301.853 243.017 301.789 242.903 301.729 242.792C301.695 242.727 301.657 242.664 301.622 242.599C301.598 242.556 301.574 242.513 301.555 242.473C301.547 242.459 301.538 242.445 301.532 242.434C301.512 242.394 301.49 242.359 301.472 242.323C301.114 241.684 300.751 241.047 300.383 240.41C300.382 240.406 300.382 240.406 300.378 240.404C297.561 235.563 294.308 230.911 290.44 226.892C290.324 226.771 290.206 226.646 290.082 226.527C288.329 224.725 286.428 223.067 284.399 221.569C283.286 220.752 282.131 219.991 280.939 219.29C277.856 217.482 274.503 216.162 271.002 215.378C264.024 213.816 256.615 214.464 250.609 218.122C250.456 218.216 250.306 218.308 250.153 218.406Z" fill="white"/>
<path d="M250.25 218.608C259.189 218.03 268.087 220.234 275.68 224.907C277.332 225.885 278.818 227.112 280.081 228.544C281.266 229.978 282.039 231.698 282.319 233.525C282.615 235.223 282.717 236.993 283.428 238.591C283.804 239.404 284.351 240.129 285.032 240.72C285.714 241.31 286.514 241.752 287.382 242.017C289.526 242.733 291.804 242.649 294.029 242.49C296.499 242.314 299.062 242.093 301.417 243.019C301.702 243.131 301.862 242.69 301.578 242.578C297.482 240.967 293.053 242.698 288.838 241.909C286.871 241.541 285.005 240.589 284.052 238.787C283.218 237.212 283.11 235.387 282.826 233.665C282.58 231.879 281.892 230.179 280.823 228.715C279.638 227.224 278.203 225.942 276.58 224.925C272.963 222.576 268.993 220.801 264.815 219.665C260.055 218.342 255.099 217.829 250.162 218.148C249.856 218.167 249.946 218.628 250.25 218.608Z" fill="white"/>
<path d="M273.325 223.262C273.95 221.904 274.063 220.372 273.645 218.939C273.226 217.507 272.303 216.267 271.04 215.441C270.784 215.275 270.509 215.658 270.766 215.825C271.943 216.591 272.803 217.746 273.19 219.081C273.577 220.416 273.465 221.843 272.876 223.104C272.748 223.378 273.198 223.535 273.325 223.262H273.325Z" fill="white"/>
<path d="M282.284 232.645C279.393 233.746 276.185 233.735 273.301 232.615C273.016 232.504 272.855 232.946 273.141 233.057C276.144 234.216 279.482 234.221 282.488 233.069C282.774 232.959 282.569 232.536 282.284 232.645Z" fill="white"/>
<path d="M260.138 218.959C260.008 219.534 259.734 220.068 259.342 220.513C258.949 220.959 258.451 221.301 257.89 221.51C257.602 221.617 257.808 222.04 258.094 221.934C258.712 221.7 259.263 221.321 259.697 220.83C260.132 220.339 260.438 219.751 260.588 219.117C260.607 219.058 260.603 218.995 260.576 218.939C260.549 218.883 260.502 218.84 260.443 218.817C260.384 218.796 260.318 218.8 260.261 218.826C260.204 218.853 260.16 218.9 260.138 218.959V218.959Z" fill="white"/>
<path d="M220.416 244.731C222.631 244.731 224.426 242.967 224.426 240.791C224.426 238.615 222.631 236.851 220.416 236.851C218.201 236.851 216.406 238.615 216.406 240.791C216.406 242.967 218.201 244.731 220.416 244.731Z" fill="#FD6584"/>
<path d="M234.621 177.617C236.836 177.617 238.631 175.853 238.631 173.677C238.631 171.501 236.836 169.736 234.621 169.736C232.406 169.736 230.611 171.501 230.611 173.677C230.611 175.853 232.406 177.617 234.621 177.617Z" fill="white"/>
<path d="M160 68.3173C162.215 68.3173 164.011 66.5532 164.011 64.3769C164.011 62.2007 162.215 60.4365 160 60.4365C157.786 60.4365 155.99 62.2007 155.99 64.3769C155.99 66.5532 157.786 68.3173 160 68.3173Z" fill="white"/>
<path d="M75.9639 215.531C75.9639 216.534 75.9975 217.537 76.0689 218.532C76.1446 219.721 76.2748 220.901 76.4512 222.074C77.0442 226.021 78.1775 229.871 79.8204 233.52C79.9044 233.702 79.9884 233.883 80.0724 234.065L80.1985 234.337C80.2405 234.428 80.2867 234.519 80.3287 234.606C80.3875 234.726 80.4421 234.841 80.5009 234.957C80.5723 235.101 80.6438 235.246 80.7194 235.39C80.7278 235.407 80.7362 235.427 80.7488 235.448C80.8118 235.572 80.8706 235.691 80.9378 235.815C80.9502 235.842 80.9642 235.868 80.9798 235.894C81.0513 236.034 81.1269 236.178 81.2025 236.319C81.2865 236.467 81.3663 236.62 81.4503 236.769C81.652 237.136 81.862 237.499 82.0763 237.863C82.1393 237.97 82.2023 238.077 82.2695 238.185C82.3283 238.284 82.3872 238.383 82.4502 238.482C82.4922 238.548 82.5342 238.618 82.5762 238.684C82.6434 238.796 82.7106 238.903 82.782 239.014C82.9375 239.258 83.0971 239.501 83.2525 239.745H83.2567C83.3282 239.856 83.4038 239.968 83.4794 240.075V240.079C83.702 240.409 83.9331 240.74 84.1641 241.066C84.1647 241.066 84.1652 241.066 84.1658 241.066C84.1663 241.066 84.1668 241.067 84.1671 241.067C84.1675 241.067 84.1679 241.068 84.1681 241.068C84.1683 241.069 84.1684 241.069 84.1684 241.07C84.3532 241.334 84.5464 241.59 84.7355 241.846V241.85C84.8615 242.011 84.9833 242.176 85.1094 242.337C85.2102 242.469 85.3152 242.605 85.4202 242.738C85.4412 242.766 85.4664 242.791 85.4874 242.82V242.824C85.5169 242.861 85.5463 242.894 85.5757 242.932C86.021 243.493 86.4803 244.042 86.9536 244.579L87.0292 244.665C87.0544 244.694 87.0838 244.723 87.109 244.756C87.151 244.801 87.1888 244.847 87.2308 244.892C87.2686 244.938 87.3107 244.983 87.3527 245.028C89.8199 247.759 92.6175 250.184 95.6831 252.248C96.0906 252.525 96.5065 252.793 96.9224 253.053C97.0274 253.119 97.1325 253.185 97.2375 253.247C97.2669 253.268 97.3005 253.288 97.3299 253.309C97.3887 253.342 97.4433 253.375 97.5021 253.412C97.5568 253.445 97.6114 253.478 97.6702 253.511C97.8928 253.647 98.1197 253.779 98.3465 253.911C98.4012 253.945 98.46 253.978 98.5188 254.011C98.5734 254.039 98.6322 254.073 98.691 254.106C98.691 254.11 98.691 254.11 98.6952 254.11H98.6994V254.114H98.7036C98.9851 254.275 99.2708 254.432 99.5606 254.584C99.716 254.667 99.8757 254.754 100.035 254.832C100.397 255.026 100.762 255.212 101.128 255.389C101.258 255.451 101.392 255.513 101.522 255.579C101.632 255.629 101.741 255.682 101.85 255.732C101.884 255.748 101.913 255.761 101.943 255.777C102.035 255.819 102.123 255.86 102.216 255.901C102.316 255.947 102.417 255.992 102.514 256.037C102.627 256.087 102.737 256.136 102.85 256.182C103.27 256.368 103.694 256.545 104.119 256.714C105.639 257.327 107.193 257.856 108.773 258.299C108.845 258.32 108.92 258.341 108.996 258.361C109.672 258.547 110.353 258.716 111.038 258.869C112.235 259.141 113.443 259.364 114.663 259.538H114.671C114.818 259.558 114.961 259.579 115.108 259.6C115.121 259.6 115.134 259.604 115.15 259.604C115.15 259.608 115.15 259.608 115.155 259.604C115.314 259.624 115.478 259.645 115.638 259.666C115.649 259.669 115.66 259.67 115.671 259.67C115.822 259.69 115.978 259.707 116.129 259.723C116.293 259.74 116.457 259.756 116.621 259.773C116.747 259.785 116.873 259.798 116.999 259.81C117.01 259.814 117.021 259.815 117.032 259.814C117.146 259.823 117.259 259.835 117.373 259.843H117.389C117.486 259.851 117.587 259.86 117.683 259.868C118.856 259.959 120.032 260 121.225 260C122.515 260 123.796 259.95 125.06 259.843H125.073C125.346 259.818 125.615 259.794 125.884 259.769C125.955 259.761 126.022 259.756 126.094 259.748C126.106 259.748 126.123 259.744 126.136 259.744C126.157 259.74 126.178 259.74 126.203 259.736C126.214 259.736 126.226 259.735 126.237 259.732C126.329 259.723 126.421 259.711 126.518 259.703L126.833 259.666C126.938 259.653 127.043 259.637 127.148 259.624C127.173 259.62 127.194 259.62 127.22 259.616C127.295 259.608 127.371 259.595 127.447 259.583C127.484 259.579 127.522 259.575 127.556 259.571C127.631 259.558 127.703 259.55 127.778 259.538H127.783C130.088 259.212 132.363 258.708 134.588 258.031C134.706 257.994 134.823 257.961 134.941 257.924C134.945 257.924 134.949 257.92 134.954 257.92C134.987 257.907 135.025 257.899 135.059 257.887C135.374 257.788 135.685 257.684 135.995 257.577C136.424 257.437 136.848 257.284 137.273 257.127C137.386 257.082 137.499 257.04 137.613 256.995C137.844 256.908 138.071 256.817 138.298 256.727C138.684 256.574 139.071 256.413 139.453 256.248C139.81 256.091 140.163 255.934 140.516 255.769C140.524 255.765 140.537 255.765 140.545 255.757C140.625 255.719 140.705 255.682 140.78 255.645H140.784C142.719 254.733 144.585 253.686 146.368 252.512C146.939 252.137 147.502 251.749 148.056 251.348C148.502 251.022 148.939 250.692 149.375 250.353C151.531 248.669 153.526 246.795 155.337 244.756V244.752C155.467 244.612 155.589 244.467 155.715 244.323C155.736 244.302 155.752 244.281 155.769 244.265C155.849 244.17 155.925 244.079 156.005 243.988V243.984C156.11 243.864 156.215 243.741 156.315 243.617C156.341 243.588 156.362 243.563 156.383 243.538V243.534C156.467 243.435 156.546 243.336 156.63 243.233C156.672 243.183 156.71 243.134 156.752 243.084V243.08C157 242.775 157.24 242.469 157.479 242.156C157.542 242.073 157.605 241.986 157.672 241.9C157.975 241.499 158.269 241.091 158.554 240.682V240.678C158.664 240.525 158.769 240.368 158.878 240.215C158.983 240.059 159.088 239.902 159.193 239.745C159.298 239.58 159.407 239.419 159.512 239.254L159.525 239.229C159.63 239.072 159.735 238.907 159.836 238.746C159.916 238.614 159.995 238.486 160.075 238.358C160.126 238.271 160.18 238.185 160.231 238.094C160.25 238.066 160.269 238.037 160.285 238.007C160.403 237.805 160.521 237.603 160.638 237.4C160.777 237.165 160.911 236.926 161.046 236.686C161.096 236.587 161.151 236.488 161.205 236.389C161.226 236.356 161.243 236.323 161.26 236.29C161.323 236.174 161.386 236.055 161.445 235.935C161.508 235.819 161.571 235.7 161.634 235.58C161.693 235.464 161.756 235.345 161.814 235.225C161.861 235.134 161.903 235.043 161.949 234.953C161.952 234.945 161.956 234.938 161.961 234.932C161.982 234.887 162.003 234.845 162.02 234.804C162.025 234.798 162.03 234.791 162.033 234.783C162.079 234.693 162.121 234.598 162.167 234.507C162.226 234.387 162.281 234.263 162.34 234.144C162.377 234.061 162.419 233.974 162.457 233.888C162.512 233.768 162.571 233.648 162.621 233.524C162.68 233.4 162.734 233.277 162.789 233.149C162.805 233.118 162.819 233.086 162.831 233.054C162.86 232.996 162.881 232.938 162.907 232.88C162.974 232.728 163.041 232.571 163.104 232.418C163.18 232.245 163.251 232.067 163.318 231.894C163.386 231.733 163.449 231.568 163.512 231.403L163.537 231.345C164.516 228.812 165.258 226.196 165.755 223.531V223.527C166.035 222.005 166.236 220.47 166.356 218.928C166.36 218.842 166.368 218.759 166.372 218.677C166.448 217.632 166.482 216.584 166.482 215.531C166.482 215.065 166.473 214.603 166.461 214.14C166.167 204.471 162.659 195.163 156.471 187.64C156.336 187.475 156.202 187.31 156.063 187.144C155.925 186.979 155.782 186.818 155.643 186.657C151.038 181.358 145.23 177.196 138.688 174.507C132.145 171.818 125.051 170.678 117.977 171.177C110.904 171.676 104.049 173.801 97.9644 177.382C91.8802 180.962 86.7372 185.897 82.9501 191.788C82.7442 192.11 82.5384 192.436 82.341 192.762C82.1393 193.093 81.9461 193.423 81.7528 193.757C77.947 200.404 75.953 207.904 75.9639 215.531Z" fill="white"/>
<path d="M119.426 186.444C126.868 188.32 134.495 189.402 142.173 189.67C143.334 189.732 144.498 189.724 145.658 189.647C148.208 189.436 150.392 188.649 152.824 188.218C153.993 188.012 155.296 187.861 156.473 187.638C156.201 187.307 155.924 186.979 155.642 186.656C153.104 186.866 150.526 187.556 147.957 187.877C143.591 188.422 138.698 187.814 135.388 186.312C133.782 185.583 132.552 184.674 130.951 183.942C130.734 183.832 130.498 183.761 130.255 183.733C129.794 183.719 129.338 183.835 128.941 184.067C126.256 185.399 122.358 186.482 118.74 185.886C118.47 186.094 118.982 186.33 119.426 186.444Z" fill="white"/>
<path d="M103.414 191.131C103.381 191.125 103.348 191.12 103.315 191.115C103.454 191.03 103.584 190.933 103.705 190.825L103.414 191.131Z" fill="white"/>
<path d="M81.7537 193.759C83.2649 193.877 84.784 193.966 86.311 194.024C87.4722 194.085 88.636 194.077 89.7962 194C92.3458 193.789 94.5297 193.002 96.9618 192.572C99.1909 192.178 101.9 191.989 103.315 191.115C99.657 190.493 95.8671 191.759 92.0952 192.23C89.0442 192.599 85.9514 192.449 82.9523 191.787C82.5347 192.432 82.1351 193.089 81.7537 193.759Z" fill="white"/>
<path d="M100.035 254.832C100.396 255.026 100.762 255.212 101.127 255.389C101.258 255.451 101.392 255.513 101.522 255.579C101.632 255.629 101.741 255.682 101.85 255.732C101.884 255.748 101.913 255.761 101.942 255.777C102.035 255.819 102.123 255.86 102.215 255.901C102.316 255.947 102.417 255.992 102.514 256.037C102.627 256.087 102.736 256.136 102.85 256.182C103.27 256.368 103.694 256.545 104.118 256.714C105.639 257.327 107.193 257.856 108.773 258.299C108.845 258.32 108.92 258.341 108.996 258.361C109.672 258.547 110.353 258.716 111.037 258.869C112.235 259.142 113.443 259.364 114.663 259.538H114.671C114.818 259.558 114.961 259.579 115.108 259.6C115.121 259.6 115.133 259.604 115.15 259.604C115.15 259.608 115.15 259.608 115.154 259.604C115.314 259.624 115.478 259.645 115.637 259.666C115.648 259.669 115.66 259.67 115.671 259.67C115.822 259.69 115.978 259.707 116.129 259.723C116.293 259.74 116.457 259.757 116.621 259.773C116.747 259.785 116.873 259.798 116.999 259.81C117.009 259.814 117.021 259.815 117.032 259.814C117.146 259.823 117.259 259.835 117.372 259.843H117.389C117.486 259.851 117.587 259.86 117.683 259.868C118.855 259.959 120.032 260 121.225 260C122.514 260 123.796 259.951 125.06 259.843H125.073C125.346 259.818 125.615 259.794 125.884 259.769C125.955 259.761 126.022 259.757 126.094 259.748C126.106 259.748 126.123 259.744 126.136 259.744C126.157 259.74 126.178 259.74 126.203 259.736C126.214 259.736 126.226 259.735 126.236 259.732C126.329 259.723 126.421 259.711 126.518 259.703L126.833 259.666C126.938 259.653 127.043 259.637 127.148 259.624C127.173 259.62 127.194 259.62 127.219 259.616C127.295 259.608 127.371 259.596 127.446 259.583C127.484 259.579 127.522 259.575 127.556 259.571C127.631 259.558 127.703 259.55 127.778 259.538H127.782C130.088 259.212 132.363 258.708 134.588 258.031C134.706 257.994 134.823 257.961 134.941 257.924C134.398 255.438 133.282 253.108 131.677 251.114C130.072 249.12 128.023 247.515 125.686 246.424C126.264 245.883 126.664 245.184 126.833 244.418C126.942 243.924 126.951 243.413 126.858 242.916C126.766 242.419 126.575 241.944 126.295 241.52C125.75 240.697 124.895 240.121 123.918 239.918L117.692 238.639C116.69 238.447 115.651 238.651 114.801 239.208C113.952 239.764 113.36 240.628 113.155 241.611C113.091 241.912 113.063 242.22 113.071 242.527C107.076 246.448 102.762 250.514 100.035 254.832Z" fill="#6C63FF"/>
<path d="M118.418 236.222C125.582 236.222 131.389 230.516 131.389 223.477C131.389 216.438 125.582 210.732 118.418 210.732C111.255 210.732 105.448 216.438 105.448 223.477C105.448 230.516 111.255 236.222 118.418 236.222Z" fill="#FFB8B8"/>
<path d="M110.333 234.466C108.95 233.537 107.538 231.753 106.595 230.416C105.345 228.659 104.485 226.663 104.071 224.558C103.657 222.453 103.697 220.286 104.19 218.198C104.347 217.362 104.733 216.585 105.306 215.95C105.917 215.356 106.915 215.074 107.661 215.494C107.457 214.959 107.368 214.388 107.397 213.817C107.427 213.247 107.575 212.688 107.834 212.176C108.358 211.153 109.117 210.264 110.051 209.58C111.838 208.228 113.965 207.377 116.205 207.116C118.444 206.855 120.714 207.196 122.773 208.1C123.583 208.469 122.253 205.62 123.101 205.895C123.943 206.215 124.88 206.199 125.71 205.85C126.508 205.455 129.152 207.799 128.846 206.975C129.451 207.245 129.977 207.661 130.374 208.185C130.772 208.708 131.028 209.322 131.119 209.969C131.21 210.616 131.133 211.275 130.895 211.885C130.657 212.495 130.266 213.036 129.758 213.457C129.089 214.012 128.253 214.332 127.52 214.803C126.236 215.691 125.327 217.01 124.965 218.511C124.602 220.013 124.812 221.592 125.554 222.952C124.783 222.465 123.937 222.104 123.049 221.882C122.603 221.775 122.138 221.774 121.692 221.88C121.245 221.985 120.831 222.194 120.484 222.488C120.194 222.814 119.974 223.196 119.839 223.609C119.704 224.021 119.657 224.457 119.7 224.889C119.729 225.754 119.938 226.606 119.962 227.471C120.031 230.009 121.414 234.835 119.411 236.184C117.831 237.248 112.222 235.733 110.333 234.466Z" fill="#2F2E41"/>
<path d="M127.336 159.687C127.063 159.686 126.793 159.632 126.541 159.529C126.165 159.38 125.843 159.124 125.618 158.793C125.393 158.462 125.275 158.071 125.279 157.673V155.656C125.279 155.233 125.107 154.827 124.803 154.528C124.498 154.229 124.085 154.06 123.655 154.06C123.113 154.059 122.593 153.847 122.21 153.471C121.827 153.094 121.611 152.583 121.61 152.051V124.413C121.611 123.881 121.827 123.37 122.21 122.993C122.593 122.617 123.113 122.405 123.655 122.404H216.843C217.385 122.405 217.904 122.617 218.288 122.993C218.671 123.37 218.887 123.881 218.887 124.413V152.051C218.887 152.583 218.671 153.094 218.288 153.471C217.904 153.847 217.385 154.059 216.843 154.06H134.565C134.352 154.059 134.14 154.1 133.943 154.18C133.746 154.261 133.567 154.379 133.416 154.527L128.769 159.093C128.582 159.281 128.359 159.429 128.113 159.531C127.867 159.633 127.603 159.686 127.336 159.687Z" fill="white"/>
<path d="M127.336 160.099C127.008 160.099 126.683 160.034 126.38 159.91C125.927 159.731 125.539 159.421 125.268 159.022C124.996 158.623 124.854 158.153 124.859 157.673V155.656C124.859 155.342 124.732 155.041 124.506 154.819C124.28 154.597 123.974 154.473 123.655 154.472C123.001 154.471 122.375 154.216 121.913 153.762C121.451 153.308 121.191 152.692 121.19 152.05V124.413C121.191 123.771 121.451 123.155 121.913 122.701C122.375 122.247 123.001 121.992 123.655 121.991H216.843C217.496 121.992 218.123 122.247 218.585 122.701C219.047 123.155 219.307 123.771 219.307 124.413V152.05C219.307 152.692 219.047 153.308 218.585 153.762C218.123 154.216 217.496 154.471 216.843 154.472H134.565C134.407 154.472 134.25 154.502 134.104 154.562C133.958 154.621 133.825 154.709 133.713 154.819L129.066 159.385C128.84 159.61 128.571 159.79 128.274 159.912C127.977 160.035 127.658 160.098 127.336 160.099ZM123.655 122.817C123.224 122.817 122.811 122.986 122.507 123.285C122.202 123.584 122.031 123.99 122.03 124.413V152.05C122.031 152.474 122.202 152.879 122.507 153.179C122.811 153.478 123.224 153.646 123.655 153.647C124.197 153.647 124.716 153.859 125.1 154.236C125.483 154.613 125.698 155.123 125.699 155.656V157.673C125.699 157.989 125.794 158.297 125.973 158.559C126.151 158.822 126.405 159.026 126.702 159.147C126.999 159.268 127.325 159.299 127.64 159.238C127.955 159.176 128.245 159.024 128.472 158.801L133.119 154.235C133.309 154.048 133.534 153.9 133.782 153.799C134.03 153.698 134.296 153.646 134.565 153.647H216.843C217.273 153.646 217.686 153.478 217.991 153.179C218.295 152.879 218.467 152.474 218.467 152.05V124.413C218.467 123.99 218.295 123.584 217.991 123.285C217.686 122.986 217.273 122.817 216.843 122.817L123.655 122.817Z" fill="#3F3D56"/>
<path d="M208.835 134.916H133.269C132.98 134.916 132.704 134.804 132.499 134.603C132.295 134.402 132.181 134.13 132.181 133.847C132.181 133.563 132.295 133.291 132.499 133.091C132.704 132.89 132.98 132.777 133.269 132.777H208.835C209.124 132.777 209.4 132.89 209.605 133.091C209.809 133.291 209.923 133.563 209.923 133.847C209.923 134.13 209.809 134.402 209.605 134.603C209.4 134.804 209.124 134.916 208.835 134.916Z" fill="#6C63FF"/>
<path d="M208.696 139.46H133.269C132.98 139.46 132.704 139.347 132.499 139.147C132.295 138.946 132.181 138.674 132.181 138.391C132.181 138.107 132.295 137.835 132.499 137.635C132.704 137.434 132.98 137.321 133.269 137.321H208.696C208.985 137.321 209.262 137.434 209.466 137.635C209.67 137.835 209.784 138.107 209.784 138.391C209.784 138.674 209.67 138.946 209.466 139.147C209.262 139.347 208.985 139.46 208.696 139.46Z" fill="white"/>
<path d="M208.621 144.002H133.269C132.98 144.002 132.704 143.889 132.499 143.689C132.295 143.488 132.181 143.216 132.181 142.933C132.181 142.649 132.295 142.377 132.499 142.177C132.704 141.976 132.98 141.863 133.269 141.863H208.621C208.91 141.863 209.187 141.976 209.391 142.177C209.595 142.377 209.709 142.649 209.709 142.933C209.709 143.216 209.595 143.488 209.391 143.689C209.187 143.889 208.91 144.002 208.621 144.002Z" fill="white"/>
<path d="M327.836 118.115C327.836 119.118 327.802 120.121 327.731 121.116C327.655 122.305 327.525 123.485 327.348 124.658C326.755 128.605 325.622 132.455 323.979 136.104C323.895 136.286 323.811 136.467 323.727 136.649L323.601 136.921C323.559 137.012 323.513 137.103 323.471 137.19C323.412 137.309 323.357 137.425 323.299 137.541C323.227 137.685 323.156 137.83 323.08 137.974C323.072 137.991 323.063 138.011 323.051 138.032C322.988 138.156 322.929 138.275 322.862 138.399C322.849 138.426 322.835 138.452 322.82 138.478C322.748 138.618 322.673 138.762 322.597 138.903C322.513 139.051 322.433 139.204 322.349 139.353C322.148 139.72 321.938 140.083 321.723 140.447C321.66 140.554 321.597 140.661 321.53 140.769C321.471 140.868 321.412 140.967 321.349 141.066C321.307 141.132 321.265 141.202 321.223 141.268C321.156 141.38 321.089 141.487 321.018 141.598C320.862 141.842 320.702 142.085 320.547 142.329H320.543C320.471 142.44 320.396 142.552 320.32 142.659V142.663C320.098 142.993 319.866 143.324 319.635 143.65C319.635 143.65 319.634 143.65 319.634 143.65C319.633 143.65 319.633 143.651 319.632 143.651C319.632 143.651 319.632 143.652 319.631 143.652C319.631 143.653 319.631 143.653 319.631 143.654C319.446 143.918 319.253 144.174 319.064 144.43V144.434C318.938 144.595 318.816 144.76 318.69 144.921C318.589 145.053 318.484 145.189 318.379 145.322C318.358 145.35 318.333 145.375 318.312 145.404V145.408C318.283 145.445 318.253 145.478 318.224 145.516C317.779 146.077 317.319 146.626 316.846 147.163L316.77 147.249C316.745 147.278 316.716 147.307 316.691 147.34C316.649 147.385 316.611 147.431 316.569 147.476C316.531 147.522 316.489 147.567 316.447 147.612C313.98 150.343 311.182 152.768 308.116 154.832C307.709 155.109 307.293 155.377 306.877 155.637C306.772 155.703 306.667 155.769 306.562 155.831C306.533 155.852 306.499 155.872 306.47 155.893C306.411 155.926 306.356 155.959 306.297 155.996C306.243 156.029 306.188 156.062 306.129 156.095C305.907 156.231 305.68 156.363 305.453 156.495C305.398 156.528 305.34 156.562 305.281 156.595C305.226 156.623 305.167 156.656 305.109 156.69C305.109 156.694 305.109 156.694 305.104 156.694H305.1V156.698H305.096C304.814 156.859 304.529 157.016 304.239 157.168C304.083 157.251 303.924 157.338 303.764 157.416C303.403 157.61 303.037 157.796 302.672 157.973C302.542 158.035 302.407 158.097 302.277 158.163C302.168 158.213 302.059 158.266 301.949 158.316C301.916 158.332 301.886 158.345 301.857 158.361C301.765 158.403 301.676 158.444 301.584 158.485C301.483 158.531 301.382 158.576 301.286 158.621C301.172 158.671 301.063 158.72 300.95 158.766C300.529 158.952 300.105 159.129 299.681 159.298C298.16 159.911 296.606 160.44 295.026 160.883C294.955 160.904 294.879 160.925 294.804 160.945C294.127 161.131 293.447 161.3 292.762 161.453C291.565 161.725 290.356 161.948 289.137 162.122H289.128C288.981 162.142 288.838 162.163 288.691 162.184C288.679 162.184 288.666 162.188 288.649 162.188C288.649 162.192 288.649 162.192 288.645 162.188C288.485 162.208 288.322 162.229 288.162 162.25C288.151 162.253 288.14 162.254 288.128 162.254C287.977 162.274 287.822 162.291 287.67 162.307C287.507 162.324 287.343 162.34 287.179 162.357C287.053 162.369 286.927 162.382 286.801 162.394C286.79 162.398 286.779 162.399 286.767 162.398C286.654 162.407 286.54 162.419 286.427 162.427H286.41C286.313 162.435 286.213 162.444 286.116 162.452C284.944 162.543 283.768 162.584 282.575 162.584C281.285 162.584 280.004 162.534 278.739 162.427H278.727C278.454 162.402 278.185 162.378 277.916 162.353C277.844 162.345 277.777 162.34 277.706 162.332C277.693 162.332 277.676 162.328 277.664 162.328C277.643 162.324 277.622 162.324 277.597 162.32C277.585 162.32 277.574 162.319 277.563 162.316C277.47 162.307 277.378 162.295 277.281 162.287L276.966 162.25C276.861 162.237 276.756 162.221 276.651 162.208C276.626 162.204 276.605 162.204 276.58 162.2C276.504 162.192 276.429 162.179 276.353 162.167C276.315 162.163 276.277 162.159 276.244 162.155C276.168 162.142 276.097 162.134 276.021 162.122H276.017C273.712 161.796 271.436 161.292 269.211 160.615C269.094 160.578 268.976 160.545 268.859 160.508C268.854 160.508 268.85 160.504 268.846 160.504C268.812 160.491 268.775 160.483 268.741 160.471C268.426 160.371 268.115 160.268 267.804 160.161C267.376 160.021 266.951 159.868 266.527 159.711C266.414 159.666 266.3 159.624 266.187 159.579C265.956 159.492 265.729 159.401 265.502 159.311C265.116 159.158 264.729 158.997 264.347 158.832C263.99 158.675 263.637 158.518 263.284 158.353C263.276 158.349 263.263 158.349 263.254 158.341C263.175 158.303 263.095 158.266 263.019 158.229H263.015C261.08 157.317 259.215 156.27 257.432 155.096C256.861 154.721 256.298 154.333 255.743 153.932C255.298 153.606 254.861 153.276 254.424 152.937C252.269 151.253 250.273 149.379 248.463 147.34V147.336C248.333 147.196 248.211 147.051 248.085 146.907C248.064 146.886 248.047 146.865 248.03 146.849C247.95 146.754 247.875 146.663 247.795 146.572V146.568C247.69 146.448 247.585 146.325 247.484 146.201C247.459 146.172 247.438 146.147 247.417 146.122V146.118C247.333 146.019 247.253 145.92 247.169 145.817C247.127 145.767 247.089 145.718 247.047 145.668V145.664C246.799 145.359 246.56 145.053 246.32 144.74C246.257 144.657 246.194 144.57 246.127 144.484C245.825 144.083 245.531 143.675 245.245 143.266V143.262C245.136 143.109 245.031 142.952 244.922 142.799C244.817 142.643 244.712 142.486 244.606 142.329C244.501 142.164 244.392 142.003 244.287 141.838L244.275 141.813C244.17 141.656 244.065 141.491 243.964 141.33C243.884 141.198 243.804 141.07 243.724 140.942C243.674 140.855 243.619 140.769 243.569 140.678C243.549 140.65 243.531 140.621 243.514 140.591C243.397 140.389 243.279 140.187 243.161 139.984C243.023 139.749 242.888 139.51 242.754 139.27C242.703 139.171 242.649 139.072 242.594 138.973C242.573 138.94 242.556 138.907 242.54 138.874C242.477 138.758 242.414 138.639 242.355 138.519C242.292 138.403 242.229 138.284 242.166 138.164C242.107 138.048 242.044 137.929 241.985 137.809C241.939 137.718 241.897 137.627 241.851 137.537C241.847 137.529 241.843 137.522 241.838 137.516C241.817 137.471 241.796 137.429 241.779 137.388C241.774 137.382 241.77 137.375 241.767 137.367C241.72 137.276 241.678 137.182 241.632 137.091C241.573 136.971 241.519 136.847 241.46 136.727C241.422 136.645 241.38 136.558 241.342 136.472C241.288 136.352 241.229 136.232 241.179 136.108C241.12 135.984 241.065 135.861 241.01 135.733C240.995 135.702 240.981 135.67 240.968 135.638C240.939 135.58 240.918 135.522 240.893 135.464C240.826 135.312 240.758 135.155 240.695 135.002C240.62 134.829 240.548 134.651 240.481 134.478C240.414 134.317 240.351 134.152 240.288 133.987L240.263 133.929C239.284 131.396 238.541 128.78 238.045 126.115V126.111C237.764 124.589 237.564 123.054 237.444 121.512C237.44 121.426 237.431 121.343 237.427 121.261C237.351 120.216 237.318 119.168 237.318 118.115C237.318 117.649 237.326 117.187 237.339 116.724C237.632 107.055 241.141 97.7472 247.329 90.2237C247.463 90.0586 247.598 89.8935 247.736 89.7284C247.875 89.5633 248.018 89.4023 248.156 89.2413C252.762 83.9421 258.57 79.7803 265.112 77.0913C271.655 74.4024 278.749 73.2615 285.822 73.7608C292.896 74.2601 299.751 76.3855 305.835 79.9656C311.919 83.5458 317.062 88.4806 320.849 94.3721C321.055 94.6941 321.261 95.0202 321.459 95.3463C321.66 95.6766 321.853 96.0068 322.047 96.3411C325.853 102.988 327.847 110.488 327.836 118.115Z" fill="white"/>
<path d="M284.374 89.0279C276.931 90.9043 269.305 91.9859 261.626 92.2539C260.465 92.3161 259.301 92.3083 258.141 92.2306C255.592 92.0199 253.408 91.2326 250.975 90.8023C249.806 90.596 248.504 90.4452 247.327 90.2223C247.599 89.8907 247.876 89.5632 248.157 89.2397C250.696 89.4505 253.273 90.1402 255.842 90.4607C260.209 91.0063 265.101 90.3975 268.412 88.896C270.018 88.1674 271.248 87.258 272.848 86.5261C273.066 86.4163 273.302 86.3453 273.545 86.3165C274.006 86.3029 274.462 86.4191 274.858 86.6514C277.543 87.9833 281.442 89.0656 285.06 88.4701C285.33 88.6775 284.817 88.9137 284.374 89.0279Z" fill="white"/>
<path d="M300.385 93.7148C300.418 93.7089 300.451 93.7043 300.484 93.6987C300.345 93.614 300.214 93.5171 300.094 93.4092L300.385 93.7148Z" fill="white"/>
<path d="M322.046 96.3425C320.535 96.4612 319.015 96.5495 317.488 96.6076C316.327 96.6692 315.163 96.6614 314.003 96.5843C311.454 96.3725 309.27 95.5862 306.838 95.1559C304.609 94.7623 301.9 94.5726 300.485 93.6988C304.142 93.0766 307.932 94.3431 311.704 94.8144C314.755 95.183 317.848 95.033 320.847 94.3708C321.265 95.0162 321.664 95.6735 322.046 96.3425Z" fill="white"/>
<path d="M277.473 137.574C284.98 137.574 291.066 131.46 291.066 123.919C291.066 116.378 284.98 110.265 277.473 110.265C269.965 110.265 263.879 116.378 263.879 123.919C263.879 131.46 269.965 137.574 277.473 137.574Z" fill="#FFB6B6"/>
<path d="M303.764 157.415C303.403 157.609 303.038 157.795 302.672 157.972C302.542 158.034 302.407 158.096 302.277 158.162C302.168 158.212 302.059 158.265 301.949 158.315C301.916 158.331 301.886 158.344 301.857 158.36C301.765 158.402 301.676 158.443 301.584 158.484C301.483 158.53 301.382 158.575 301.286 158.62C301.172 158.67 301.063 158.719 300.95 158.765C300.53 158.951 300.105 159.128 299.681 159.297C298.16 159.91 296.606 160.439 295.026 160.882C294.955 160.903 294.879 160.924 294.804 160.944C294.127 161.13 293.447 161.299 292.762 161.452C291.565 161.725 290.356 161.947 289.137 162.121H289.128C288.981 162.141 288.838 162.162 288.691 162.183C288.679 162.183 288.666 162.187 288.649 162.187C288.649 162.191 288.649 162.191 288.645 162.187C288.485 162.207 288.322 162.228 288.162 162.249C288.151 162.252 288.14 162.253 288.128 162.253C287.977 162.274 287.822 162.29 287.67 162.306C287.507 162.323 287.343 162.34 287.179 162.356C287.053 162.368 286.927 162.381 286.801 162.393C286.79 162.397 286.779 162.398 286.767 162.397C286.654 162.406 286.54 162.418 286.427 162.426H286.41C286.314 162.434 286.213 162.443 286.116 162.451C284.944 162.542 283.768 162.583 282.575 162.583C281.285 162.583 280.004 162.534 278.739 162.426H278.727C278.454 162.401 278.185 162.377 277.916 162.352C277.844 162.344 277.777 162.34 277.706 162.331C277.693 162.331 277.676 162.327 277.664 162.327C277.643 162.323 277.622 162.323 277.597 162.319C277.585 162.319 277.574 162.318 277.563 162.315C277.471 162.307 277.378 162.294 277.282 162.286L276.966 162.249C276.861 162.236 276.756 162.22 276.651 162.207C276.626 162.203 276.605 162.203 276.58 162.199C276.504 162.191 276.429 162.179 276.353 162.166C276.315 162.162 276.278 162.158 276.244 162.154C276.168 162.141 276.097 162.133 276.021 162.121H276.017C273.712 161.795 271.436 161.291 269.212 160.614C269.094 160.577 268.976 160.544 268.859 160.507C269.401 158.021 270.518 155.691 272.122 153.697C273.727 151.703 275.777 150.098 278.113 149.007C277.535 148.466 277.136 147.767 276.966 147.001C276.857 146.507 276.849 145.996 276.941 145.499C277.033 145.002 277.225 144.527 277.504 144.103C278.049 143.28 278.905 142.704 279.882 142.501L286.108 141.222C287.11 141.03 288.149 141.234 288.998 141.791C289.848 142.347 290.44 143.211 290.645 144.194C290.708 144.495 290.736 144.803 290.729 145.11C296.724 149.032 301.038 153.097 303.764 157.415Z" fill="#6C63FF"/>
<path d="M313.847 117.997C311.537 115.35 310.438 111.837 308.591 108.83C306.744 105.824 303.529 103.133 300.134 103.833C297.793 104.315 295.984 106.345 295.068 108.608C294.152 110.87 293.98 113.366 293.82 115.811C293.876 110.787 290.508 105.916 285.867 104.313C281.227 102.71 275.674 104.498 272.758 108.534C271.486 107.376 269.825 106.716 268.091 106.68C266.356 106.644 264.668 107.235 263.348 108.34C260.74 110.631 260.162 114.99 262.08 117.912C263.998 120.833 268.152 121.921 271.201 120.301L272.278 121.275C271.672 123.36 272.848 125.822 274.825 126.607C276.429 127.243 278.692 127.137 279.292 128.791C279.712 129.946 278.928 131.179 278.094 132.067C277.261 132.955 276.271 133.871 276.171 135.1C276.02 136.953 277.969 138.252 279.741 138.643C284.014 139.586 288.755 137.642 291.218 133.936C291.265 133.865 291.317 133.793 291.373 133.722C292.755 131.985 293.762 129.991 294.332 127.859C294.903 125.727 295.025 123.504 294.692 121.324C294.553 120.468 294.693 119.831 295.294 119.628C297.891 118.752 305.168 120.591 307.37 122.254C309.572 123.917 311.336 126.118 313.457 127.888C315.579 129.658 318.282 131.023 320.975 130.541C323.132 130.155 324.968 128.616 326.202 126.76C327.436 124.904 328.147 122.741 328.783 120.59C324.013 123.298 317.484 122.165 313.847 117.997Z" fill="#2F2E41"/>
<path d="M34.7945 90.458C34.7945 91.4611 34.8281 92.4641 34.8995 93.4589C34.9751 94.6477 35.1053 95.8283 35.2818 97.0006C35.8748 100.948 37.0081 104.798 38.6509 108.447C38.7349 108.629 38.819 108.81 38.903 108.992L39.029 109.264C39.071 109.355 39.1172 109.446 39.1593 109.533C39.2181 109.652 39.2727 109.768 39.3315 109.883C39.4029 110.028 39.4743 110.172 39.5499 110.317C39.5583 110.333 39.5667 110.354 39.5793 110.375C39.6424 110.498 39.7012 110.618 39.7684 110.742C39.7807 110.769 39.7948 110.795 39.8104 110.82C39.8818 110.961 39.9574 111.105 40.0331 111.246C40.1171 111.394 40.1969 111.547 40.2809 111.696C40.4826 112.063 40.6926 112.426 40.9068 112.789C40.9699 112.897 41.0329 113.004 41.1001 113.111C41.1589 113.21 41.2177 113.31 41.2807 113.409C41.3227 113.475 41.3648 113.545 41.4068 113.611C41.474 113.722 41.5412 113.83 41.6126 113.941C41.768 114.185 41.9277 114.428 42.0831 114.672H42.0873C42.1587 114.783 42.2343 114.895 42.31 115.002V115.006C42.5326 115.336 42.7637 115.666 42.9947 115.993C42.9953 115.993 42.9958 115.993 42.9963 115.993C42.9968 115.993 42.9973 115.993 42.9977 115.994C42.9981 115.994 42.9984 115.995 42.9986 115.995C42.9988 115.996 42.9989 115.996 42.9989 115.997C43.1838 116.261 43.377 116.517 43.566 116.773V116.777C43.6921 116.938 43.8139 117.103 43.9399 117.264C44.0408 117.396 44.1458 117.532 44.2508 117.664C44.2718 117.693 44.297 117.718 44.318 117.747V117.751C44.3474 117.788 44.3768 117.821 44.4062 117.858C44.8515 118.42 45.3108 118.969 45.7841 119.505L45.8598 119.592C45.885 119.621 45.9144 119.65 45.9396 119.683C45.9816 119.728 46.0194 119.774 46.0614 119.819C46.0992 119.864 46.1412 119.91 46.1832 119.955C48.6505 122.686 51.448 125.111 54.5137 127.175C54.9212 127.451 55.3371 127.72 55.753 127.98C55.858 128.046 55.963 128.112 56.0681 128.174C56.0975 128.194 56.1311 128.215 56.1605 128.236C56.2193 128.269 56.2739 128.302 56.3327 128.339C56.3873 128.372 56.4419 128.405 56.5007 128.438C56.7234 128.574 56.9503 128.706 57.1771 128.838C57.2317 128.871 57.2905 128.904 57.3493 128.937C57.404 128.966 57.4628 128.999 57.5216 129.032C57.5216 129.036 57.5216 129.036 57.5258 129.036H57.53V129.041H57.5342C57.8157 129.201 58.1013 129.358 58.3912 129.511C58.5466 129.594 58.7062 129.68 58.8659 129.759C59.2272 129.953 59.5926 130.139 59.9581 130.316C60.0884 130.378 60.2228 130.44 60.353 130.506C60.4622 130.555 60.5715 130.609 60.6807 130.659C60.7143 130.675 60.7437 130.688 60.7731 130.704C60.8655 130.745 60.9538 130.787 61.0462 130.828C61.147 130.873 61.2478 130.919 61.3444 130.964C61.4579 131.014 61.5671 131.063 61.6805 131.109C62.1006 131.294 62.5249 131.472 62.9492 131.641C64.4698 132.253 66.0237 132.783 67.6038 133.226C67.6753 133.247 67.7509 133.267 67.8265 133.288C68.5029 133.474 69.1834 133.643 69.8682 133.796C71.0654 134.068 72.2739 134.291 73.4936 134.464H73.502C73.649 134.485 73.7919 134.506 73.9389 134.526C73.9515 134.526 73.9641 134.53 73.9809 134.53C73.9809 134.535 73.9809 134.535 73.9851 134.53C74.1447 134.551 74.3086 134.572 74.4682 134.592C74.4791 134.596 74.4905 134.597 74.5018 134.597C74.6531 134.617 74.8085 134.634 74.9597 134.65C75.1235 134.667 75.2874 134.683 75.4512 134.7C75.5773 134.712 75.7033 134.725 75.8293 134.737C75.8401 134.741 75.8516 134.742 75.8629 134.741C75.9763 134.749 76.0898 134.762 76.2032 134.77H76.22C76.3166 134.778 76.4174 134.786 76.5141 134.795C77.6861 134.886 78.8624 134.927 80.0555 134.927C81.3452 134.927 82.6264 134.877 83.8909 134.77H83.9035C84.1766 134.745 84.4455 134.72 84.7143 134.696C84.7857 134.687 84.8529 134.683 84.9244 134.675C84.937 134.675 84.9538 134.671 84.9664 134.671C84.9874 134.667 85.0084 134.667 85.0336 134.663C85.0449 134.663 85.0563 134.662 85.0672 134.658C85.1596 134.65 85.252 134.638 85.3486 134.63L85.6637 134.592C85.7687 134.58 85.8738 134.564 85.9788 134.551C86.004 134.547 86.025 134.547 86.0502 134.543C86.1258 134.535 86.2015 134.522 86.2771 134.51C86.3149 134.506 86.3527 134.502 86.3863 134.497C86.4619 134.485 86.5333 134.477 86.6089 134.464H86.6131C88.9183 134.138 91.1939 133.635 93.4187 132.958C93.5363 132.921 93.6539 132.888 93.7715 132.851C93.7758 132.851 93.78 132.846 93.7842 132.846C93.8178 132.834 93.8556 132.826 93.8892 132.813C94.2042 132.714 94.5151 132.611 94.826 132.504C95.2545 132.363 95.6788 132.211 96.1031 132.054C96.2165 132.008 96.3299 131.967 96.4433 131.922C96.6744 131.835 96.9012 131.744 97.1281 131.653C97.5146 131.501 97.9011 131.34 98.2834 131.175C98.6404 131.018 98.9933 130.861 99.3462 130.696C99.3546 130.692 99.3672 130.692 99.3756 130.683C99.4554 130.646 99.5352 130.609 99.6109 130.572H99.6151C101.55 129.66 103.415 128.613 105.198 127.439C105.769 127.063 106.332 126.675 106.887 126.275C107.332 125.949 107.769 125.619 108.206 125.28C110.361 123.596 112.357 121.722 114.167 119.683V119.679C114.297 119.538 114.419 119.394 114.545 119.249C114.566 119.229 114.583 119.208 114.6 119.192C114.68 119.097 114.755 119.006 114.835 118.915V118.911C114.94 118.791 115.045 118.667 115.146 118.544C115.171 118.515 115.192 118.49 115.213 118.465V118.461C115.297 118.362 115.377 118.263 115.461 118.16C115.503 118.11 115.541 118.061 115.583 118.011V118.007C115.831 117.701 116.07 117.396 116.31 117.082C116.373 117 116.436 116.913 116.503 116.826C116.805 116.426 117.099 116.017 117.385 115.609V115.605C117.494 115.452 117.599 115.295 117.709 115.142C117.814 114.985 117.919 114.829 118.024 114.672C118.129 114.507 118.238 114.346 118.343 114.18L118.355 114.156C118.46 113.999 118.566 113.834 118.666 113.673C118.746 113.541 118.826 113.413 118.906 113.285C118.956 113.198 119.011 113.111 119.061 113.021C119.081 112.993 119.099 112.964 119.116 112.934C119.233 112.732 119.351 112.529 119.469 112.327C119.607 112.092 119.742 111.852 119.876 111.613C119.927 111.514 119.981 111.415 120.036 111.316C120.057 111.283 120.074 111.25 120.09 111.217C120.153 111.101 120.216 110.981 120.275 110.862C120.338 110.746 120.401 110.626 120.464 110.507C120.523 110.391 120.586 110.271 120.645 110.152C120.691 110.061 120.733 109.97 120.779 109.879C120.783 109.872 120.787 109.865 120.792 109.859C120.813 109.813 120.834 109.772 120.851 109.731C120.856 109.724 120.86 109.717 120.863 109.71C120.91 109.619 120.952 109.524 120.998 109.434C121.057 109.314 121.111 109.19 121.17 109.07C121.208 108.988 121.25 108.901 121.288 108.814C121.342 108.695 121.401 108.575 121.452 108.451C121.51 108.327 121.565 108.203 121.62 108.075C121.635 108.045 121.649 108.013 121.662 107.981C121.691 107.923 121.712 107.865 121.737 107.807C121.804 107.654 121.872 107.498 121.935 107.345C122.01 107.171 122.082 106.994 122.149 106.821C122.216 106.66 122.279 106.495 122.342 106.329L122.367 106.272C123.346 103.738 124.089 101.123 124.585 98.4577V98.4536C124.866 96.9319 125.066 95.3971 125.186 93.8552C125.19 93.7685 125.199 93.686 125.203 93.6034C125.279 92.5591 125.312 91.5106 125.312 90.458C125.312 89.9916 125.304 89.5293 125.291 89.067C124.998 79.3981 121.489 70.09 115.301 62.5665C115.167 62.4014 115.033 62.2362 114.894 62.0711C114.755 61.906 114.612 61.745 114.474 61.5841C109.869 56.2849 104.061 52.123 97.5181 49.4341C90.9755 46.7451 83.8815 45.6043 76.808 46.1036C69.7344 46.6028 62.8792 48.7282 56.795 52.3084C50.7107 55.8886 45.5678 60.8234 41.7807 66.7149C41.5748 67.0369 41.369 67.363 41.1715 67.6891C40.9699 68.0193 40.7766 68.3495 40.5834 68.6839C36.7776 75.331 34.7836 82.8312 34.7945 90.458Z" fill="white"/>
<path d="M78.2567 61.3717C85.6989 63.2481 93.3256 64.3297 101.004 64.5977C102.165 64.6598 103.329 64.652 104.489 64.5744C107.039 64.3637 109.223 63.5763 111.655 63.146C112.824 62.9398 114.127 62.7889 115.304 62.566C115.032 62.2345 114.755 61.9069 114.473 61.5835C111.935 61.7942 109.357 62.484 106.788 62.8045C102.422 63.3501 97.529 62.7413 94.2188 61.2397C92.6128 60.5111 91.3826 59.6018 89.7822 58.8698C89.5645 58.76 89.3287 58.6891 89.0858 58.6603C88.6244 58.6466 88.1686 58.7628 87.7721 58.9952C85.0871 60.327 81.1889 61.4094 77.5705 60.8139C77.3008 61.0212 77.8132 61.2574 78.2567 61.3717Z" fill="white"/>
<path d="M62.2448 66.0586C62.2118 66.0527 62.1788 66.048 62.1458 66.0424C62.2845 65.9578 62.4151 65.8609 62.536 65.7529L62.2448 66.0586Z" fill="white"/>
<path d="M40.5845 68.6863C42.0957 68.805 43.6148 68.8933 45.1418 68.9513C46.303 69.0129 47.4669 69.0052 48.627 68.9281C51.1766 68.7162 53.3605 67.93 55.7927 67.4997C58.0217 67.106 60.7304 66.9164 62.1457 66.0425C58.4878 65.4204 54.6979 66.6868 50.926 67.1581C47.875 67.5268 44.7822 67.3767 41.7831 66.7145C41.3655 67.36 40.9659 68.0172 40.5845 68.6863Z" fill="white"/>
<path d="M58.866 129.76C59.2272 129.954 59.5927 130.14 59.9582 130.317C60.0884 130.379 60.2229 130.441 60.3531 130.507C60.4623 130.556 60.5716 130.61 60.6808 130.66C60.7144 130.676 60.7438 130.689 60.7732 130.705C60.8656 130.746 60.9538 130.788 61.0463 130.829C61.1471 130.874 61.2479 130.92 61.3445 130.965C61.458 131.015 61.5672 131.064 61.6806 131.11C62.1007 131.295 62.525 131.473 62.9493 131.642C64.4698 132.255 66.0238 132.784 67.6039 133.227C67.6754 133.248 67.751 133.268 67.8266 133.289C68.503 133.475 69.1835 133.644 69.8683 133.797C71.0655 134.069 72.274 134.292 73.4937 134.465H73.5021C73.6491 134.486 73.7919 134.507 73.939 134.527C73.9516 134.527 73.9642 134.532 73.981 134.532C73.981 134.536 73.981 134.536 73.9852 134.532C74.1448 134.552 74.3087 134.573 74.4683 134.593C74.4792 134.597 74.4906 134.598 74.5019 134.598C74.6531 134.618 74.8086 134.635 74.9598 134.651C75.1236 134.668 75.2875 134.684 75.4513 134.701C75.5774 134.713 75.7034 134.726 75.8294 134.738C75.8402 134.742 75.8516 134.743 75.863 134.742C75.9764 134.75 76.0899 134.763 76.2033 134.771H76.2201C76.3167 134.779 76.4175 134.787 76.5142 134.796C77.6862 134.887 78.8625 134.928 80.0556 134.928C81.3452 134.928 82.6265 134.878 83.891 134.771H83.9036C84.1767 134.746 84.4455 134.721 84.7144 134.697C84.7858 134.688 84.853 134.684 84.9244 134.676C84.9371 134.676 84.9539 134.672 84.9665 134.672C84.9875 134.668 85.0085 134.668 85.0337 134.664C85.045 134.664 85.0564 134.663 85.0673 134.659C85.1597 134.651 85.2521 134.639 85.3487 134.631L85.6638 134.593C85.7688 134.581 85.8739 134.565 85.9789 134.552C86.0041 134.548 86.0251 134.548 86.0503 134.544C86.1259 134.536 86.2015 134.523 86.2772 134.511C86.315 134.507 86.3528 134.503 86.3864 134.499C86.462 134.486 86.5334 134.478 86.609 134.466H86.6132C88.9184 134.139 91.194 133.636 93.4188 132.959C93.5364 132.922 93.654 132.889 93.7716 132.852C93.2292 130.366 92.1125 128.036 90.5078 126.042C88.9031 124.048 86.8534 122.443 84.517 121.351C85.0949 120.811 85.4944 120.112 85.6638 119.345C85.7729 118.851 85.7815 118.341 85.6892 117.844C85.597 117.347 85.4056 116.872 85.1261 116.448C84.581 115.625 83.7257 115.049 82.7484 114.846L76.5226 113.566C75.5203 113.374 74.4815 113.579 73.6319 114.136C72.7823 114.692 72.1907 115.556 71.9855 116.538C71.922 116.84 71.8938 117.147 71.9015 117.455C65.9068 121.376 61.5924 125.442 58.866 129.76Z" fill="#6C63FF"/>
<path d="M83.4954 109.437C91.8648 109.437 98.6496 102.77 98.6496 94.5465C98.6496 86.3228 91.8648 79.6562 83.4954 79.6562C75.126 79.6562 68.3413 86.3228 68.3413 94.5465C68.3413 102.77 75.126 109.437 83.4954 109.437Z" fill="#9E616A"/>
<path d="M81.342 108.641C77.5481 109.648 73.3656 108.309 70.4049 105.77C67.4441 103.231 65.5921 99.6333 64.525 95.917C63.7434 93.1954 63.3728 90.1742 64.6062 87.619C65.8395 85.0639 69.1588 83.34 71.7196 84.6306C70.1399 82.8221 70.9291 79.831 72.7741 78.2839C74.6192 76.7367 77.1527 76.2932 79.5657 76.0507C83.0676 75.6988 86.6848 75.6594 90.0171 76.7742C93.3494 77.8889 96.3771 80.3261 97.4201 83.6297C98.4852 84.117 99.6848 84.2434 100.831 83.9891C101.977 83.7349 103.005 83.1143 103.754 82.2246C103.947 83.2464 103.792 84.3023 103.312 85.2288C102.833 86.1554 102.057 86.9009 101.103 87.3501L106.209 85.7236C107.087 87.5499 105.548 89.8102 103.581 90.395C101.613 90.9798 99.4892 90.3406 97.6221 89.4957C95.755 88.6507 93.9456 87.5825 91.9175 87.253C89.8895 86.9235 87.5072 87.5638 86.5691 89.361C86.0778 90.3023 86.0522 91.4048 85.7669 92.4249C85.4816 93.445 84.759 94.5026 83.6857 94.5861C83.0076 94.6388 82.3437 94.2839 81.6675 94.3565C81.2525 94.4368 80.8704 94.6342 80.5679 94.9247C80.2653 95.2151 80.0556 95.5859 79.9643 95.9917C79.7959 96.806 79.7938 97.645 79.9582 98.4601L81.2551 108.201L81.342 108.641Z" fill="#2F2E41"/>
</svg>
