<svg width="362" height="445" viewBox="0 0 362 445" fill="none" xmlns="http://www.w3.org/2000/svg">
<path d="M232.317 161.873C265.129 170.355 285.45 195.937 307.428 217.82C329.573 239.869 355.349 261.328 360.663 289.665C366.058 318.439 354.551 347.889 336.505 372.883C319.307 396.701 291.711 413.385 262.028 426.272C233.673 438.582 202.657 444.257 170.649 444.888C137.257 445.547 103.188 443.629 74.1375 429.98C43.7198 415.688 16.7942 394.278 4.94753 367.033C-6.65513 340.349 5.05853 311.795 10.5784 283.804C16.1516 255.544 14.1329 223.824 37.3719 202.617C60.6371 181.387 98.8849 179.602 132.456 172.585C165.673 165.643 199.615 153.418 232.317 161.873Z" fill="#EEEEEE"/>
<g clip-path="url(#clip0_170_1446)">
<path d="M283.872 239.286C281.201 239.286 278.59 238.492 276.369 237.006C274.148 235.52 272.417 233.407 271.395 230.935C270.373 228.464 270.106 225.744 270.627 223.12C271.148 220.496 272.434 218.086 274.323 216.194C276.211 214.303 278.618 213.014 281.237 212.492C283.857 211.97 286.572 212.238 289.04 213.262C291.508 214.286 293.617 216.02 295.101 218.244C296.585 220.468 297.377 223.084 297.377 225.759C297.373 229.345 295.948 232.783 293.417 235.319C290.885 237.855 287.452 239.282 283.872 239.286Z" fill="#CCCCCC"/>
<path d="M290.104 225.239H284.391V218.736C284.391 218.598 284.336 218.466 284.239 218.368C284.141 218.271 284.009 218.216 283.872 218.216C283.734 218.216 283.602 218.271 283.504 218.368C283.407 218.466 283.352 218.598 283.352 218.736V225.239H277.639C277.501 225.239 277.369 225.294 277.271 225.392C277.174 225.489 277.119 225.622 277.119 225.76C277.119 225.897 277.174 226.03 277.271 226.127C277.369 226.225 277.501 226.28 277.639 226.28H283.352V232.783C283.352 232.921 283.407 233.053 283.504 233.151C283.602 233.248 283.734 233.303 283.872 233.303C284.009 233.303 284.141 233.248 284.239 233.151C284.336 233.053 284.391 232.921 284.391 232.783V226.28H290.104C290.242 226.28 290.374 226.225 290.472 226.127C290.569 226.03 290.624 225.897 290.624 225.76C290.624 225.622 290.569 225.489 290.472 225.392C290.374 225.294 290.242 225.239 290.104 225.239Z" fill="white"/>
<path d="M335.878 302.673L329.94 302.673L327.117 279.731L335.88 279.732L335.878 302.673Z" fill="#FFB8B8"/>
<path d="M325.699 300.973H337.151V308.195H318.488C318.488 307.246 318.675 306.307 319.037 305.431C319.4 304.555 319.931 303.759 320.6 303.088C321.27 302.417 322.065 301.885 322.939 301.522C323.814 301.159 324.752 300.973 325.699 300.973V300.973Z" fill="#2F2E41"/>
<path d="M312.245 302.673L306.307 302.673L303.483 279.731L312.247 279.732L312.245 302.673Z" fill="#FFB8B8"/>
<path d="M302.065 300.973H313.517V308.195H294.855C294.855 307.246 295.041 306.307 295.404 305.431C295.766 304.555 296.297 303.759 296.967 303.088C297.636 302.417 298.431 301.885 299.306 301.522C300.181 301.159 301.119 300.973 302.065 300.973V300.973Z" fill="#2F2E41"/>
<path d="M340.452 223.359C339.974 222.831 339.618 222.203 339.408 221.522C339.199 220.84 339.141 220.121 339.239 219.415C339.336 218.708 339.588 218.032 339.975 217.433C340.362 216.835 340.875 216.328 341.479 215.95L339.64 204.955L346.038 202.206L348.417 217.769C348.985 218.827 349.145 220.056 348.868 221.225C348.591 222.393 347.895 223.419 346.914 224.108C345.932 224.797 344.732 225.101 343.541 224.963C342.35 224.825 341.251 224.255 340.452 223.359V223.359Z" fill="#FFB8B8"/>
<path d="M290.362 218.165C290.92 217.722 291.375 217.163 291.694 216.525C292.014 215.888 292.189 215.188 292.209 214.475C292.229 213.762 292.093 213.054 291.81 212.399C291.527 211.745 291.104 211.16 290.571 210.687L294.199 200.148L288.342 196.378L283.428 211.334C282.694 212.283 282.333 213.469 282.414 214.667C282.495 215.865 283.011 216.992 283.866 217.834C284.72 218.676 285.854 219.175 287.051 219.236C288.248 219.297 289.426 218.916 290.362 218.165V218.165Z" fill="#FFB8B8"/>
<path d="M320.773 140.523C327.819 140.523 333.531 134.802 333.531 127.745C333.531 120.688 327.819 114.967 320.773 114.967C313.728 114.967 308.016 120.688 308.016 127.745C308.016 134.802 313.728 140.523 320.773 140.523Z" fill="#FFB8B8"/>
<path d="M289.967 210.279C289.748 210.279 289.531 210.248 289.32 210.188L285.602 209.118C285.008 208.946 284.506 208.546 284.206 208.005C283.905 207.464 283.831 206.826 283.998 206.23L291.672 179.093L302.373 152.781C303.437 150.165 305.66 148.45 308.175 148.304C309.323 148.248 310.463 148.526 311.457 149.106C312.45 149.686 313.255 150.541 313.773 151.57V151.57C314.348 152.67 314.664 153.888 314.696 155.13C314.729 156.372 314.476 157.605 313.958 158.734L301.795 185.376L292.126 208.831C291.949 209.259 291.65 209.626 291.266 209.883C290.882 210.141 290.43 210.279 289.967 210.279Z" fill="#3F3D56"/>
<path d="M327.972 138.46L320.884 138.586C320.146 138.601 319.415 138.441 318.749 138.121C318.084 137.8 317.503 137.328 317.053 136.741C316.603 136.154 316.298 135.47 316.16 134.743C316.023 134.016 316.059 133.267 316.264 132.557C316.415 132.043 316.529 131.519 316.604 130.989C316.684 130.411 316.699 129.826 316.651 129.244C316.606 128.662 316.365 128.112 315.967 127.685C315.569 127.258 315.038 126.979 314.461 126.894C313.885 126.809 313.296 126.923 312.792 127.217C312.288 127.511 311.899 127.967 311.688 128.512C310.496 128.529 307.957 128.14 306.765 128.157C304.235 121.659 309.749 113.156 315.686 109.962C321.737 106.707 329.593 110.019 331.913 116.805C335.132 116.863 337.748 120.043 338.163 123.623C338.578 127.203 337.107 130.942 334.858 133.686C332.608 136.43 329.655 138.43 327.972 138.46Z" fill="#2F2E41"/>
<path d="M304.672 300.531C304.098 300.527 303.545 300.313 303.118 299.929C302.691 299.544 302.419 299.016 302.355 298.444L299.725 209.879L332.857 212.241L332.883 212.455C340.37 275.23 337.81 296.96 337.784 297.172C337.765 297.493 337.681 297.807 337.536 298.095C337.391 298.382 337.188 298.636 336.941 298.841C336.694 299.046 336.407 299.198 336.098 299.287C335.789 299.376 335.466 299.401 335.147 299.359L327.825 299.535C327.27 299.472 326.756 299.212 326.376 298.802C325.996 298.392 325.775 297.859 325.753 297.3L318.912 233.152C318.87 232.986 318.77 232.839 318.631 232.739C318.492 232.638 318.322 232.59 318.151 232.603C317.974 232.602 317.803 232.663 317.667 232.775C317.531 232.887 317.437 233.042 317.403 233.215L314.76 297.573C314.788 298.17 314.586 298.755 314.195 299.208C313.804 299.66 313.255 299.944 312.661 300.002L304.905 300.519C304.828 300.527 304.75 300.531 304.672 300.531V300.531Z" fill="#2F2E41"/>
<path d="M318.421 220.461C318.222 220.461 318.025 220.458 317.826 220.452C308.299 220.165 300.845 212.945 298.788 210.739C298.526 210.458 298.338 210.116 298.24 209.744C298.142 209.372 298.137 208.982 298.226 208.608L303.722 185.319L302.264 165.072C302.035 162.262 302.403 159.436 303.344 156.778C304.284 154.121 305.776 151.693 307.721 149.655C309.342 147.941 311.312 146.595 313.497 145.709C315.682 144.824 318.032 144.419 320.388 144.523C329.662 144.966 336.978 153.269 337.045 163.425C337.147 179.155 336.685 180.235 336.533 180.59C331.905 191.41 334.432 206.598 335.317 210.995C335.396 211.387 335.374 211.793 335.253 212.174C335.131 212.556 334.914 212.9 334.623 213.173C329.532 218.011 324.084 220.461 318.421 220.461Z" fill="#3F3D56"/>
<path d="M342.347 214.541C341.818 214.541 341.305 214.361 340.892 214.031C340.479 213.701 340.19 213.24 340.072 212.724L334.402 187.982L326.802 159.702C326.478 158.503 326.432 157.245 326.668 156.026C326.905 154.806 327.418 153.657 328.167 152.667C328.848 151.739 329.782 151.029 330.858 150.621C331.933 150.214 333.103 150.128 334.227 150.373C336.683 150.932 338.592 152.992 339.21 155.748L345.42 183.441L348.517 211.504C348.583 212.119 348.404 212.736 348.019 213.22C347.633 213.704 347.072 214.015 346.458 214.087L342.615 214.526C342.526 214.536 342.437 214.541 342.347 214.541Z" fill="#3F3D56"/>
<path d="M37.0142 217.209C37.6871 216.747 38.2506 216.143 38.6651 215.44C39.0796 214.736 39.335 213.95 39.4133 213.136C39.4917 212.323 39.391 211.502 39.1185 210.732C38.846 209.962 38.4081 209.261 37.8359 208.679L40.0004 160.286L28.9808 161.525L29.621 208.86C28.7081 209.888 28.2032 211.215 28.2022 212.591C28.2011 213.967 28.7038 215.295 29.6151 216.324C30.5265 217.353 31.783 218.012 33.1467 218.175C34.5104 218.338 35.8865 217.995 37.0142 217.209V217.209Z" fill="#FFB8B8"/>
<path d="M57.1167 299.129L63.3886 300.233L69.5873 276.528L61.3696 274.898L57.1167 299.129Z" fill="#FFB8B8"/>
<path d="M74.4604 308.195L54.7494 304.724L56.0882 297.097L68.1836 299.226C69.1837 299.402 70.1394 299.774 70.9961 300.32C71.8528 300.866 72.5937 301.576 73.1766 302.409C73.7594 303.242 74.1728 304.181 74.3931 305.174C74.6134 306.167 74.6363 307.194 74.4604 308.195V308.195Z" fill="#2F2E41"/>
<path d="M39.9024 302.273H46.2704L49.2996 277.671L39.9014 277.671L39.9024 302.273Z" fill="#FFB8B8"/>
<path d="M58.5518 308.194L38.5384 308.195L38.5381 300.45L50.819 300.45C52.8698 300.45 54.8366 301.266 56.2867 302.718C57.7369 304.17 58.5517 306.14 58.5518 308.194V308.194Z" fill="#2F2E41"/>
<path d="M66.9912 295.536C66.8919 295.536 66.7926 295.53 66.6939 295.518L59.1988 294.9C58.8575 294.86 58.528 294.751 58.2302 294.579C57.9324 294.407 57.6726 294.177 57.4665 293.902C57.2604 293.626 57.1123 293.312 57.0313 292.977C56.9503 292.643 56.938 292.295 56.9951 291.956L63.9161 253.103L59.2396 228.404C59.2015 228.204 59.0922 228.024 58.9319 227.897C58.7716 227.771 58.5711 227.707 58.3675 227.717C58.1638 227.727 57.9706 227.811 57.8236 227.953C57.6766 228.094 57.5857 228.284 57.5676 228.488L51.7212 294.366C51.657 295.027 51.3389 295.638 50.8341 296.068C50.3293 296.499 49.6771 296.716 49.0153 296.675L41.954 296.411C41.3352 296.367 40.7538 296.098 40.3197 295.654C39.8856 295.21 39.6288 294.622 39.5977 294.002L39.123 215.044L75.7318 210.461L78.2892 250.021L78.2791 250.063L69.4539 293.595C69.3194 294.148 69.0037 294.64 68.5572 294.992C68.1107 295.344 67.5593 295.535 66.9912 295.536V295.536Z" fill="#2F2E41"/>
<path d="M51.1929 128.927C58.2385 128.927 63.9502 123.206 63.9502 116.149C63.9502 109.092 58.2385 103.371 51.1929 103.371C44.1472 103.371 38.4355 109.092 38.4355 116.149C38.4355 123.206 44.1472 128.927 51.1929 128.927Z" fill="#FFB8B8"/>
<path d="M63.2134 220.815C61.2182 220.827 59.2613 220.266 57.5742 219.199C51.3946 215.331 44.3756 216.868 40.7417 218.129C40.3811 218.256 39.9966 218.299 39.617 218.255C39.2374 218.212 38.8724 218.083 38.5495 217.879C38.2302 217.678 37.9604 217.408 37.7604 217.088C37.5603 216.768 37.4351 216.406 37.3941 216.031L30.7859 156.917C29.6785 147.013 35.635 137.701 44.949 134.775C45.299 134.665 45.6548 134.561 46.0165 134.462C48.915 133.675 51.9504 133.534 54.9093 134.048C57.8681 134.563 60.6785 135.72 63.1426 137.44C65.6526 139.178 67.7517 141.446 69.2922 144.084C70.8327 146.723 71.7772 149.667 72.0592 152.711L77.6224 212.221C77.6603 212.606 77.6084 212.995 77.4707 213.357C77.3331 213.719 77.1134 214.043 76.8292 214.306C74.879 216.113 69.2189 220.814 63.2134 220.815Z" fill="#6C63FF"/>
<path d="M43.0911 169.593L28.1822 167.951C27.758 167.905 27.3489 167.767 26.9826 167.548C26.6163 167.328 26.3016 167.032 26.0598 166.68C25.818 166.328 25.6548 165.928 25.5814 165.507C25.508 165.086 25.526 164.654 25.6343 164.24L29.4291 149.753C29.6801 147.58 30.7809 145.596 32.4902 144.235C34.1994 142.875 36.3777 142.248 38.5474 142.494C40.7171 142.739 42.701 143.836 44.0643 145.544C45.4276 147.253 46.059 149.433 45.8199 151.607L46.3833 166.525C46.3993 166.952 46.3232 167.378 46.1602 167.773C45.9971 168.168 45.751 168.523 45.4386 168.814C45.1262 169.105 44.7548 169.326 44.3497 169.46C43.9446 169.595 43.5153 169.64 43.0911 169.593V169.593Z" fill="#6C63FF"/>
<path d="M77.5626 215.137C78.175 214.598 78.6617 213.93 78.9885 213.181C79.3153 212.433 79.4743 211.621 79.4542 210.804C79.4341 209.988 79.2355 209.185 78.8722 208.454C78.509 207.722 77.9901 207.079 77.352 206.57L73.6782 158.269L62.8804 160.703L69.2187 207.741C68.4361 208.872 68.0946 210.251 68.2591 211.616C68.4235 212.982 69.0824 214.24 70.1109 215.152C71.1394 216.063 72.4661 216.565 73.8395 216.563C75.2129 216.56 76.5376 216.053 77.5626 215.137Z" fill="#FFB8B8"/>
<path d="M58.7406 166.557C58.4281 166.266 58.1819 165.911 58.0189 165.516C57.8559 165.121 57.7799 164.695 57.7961 164.268L58.3595 149.35C58.1204 147.176 58.7517 144.996 60.115 143.288C61.4783 141.579 63.4623 140.482 65.632 140.237C67.8016 139.991 69.9799 140.618 71.6892 141.979C73.3985 143.339 74.4993 145.324 74.7502 147.496L78.5451 161.983C78.6534 162.397 78.6714 162.829 78.598 163.25C78.5245 163.671 78.3614 164.071 78.1196 164.423C77.8778 164.776 77.563 165.071 77.1968 165.291C76.8305 165.51 76.4213 165.648 75.9971 165.695L61.0883 167.337C60.664 167.383 60.2347 167.338 59.8295 167.204C59.4243 167.069 59.0529 166.849 58.7406 166.557V166.557Z" fill="#6C63FF"/>
<path d="M50.4344 129.409C50.2076 129.409 49.9816 129.382 49.7609 129.33L49.6961 129.314C38.4797 127.596 36.0009 121.088 35.4568 118.371C34.8936 115.557 35.5349 112.841 36.984 111.787C36.1939 109.288 36.3207 107.072 37.3617 105.199C39.1772 101.932 43.1174 100.827 43.6458 100.692C46.7924 98.3666 50.5573 99.9187 51.2423 100.233C57.329 97.9779 59.6555 99.8555 60.0762 100.275C62.7971 100.764 64.4555 101.817 65.0061 103.404C66.0402 106.386 62.7698 110.095 62.6301 110.251L62.5575 110.332L57.6854 110.565C57.2231 110.587 56.7705 110.706 56.3572 110.914C55.9438 111.123 55.5788 111.416 55.2859 111.775C54.993 112.134 54.7786 112.551 54.6568 112.998C54.5349 113.445 54.5083 113.913 54.5787 114.371C54.7105 114.962 54.8771 115.545 55.0775 116.117C55.9096 118.722 56.5331 120.947 55.729 121.793C55.5468 121.956 55.3223 122.065 55.0811 122.107C54.84 122.149 54.5919 122.122 54.3654 122.029C53.6036 121.826 53.0864 121.868 52.8287 122.157C52.4286 122.604 52.5507 123.735 53.1726 125.343C53.3677 125.852 53.4202 126.404 53.3245 126.94C53.2287 127.476 52.9883 127.976 52.6293 128.385C52.3591 128.705 52.0229 128.962 51.6439 129.138C51.265 129.315 50.8524 129.407 50.4344 129.409Z" fill="#2F2E41"/>
<path d="M94.2371 309H21.5194C21.3817 309 21.2495 308.946 21.1521 308.848C21.0547 308.751 21 308.618 21 308.48C21 308.342 21.0547 308.21 21.1521 308.112C21.2495 308.015 21.3817 307.96 21.5194 307.96H94.2371C94.3749 307.96 94.507 308.015 94.6044 308.112C94.7018 308.21 94.7566 308.342 94.7566 308.48C94.7566 308.618 94.7018 308.751 94.6044 308.848C94.507 308.946 94.3749 309 94.2371 309Z" fill="#CCCCCC"/>
<path d="M347.71 309H274.993C274.855 309 274.723 308.946 274.625 308.848C274.528 308.751 274.473 308.618 274.473 308.48C274.473 308.342 274.528 308.21 274.625 308.112C274.723 308.015 274.855 307.96 274.993 307.96H347.71C347.848 307.96 347.98 308.015 348.078 308.112C348.175 308.21 348.23 308.342 348.23 308.48C348.23 308.618 348.175 308.751 348.078 308.848C347.98 308.946 347.848 309 347.71 309Z" fill="#CCCCCC"/>
<path d="M243.679 220.588H117.981C113.161 220.582 108.54 218.662 105.132 215.248C101.724 211.835 99.8067 207.206 99.8013 202.379V18.2089C99.8067 13.3813 101.724 8.75295 105.132 5.33931C108.54 1.92567 113.161 0.00547897 117.981 0H243.679C248.498 0.00547897 253.119 1.92567 256.527 5.33931C259.935 8.75295 261.852 13.3813 261.858 18.2089V202.379C261.852 207.206 259.935 211.835 256.527 215.248C253.119 218.662 248.498 220.582 243.679 220.588V220.588Z" fill="white"/>
<path d="M223.941 146.206H137.719C128.911 146.164 128.874 132.726 137.719 132.68L223.941 132.68C232.743 132.721 232.79 146.16 223.941 146.206Z" fill="#CCCCCC"/>
<path d="M223.941 37.9631H137.719C128.911 37.9206 128.874 24.4826 137.719 24.4365L223.941 24.4365C232.743 24.4778 232.79 37.9169 223.941 37.9631Z" fill="#CCCCCC"/>
<path d="M223.941 171.179H137.719C128.911 171.136 128.874 157.698 137.719 157.652L223.941 157.652C232.743 157.694 232.79 171.133 223.941 171.179Z" fill="#CCCCCC"/>
<path d="M223.941 196.151H137.719C128.911 196.108 128.874 182.67 137.719 182.624L223.941 182.624C232.743 182.665 232.79 196.104 223.941 196.151Z" fill="#CCCCCC"/>
<path d="M222.383 116.448H139.277C137.005 116.445 134.826 115.54 133.22 113.931C131.613 112.322 130.709 110.14 130.707 107.864V61.2492C130.709 58.9733 131.613 56.7914 133.22 55.1821C134.826 53.5728 137.005 52.6676 139.277 52.665H222.383C224.655 52.6676 226.833 53.5728 228.44 55.1821C230.047 56.7914 230.951 58.9733 230.953 61.2492V107.864C230.951 110.14 230.047 112.322 228.44 113.931C226.833 115.54 224.655 116.445 222.383 116.448V116.448Z" fill="#6C63FF"/>
<path d="M243.679 220.588H117.981C113.161 220.582 108.54 218.662 105.132 215.248C101.724 211.835 99.8067 207.206 99.8013 202.379V18.2089C99.8067 13.3813 101.724 8.75295 105.132 5.33931C108.54 1.92567 113.161 0.00547897 117.981 0H243.679C248.498 0.00547897 253.119 1.92567 256.527 5.33931C259.935 8.75295 261.852 13.3813 261.858 18.2089V202.379C261.852 207.206 259.935 211.835 256.527 215.248C253.119 218.662 248.498 220.582 243.679 220.588V220.588ZM117.981 3.12152C113.987 3.12604 110.158 4.71706 107.335 7.54551C104.511 10.374 102.922 14.2089 102.918 18.2089V202.379C102.922 206.379 104.511 210.214 107.335 213.042C110.158 215.871 113.987 217.462 117.981 217.466H243.679C247.672 217.462 251.501 215.871 254.325 213.042C257.149 210.214 258.737 206.379 258.741 202.379V18.2089C258.737 14.2089 257.149 10.3739 254.325 7.54549C251.501 4.71704 247.672 3.12603 243.679 3.12152H117.981Z" fill="#E6E6E6"/>
</g>
<defs>
<clipPath id="clip0_170_1446">
<rect width="328" height="309" fill="white" transform="translate(21)"/>
</clipPath>
</defs>
</svg>
