<svg width="60" height="60" viewBox="0 0 60 60" fill="none" xmlns="http://www.w3.org/2000/svg">
<g opacity="0.5">
<path fill-rule="evenodd" clip-rule="evenodd" d="M35.9625 38.6141C29.3368 43.9208 19.6382 43.5031 13.4963 37.3611C6.90619 30.771 6.90619 20.0864 13.4963 13.4963C20.0864 6.90619 30.771 6.90619 37.3611 13.4963C43.5031 19.6382 43.9208 29.3368 38.6141 35.9625L51.5032 48.8516C52.2355 49.5838 52.2355 50.771 51.5032 51.5032C50.771 52.2354 49.5838 52.2354 48.8516 51.5032L35.9625 38.6141ZM16.1479 34.7095C11.0223 29.5839 11.0223 21.2736 16.1479 16.1479C21.2736 11.0223 29.5839 11.0223 34.7095 16.1479C39.8314 21.2698 39.8351 29.5717 34.7208 34.6982C34.717 34.7019 34.7132 34.7057 34.7094 34.7094C34.7057 34.7132 34.7019 34.717 34.6982 34.7207C29.5717 39.8351 21.2698 39.8314 16.1479 34.7095Z" fill="#1F1F1F"/>
</g>
</svg>
