<svg width="270" height="270" viewBox="0 0 270 270" fill="none" xmlns="http://www.w3.org/2000/svg">
<path d="M250 135C261.046 135 270.152 125.998 268.521 115.073C266.898 104.2 263.95 93.5406 259.724 83.3377C252.939 66.9588 242.995 52.0765 230.459 39.5406C217.924 27.0047 203.041 17.0606 186.662 10.2763C170.283 3.49188 152.728 -7.74935e-07 135 0C117.272 7.74935e-07 99.7167 3.49188 83.3377 10.2763C66.9588 17.0607 52.0765 27.0047 39.5406 39.5406C27.0047 52.0765 17.0606 66.9588 10.2763 83.3377C6.05009 93.5406 3.10154 104.2 1.47879 115.073C-0.15165 125.998 8.9543 135 20 135L23.3327 135C34.3784 135 43.115 125.942 45.5059 115.158C46.6581 109.961 48.2636 104.862 50.3104 99.9204C54.9171 88.7988 61.6693 78.6935 70.1814 70.1814C78.6935 61.6693 88.7988 54.9172 99.9204 50.3104C111.042 45.7037 122.962 43.3327 135 43.3327C147.038 43.3327 158.958 45.7037 170.08 50.3104C181.201 54.9172 191.306 61.6693 199.819 70.1814C208.331 78.6935 215.083 88.7988 219.69 99.9204C221.736 104.862 223.342 109.961 224.494 115.158C226.885 125.942 235.622 135 246.667 135H250Z" fill="#EEEEEE"/>
<path d="M96.9188 26.4882C93.2611 16.0657 81.7509 10.4545 71.9825 15.6106C53.5462 25.3419 37.5297 39.2571 25.2787 56.3474C13.0276 73.4378 4.99282 93.0746 1.6973 113.659C-0.048825 124.566 8.96138 133.665 20.0065 133.782L23.3389 133.817C34.384 133.934 43.216 124.969 45.7211 114.211C48.4399 102.536 53.4377 91.4419 60.4973 81.5936C67.557 71.7452 76.4581 63.4497 86.6422 57.1256C96.0258 51.2985 101.68 40.0553 98.0224 29.6328L96.9188 26.4882Z" fill="url(#paint0_linear_113_1492)"/>
<defs>
<linearGradient id="paint0_linear_113_1492" x1="0" y1="270" x2="209.25" y2="-45.9" gradientUnits="userSpaceOnUse">
<stop stop-color="#4B8521" stop-opacity="0.79"/>
<stop offset="1" stop-color="#79EA27" stop-opacity="0.94"/>
</linearGradient>
</defs>
</svg>
