<svg width="270" height="270" viewBox="0 0 270 270" fill="none" xmlns="http://www.w3.org/2000/svg">
<path d="M250 135C261.046 135 270.152 125.998 268.521 115.073C266.898 104.2 263.95 93.5406 259.724 83.3377C252.939 66.9588 242.995 52.0765 230.459 39.5406C217.924 27.0047 203.041 17.0607 186.662 10.2763C170.283 3.49188 152.728 0 135 0C117.272 0 99.7167 3.49188 83.3377 10.2763C66.9588 17.0607 52.0765 27.0047 39.5406 39.5406C27.0047 52.0765 17.0606 66.9588 10.2763 83.3378C6.05009 93.5406 3.10154 104.2 1.47879 115.073C-0.15165 125.998 8.9543 135 20 135H23.3327C34.3784 135 43.115 125.942 45.5059 115.158C46.6581 109.961 48.2636 104.862 50.3104 99.9204C54.9171 88.7988 61.6693 78.6935 70.1814 70.1814C78.6935 61.6693 88.7988 54.9172 99.9204 50.3104C111.042 45.7037 122.962 43.3327 135 43.3327C147.038 43.3327 158.958 45.7037 170.08 50.3104C181.201 54.9171 191.306 61.6693 199.819 70.1814C208.331 78.6935 215.083 88.7988 219.69 99.9204C221.736 104.862 223.342 109.961 224.494 115.158C226.885 125.942 235.622 135 246.667 135H250Z" fill="#EEEEEE"/>
<path d="M165.842 24.213C168.805 13.572 162.574 2.38519 151.612 1.026C137.768 -0.690674 123.7 -0.255981 109.913 2.35141C89.5539 6.20181 70.3541 14.687 53.8008 27.1497C37.2476 39.6124 23.7853 55.7181 14.4565 74.2195C8.13935 86.7481 3.83248 100.147 1.65482 113.927C-0.0693826 124.837 8.95895 133.918 20.0042 134.013L23.3368 134.041C34.3821 134.136 43.1961 125.153 45.6796 114.39C47.3267 107.252 49.8289 100.313 53.1489 93.729C59.4833 81.1662 68.6245 70.2301 79.8644 61.7678C91.1043 53.3054 104.141 47.5438 117.966 44.9293C125.211 43.559 132.571 43.0725 139.887 43.463C150.917 44.0519 161.986 38.0646 164.948 27.4236L165.842 24.213Z" fill="url(#paint0_linear_113_1498)"/>
<defs>
<linearGradient id="paint0_linear_113_1498" x1="0" y1="270" x2="209.25" y2="-45.9" gradientUnits="userSpaceOnUse">
<stop stop-color="#4B8521" stop-opacity="0.79"/>
<stop offset="1" stop-color="#79EA27" stop-opacity="0.94"/>
</linearGradient>
</defs>
</svg>
