<svg width="270" height="270" viewBox="0 0 270 270" fill="none" xmlns="http://www.w3.org/2000/svg">
<path d="M250 135C261.046 135 270.152 125.998 268.521 115.073C266.898 104.2 263.95 93.5406 259.724 83.3377C252.939 66.9588 242.995 52.0765 230.459 39.5406C217.924 27.0047 203.041 17.0607 186.662 10.2763C170.283 3.49188 152.728 0 135 0C117.272 0 99.7167 3.49188 83.3377 10.2763C66.9588 17.0607 52.0765 27.0047 39.5406 39.5406C27.0047 52.0765 17.0606 66.9588 10.2763 83.3378C6.05009 93.5406 3.10154 104.2 1.47879 115.073C-0.15165 125.998 8.9543 135 20 135H23.3327C34.3784 135 43.115 125.942 45.5059 115.158C46.6581 109.961 48.2636 104.862 50.3104 99.9204C54.9171 88.7988 61.6693 78.6935 70.1814 70.1814C78.6935 61.6693 88.7988 54.9172 99.9204 50.3104C111.042 45.7037 122.962 43.3327 135 43.3327C147.038 43.3327 158.958 45.7037 170.08 50.3104C181.201 54.9171 191.306 61.6693 199.819 70.1814C208.331 78.6935 215.083 88.7988 219.69 99.9204C221.736 104.862 223.342 109.961 224.494 115.158C226.885 125.942 235.622 135 246.667 135H250Z" fill="#EEEEEE"/>
<path d="M234.201 76.8268C243.729 71.2393 247.03 58.8669 240.098 50.2679C226.029 32.818 207.764 19.0594 186.877 10.3655C159.803 -0.903534 129.796 -3.05038 101.394 4.24969C72.9917 11.5498 47.7388 27.8997 29.4543 50.827C15.348 68.515 5.98113 89.3756 2.07038 111.447C0.143218 122.323 9.00098 131.57 20.0426 131.871L23.374 131.961C34.4156 132.262 43.3953 123.445 46.0789 112.73C49.2485 100.075 55.1027 88.1647 63.3326 77.8451C75.7481 62.2771 92.8953 51.1752 112.181 46.2183C131.467 41.2614 151.842 42.7192 170.226 50.371C182.412 55.4433 193.283 63.0544 202.162 72.6129C209.68 80.7057 221.798 84.1002 231.326 78.5127L234.201 76.8268Z" fill="url(#paint0_linear_113_1504)"/>
<defs>
<linearGradient id="paint0_linear_113_1504" x1="0" y1="270" x2="209.25" y2="-45.9" gradientUnits="userSpaceOnUse">
<stop stop-color="#4B8521" stop-opacity="0.79"/>
<stop offset="1" stop-color="#79EA27" stop-opacity="0.94"/>
</linearGradient>
</defs>
</svg>
