<svg width="798" height="287" viewBox="0 0 798 287" fill="none" xmlns="http://www.w3.org/2000/svg">
<path d="M794.486 5.13549C794.285 2.38142 791.889 0.312013 789.135 0.513354L744.255 3.79428C741.501 3.99561 739.431 6.39145 739.633 9.14552C739.834 11.8996 742.23 13.969 744.984 13.7677L784.878 10.8513L787.794 50.7448C787.995 53.4989 790.391 55.5683 793.145 55.367C795.899 55.1656 797.969 52.7698 797.767 50.0157L794.486 5.13549ZM0.374335 279.961C136.552 297.141 292.434 278.265 435.323 230.736C578.179 183.218 708.522 106.9 793.284 8.76839L785.716 2.23169C702.478 98.5998 573.897 174.104 432.166 221.248C290.468 268.38 136.1 287.005 1.62601 270.039L0.374335 279.961Z" fill="url(#paint0_linear_113_1085)"/>
<defs>
<linearGradient id="paint0_linear_113_1085" x1="-21.0259" y1="157.711" x2="62.1261" y2="413.49" gradientUnits="userSpaceOnUse">
<stop stop-color="#4B8521" stop-opacity="0.79"/>
<stop offset="1" stop-color="#79EA27" stop-opacity="0.94"/>
</linearGradient>
</defs>
</svg>
