<svg width="235" height="85" viewBox="0 0 235 85" fill="none" xmlns="http://www.w3.org/2000/svg">
<path d="M233.281 1.77116C233.222 0.963045 232.519 0.355825 231.711 0.414903L218.542 1.37762C217.734 1.43669 217.127 2.13969 217.186 2.94781C217.245 3.75593 217.948 4.36315 218.756 4.30407L230.462 3.44833L231.318 15.1542C231.377 15.9623 232.08 16.5695 232.888 16.5104C233.696 16.4513 234.303 15.7483 234.244 14.9402L233.281 1.77116ZM0.267675 82.4122C40.226 87.4534 85.9658 81.9147 127.893 67.9685C169.811 54.0255 208.057 31.6317 232.928 2.83715L230.708 0.91911C206.284 29.1961 168.554 51.3511 126.967 65.1842C85.3889 79.0142 40.0931 84.4791 0.63495 79.5011L0.267675 82.4122Z" fill="url(#paint0_linear_113_1722)"/>
<defs>
<linearGradient id="paint0_linear_113_1722" x1="-6.01172" y1="46.541" x2="18.3873" y2="121.593" gradientUnits="userSpaceOnUse">
<stop stop-color="#4B8521" stop-opacity="0.79"/>
<stop offset="1" stop-color="#79EA27" stop-opacity="0.94"/>
</linearGradient>
</defs>
</svg>
