<svg width="589" height="228" viewBox="0 0 589 228" fill="none" xmlns="http://www.w3.org/2000/svg">
<path d="M576.355 4.41062C575.635 1.74487 572.89 0.16796 570.224 0.888503L526.783 12.6305C524.117 13.351 522.54 16.0962 523.261 18.7619C523.981 21.4277 526.726 23.0046 529.392 22.2841L568.007 11.8467L578.444 50.461C579.164 53.1268 581.909 54.7037 584.575 53.9831C587.241 53.2626 588.818 50.5175 588.097 47.8517L576.355 4.41062ZM0.29554 223.451C85.9492 235.641 208.329 218.935 319.733 180.915C430.941 142.961 532.762 83.2401 575.864 8.2058L567.193 3.22478C525.981 74.9678 427.166 133.683 316.503 171.451C206.034 209.151 85.3069 225.449 1.70455 213.55L0.29554 223.451Z" fill="url(#paint0_linear_256_1122)"/>
<defs>
<linearGradient id="paint0_linear_256_1122" x1="-18.1633" y1="116.456" x2="51.6586" y2="321.517" gradientUnits="userSpaceOnUse">
<stop stop-color="#4B8521" stop-opacity="0.79"/>
<stop offset="1" stop-color="#79EA27" stop-opacity="0.94"/>
</linearGradient>
</defs>
</svg>
