<svg width="24" height="24" viewBox="0 0 24 24" fill="none" xmlns="http://www.w3.org/2000/svg">
<path d="M10.775 20.6496H4.5C4.1 20.6496 3.75 20.4996 3.45 20.1996C3.15 19.8996 3 19.5496 3 19.1496V4.59961C3 4.19961 3.12917 3.84961 3.3875 3.54961C3.64583 3.24961 3.86667 3.09961 4.05 3.09961H9.1C9.21667 2.51628 9.50417 2.03711 9.9625 1.66211C10.4208 1.28711 10.95 1.09961 11.55 1.09961C12.15 1.09961 12.6792 1.28711 13.1375 1.66211C13.5958 2.03711 13.8833 2.51628 14 3.09961H19.05C19.45 3.09961 19.8 3.24961 20.1 3.54961C20.4 3.84961 20.55 4.19961 20.55 4.59961V9.67461H19.05V4.59961H16.4V6.34961C16.4 6.76628 16.2542 7.12044 15.9625 7.41211C15.6708 7.70378 15.3167 7.84961 14.9 7.84961H8.65C8.23333 7.84961 7.87917 7.70378 7.5875 7.41211C7.29583 7.12044 7.15 6.76628 7.15 6.34961V4.59961H4.5V19.1496H10.775V20.6496ZM15.5 17.8746L20.95 12.4246C21.1 12.2746 21.275 12.2038 21.475 12.2121C21.675 12.2204 21.85 12.2996 22 12.4496C22.15 12.5996 22.225 12.7788 22.225 12.9871C22.225 13.1954 22.15 13.3746 22 13.5246L16.025 19.4996C15.875 19.6496 15.7 19.7246 15.5 19.7246C15.3 19.7246 15.125 19.6496 14.975 19.4996L12.025 16.5496C11.875 16.3996 11.8042 16.2204 11.8125 16.0121C11.8208 15.8038 11.9 15.6246 12.05 15.4746C12.2 15.3246 12.3792 15.2496 12.5875 15.2496C12.7958 15.2496 12.975 15.3246 13.125 15.4746L15.5 17.8746ZM12 4.49961C12.2833 4.49961 12.5208 4.40378 12.7125 4.21211C12.9042 4.02044 13 3.78294 13 3.49961C13 3.21628 12.9042 2.97878 12.7125 2.78711C12.5208 2.59544 12.2833 2.49961 12 2.49961C11.7167 2.49961 11.4792 2.59544 11.2875 2.78711C11.0958 2.97878 11 3.21628 11 3.49961C11 3.78294 11.0958 4.02044 11.2875 4.21211C11.4792 4.40378 11.7167 4.49961 12 4.49961Z" fill="white"/>
</svg>
