<svg width="24" height="24" viewBox="0 0 24 24" fill="none" xmlns="http://www.w3.org/2000/svg">
<path d="M20.25 16.5V12.75C20.2496 12.3523 20.0914 11.971 19.8102 11.6898C19.529 11.4086 19.1477 11.2504 18.75 11.25H12.75V7.5H15C15.3977 7.4996 15.779 7.34144 16.0602 7.06022C16.3414 6.779 16.4996 6.3977 16.5 6V3C16.4996 2.6023 16.3414 2.221 16.0602 1.93978C15.779 1.65856 15.3977 1.5004 15 1.5H9C8.6023 1.5004 8.221 1.65856 7.93978 1.93978C7.65856 2.221 7.5004 2.6023 7.5 3V6C7.5004 6.3977 7.65856 6.779 7.93978 7.06022C8.221 7.34144 8.6023 7.4996 9 7.5H11.25V11.25H5.25C4.8523 11.2504 4.471 11.4086 4.18978 11.6898C3.90856 11.971 3.7504 12.3523 3.75 12.75V16.5H1.5V22.5H7.5V16.5H5.25V12.75H11.25V16.5H9V22.5H15V16.5H12.75V12.75H18.75V16.5H16.5V22.5H22.5V16.5H20.25ZM9 3H15V6H9V3ZM6 21H3V18H6V21ZM13.5 21H10.5V18H13.5V21ZM21 21H18V18H21V21Z" fill="white"/>
</svg>
