<svg width="20" height="20" viewBox="0 0 20 20" fill="none" xmlns="http://www.w3.org/2000/svg">
<path d="M10.0001 7.39609C8.5665 7.39609 7.39658 8.56601 7.39658 9.9996C7.39658 11.4332 8.5665 12.6031 10.0001 12.6031C11.4337 12.6031 12.6036 11.4332 12.6036 9.9996C12.6036 8.56601 11.4337 7.39609 10.0001 7.39609ZM17.8087 9.9996C17.8087 8.92148 17.8185 7.85312 17.7579 6.77695C17.6974 5.52695 17.4122 4.41757 16.4981 3.50351C15.5821 2.58749 14.4747 2.30429 13.2247 2.24374C12.1466 2.1832 11.0782 2.19296 10.002 2.19296C8.92392 2.19296 7.85556 2.1832 6.77939 2.24374C5.52939 2.30429 4.42001 2.58945 3.50595 3.50351C2.58994 4.41953 2.30673 5.52695 2.24619 6.77695C2.18564 7.85507 2.19541 8.92343 2.19541 9.9996C2.19541 11.0758 2.18564 12.1461 2.24619 13.2223C2.30673 14.4723 2.59189 15.5816 3.50595 16.4957C4.42197 17.4117 5.52939 17.6949 6.77939 17.7555C7.85751 17.816 8.92587 17.8062 10.002 17.8062C11.0802 17.8062 12.1485 17.816 13.2247 17.7555C14.4747 17.6949 15.5841 17.4098 16.4981 16.4957C17.4142 15.5797 17.6974 14.4723 17.7579 13.2223C17.8204 12.1461 17.8087 11.0777 17.8087 9.9996V9.9996ZM10.0001 14.0055C7.7833 14.0055 5.99423 12.2164 5.99423 9.9996C5.99423 7.78281 7.7833 5.99374 10.0001 5.99374C12.2169 5.99374 14.006 7.78281 14.006 9.9996C14.006 12.2164 12.2169 14.0055 10.0001 14.0055ZM14.17 6.76523C13.6524 6.76523 13.2345 6.34726 13.2345 5.82968C13.2345 5.3121 13.6524 4.89414 14.17 4.89414C14.6876 4.89414 15.1056 5.3121 15.1056 5.82968C15.1057 5.95258 15.0816 6.07431 15.0347 6.18788C14.9877 6.30146 14.9188 6.40465 14.8319 6.49156C14.745 6.57846 14.6418 6.64737 14.5282 6.69433C14.4146 6.74129 14.2929 6.76538 14.17 6.76523V6.76523Z" fill="#1D3C07"/>
</svg>
