<svg width="20" height="20" viewBox="0 0 20 20" fill="none" xmlns="http://www.w3.org/2000/svg">
<path fill-rule="evenodd" clip-rule="evenodd" d="M15.4026 16.4922L15.4032 16.4907L15.4177 16.4545L17.9167 3.85526V3.81434C17.9167 3.50042 17.8007 3.22637 17.5483 3.06199C17.3273 2.9181 17.0734 2.90786 16.8953 2.92137C16.7069 2.93567 16.5293 2.98268 16.4064 3.02182C16.3431 3.04195 16.2902 3.06135 16.2523 3.07602C16.2333 3.08338 16.2179 3.08963 16.2067 3.09429L16.1957 3.09892L2.26256 8.5647L2.25872 8.56607C2.2512 8.56881 2.24124 8.57252 2.22922 8.5772C2.20526 8.58653 2.17265 8.59988 2.13433 8.61724C2.0591 8.65134 1.95515 8.70396 1.84973 8.77615C1.67069 8.89876 1.32976 9.18903 1.38733 9.64922C1.43501 10.0304 1.69776 10.2725 1.8749 10.3978C1.96986 10.465 2.0607 10.5134 2.12723 10.5451C2.16093 10.5612 2.18957 10.5735 2.21089 10.5821C2.22158 10.5865 2.23052 10.59 2.23743 10.5926L2.24629 10.5959L2.25195 10.598L4.68965 11.4187C4.68142 11.5716 4.69659 11.7276 4.73715 11.8814L5.95822 16.5134C6.103 17.0626 6.59986 17.4452 7.16783 17.4448C7.67694 17.4444 8.12846 17.1364 8.32028 16.6769L10.2267 14.6385L13.5008 17.1487L13.5474 17.169C13.8449 17.2988 14.1228 17.34 14.3769 17.3053C14.6306 17.2706 14.8323 17.1642 14.9837 17.043C15.1328 16.9238 15.2349 16.7892 15.2992 16.6879C15.3318 16.6364 15.3562 16.5911 15.373 16.5571C15.3815 16.54 15.3882 16.5255 15.3932 16.5142L15.3995 16.4997L15.4017 16.4943L15.4026 16.4922ZM5.94582 11.5628C5.91807 11.4575 5.96163 11.3464 6.05354 11.288L14.3219 6.03726C14.3219 6.03726 14.8082 5.74201 14.7908 6.03726C14.7908 6.03726 14.8776 6.0894 14.617 6.3325C14.3698 6.5634 8.72395 12.0143 8.15267 12.5659C8.1197 12.5977 8.10001 12.6342 8.08839 12.6786L7.16689 16.1948L5.94582 11.5628Z" fill="#1D3C07"/>
</svg>
