<svg width="60" height="60" viewBox="0 0 60 60" fill="none" xmlns="http://www.w3.org/2000/svg">
<path d="M22.5 52.5C21.9583 52.5 21.5104 52.3229 21.1562 51.9688C20.8021 51.6146 20.625 51.1667 20.625 50.625V47.5H8.75C7.70833 47.5 6.82292 47.1354 6.09375 46.4062C5.36458 45.6771 5 44.7917 5 43.75V11.25C5 10.2083 5.36458 9.32292 6.09375 8.59375C6.82292 7.86458 7.70833 7.5 8.75 7.5H31.25V11.25H8.75V43.75H51.25V35H55V43.75C55 44.7917 54.6354 45.6771 53.9062 46.4062C53.1771 47.1354 52.2917 47.5 51.25 47.5H39.375V50.625C39.375 51.1667 39.1979 51.6146 38.8438 51.9688C38.4896 52.3229 38.0417 52.5 37.5 52.5H22.5ZM42.5 33.3125C42.25 33.3125 42.0208 33.2813 41.8125 33.2188C41.6042 33.1563 41.3958 33.0208 41.1875 32.8125L32.1875 23.8125C31.8125 23.4375 31.625 23 31.625 22.5C31.625 22 31.8125 21.5625 32.1875 21.1875C32.5625 20.8125 33 20.625 33.5 20.625C34 20.625 34.4375 20.8125 34.8125 21.1875L40.625 27V9.375C40.625 8.83333 40.8021 8.38542 41.1562 8.03125C41.5104 7.67708 41.9583 7.5 42.5 7.5C43.0417 7.5 43.4896 7.67708 43.8438 8.03125C44.1979 8.38542 44.375 8.83333 44.375 9.375V27L50.1875 21.1875C50.5625 20.8125 51 20.625 51.5 20.625C52 20.625 52.4375 20.8125 52.8125 21.1875C53.1875 21.5625 53.375 22 53.375 22.5C53.375 23 53.1875 23.4375 52.8125 23.8125L43.8125 32.8125C43.6042 33.0208 43.3958 33.1563 43.1875 33.2188C42.9792 33.2813 42.75 33.3125 42.5 33.3125V33.3125Z" fill="#FF8310"/>
</svg>
